SplineFontDB: 3.0
FontName: CMUSansSerif-Bold
FullName: CMU Sans Serif Bold Extended
FamilyName: CMU Sans Serif
Weight: Bold
Copyright: Converted by Andrey V. Panov from TeX fonts
UComments: "2009-6-18: Created." 
Version: 0.7.0
ItalicAngle: 0
UnderlinePosition: -100
UnderlineWidth: 50
Ascent: 800
Descent: 200
LayerCount: 2
Layer: 0 0 "+BBcEMAQ0BD0EOAQ5 +BD8EOwQwBD0A"  1
Layer: 1 0 "+BB8ENQRABDUENAQ9BDgEOQAA +BD8EOwQwBD0A"  0
NeedsXUIDChange: 1
XUID: [1067 4774701]
FSType: 0
OS2Version: 0
OS2_WeightWidthSlopeOnly: 0
OS2_UseTypoMetrics: 1
CreationTime: 1245314919
ModificationTime: 1245315716
PfmFamily: 33
TTFWeight: 700
TTFWidth: 5
LineGap: 200
VLineGap: 90
OS2TypoAscent: 0
OS2TypoAOffset: 1
OS2TypoDescent: 0
OS2TypoDOffset: 1
OS2TypoLinegap: 200
OS2WinAscent: 928
OS2WinAOffset: 0
OS2WinDescent: 336
OS2WinDOffset: 0
HheadAscent: 928
HheadAOffset: 0
HheadDescent: -336
HheadDOffset: 0
Lookup: 1 0 0 "Case substitutions"  {"Case substitutions subtable"  } ['case' ('cyrl' <'dflt' > 'grek' <'dflt' > 'latn' <'dflt' > ) ]
Lookup: 1 0 0 "Greek small to smallcaps"  {"Greek small to smallcaps subtable"  } ['smcp' ('grek' <'dflt' > ) ]
Lookup: 1 0 0 "Greek caps to smallcaps"  {"Greek caps to smallcaps subtable"  } ['c2sc' ('grek' <'dflt' > ) ]
Lookup: 3 0 0 "Greek alternatives"  {"Greek alternatives subtable"  } ['salt' ('grek' <'dflt' > ) ]
Lookup: 1 0 0 "Greek substitutions"  {"Greek substitutions subtable"  } ['locl' ('grek' <'dflt' > ) ]
Lookup: 4 0 1 "Latin Dutch ligatures"  {"Latin Dutch ligatures subtable"  } ['liga' ('latn' <'NLD ' > ) ]
Lookup: 4 0 1 "Latin ligatures excepting Turkic"  {"Latin ligatures excepting Turkic subtable"  } ['liga' ('latn' <'dflt' 'NLD ' 'VIT ' > ) ]
Lookup: 4 0 1 "Latin ligatures"  {"Latin ligatures subtable"  } ['liga' ('latn' <'dflt' 'NLD ' 'VIT ' 'TRK ' 'AZE ' > ) ]
Lookup: 4 0 1 "Cyrillic ligatures"  {"Cyrillic ligatures subtable"  } ['liga' ('cyrl' <'dflt' 'MKD ' 'SRB ' > ) ]

StartChar: .notdef
Encoding: 0 0 0
Width: 760
Flags: HW
HStem: 10 60<105 655> 705 60<105 655>
VStem: 10 60<112 663> 690 60<112 663>
DStem2: 105 705 70 663 0.702289 -0.711892<5.31938 389.612 448.699 832.991> 70 112 105 70 0.702289 0.711892<0 384.292 443.379 827.672>
LayerCount: 2
Fore
SplineSet
10 10 m 1
 10 765 l 1
 750 765 l 1
 750 10 l 1
 10 10 l 1
70 112 m 1
 346 388 l 1
 70 663 l 1
 70 112 l 1
105 70 m 1
 655 70 l 1
 380 346 l 1
 105 70 l 1
105 705 m 1
 380 429 l 1
 655 705 l 1
 105 705 l 1
414 388 m 1
 690 112 l 1
 690 663 l 1
 414 388 l 1
EndSplineSet
EndChar

StartChar: uni262D
Encoding: 9773 9773 1
Width: 700
Flags: HW
TeX: 117 0
HStem: -1 21G<56 93 593.5 601> 39 76<321.786 462.78> 102 51<140.549 177.987>
VStem: 129 54<101.776 137.734> 556 82<197.341 366.709>
DStem2: 123 357 178 301 0.707107 0.707107<0 86.9741 130.108 182.434>
LayerCount: 2
Fore
SplineSet
40 18 m 0
 40 64 129 102 129 128 c 0
 129 148 134 153 148 153 c 0xb8
 162 153 164 157 182 180 c 1
 229 156 307 115 390 115 c 0
 438 115 463 128 463 129 c 0
 463 135 406 186 240 363 c 1
 178 301 l 1
 123 357 l 1
 252 486 l 1
 347 470 l 1
 271 393 l 1
 484 190 l 1
 513 165 l 1
 519 165 556 218 556 295 c 0
 556 473 346 588 346 593 c 1
 394 593 638 478 638 267 c 0
 638 167 592 118 580 100 c 1
 636 44 637 42 637 38 c 0xd8
 637 17 605 -1 597 -1 c 2
 596 -1 l 2
 591 -1 590 1 529 62 c 1
 500 51 474 39 428 39 c 0xd8
 297 39 201 138 188 138 c 0
 183 138 182 134 182 130 c 0
 182 126 183 123 183 118 c 0
 183 108 178 102 168 102 c 0
 131 102 122 0 64 -0 c 0
 48 0 40 7 40 18 c 0
EndSplineSet
EndChar

StartChar: florin
Encoding: 402 402 2
Width: 660
Flags: HW
TeX: 102 0
HStem: -206 85<43.5438 171.387> 385 73<242.814 286 434 520.302> 662 72<488.065 599.716>
DStem2: 190 -64 332 -35 0.209785 0.977748<-51.3039 459.148 561.572 741.608>
LayerCount: 2
Fore
SplineSet
10 -158 m 1
 12 -150 27 -101 44 -100 c 0
 57 -100 70 -121 114 -121 c 0
 145 -121 181 -108 190 -64 c 2
 286 385 l 1
 247 385 240 407 240 422 c 0
 240 436 247 458 286 458 c 2
 302 458 l 1
 327 584 334 625 380 672 c 0
 427 720 500 734 558 734 c 1
 609 730 645 734 650 707 c 0
 650 702 649 698 638 649 c 0
 636 639 636 623 620 623 c 1
 614 625 l 1
 603 644 572 662 540 662 c 0
 517 662 494 652 476 627 c 1
 463 607 459 576 434 458 c 1
 481 458 l 2
 505 458 520 451 524 422 c 1
 524 392 500 385 472 385 c 2
 422 385 l 1
 332 -35 l 2
 317 -101 283 -206 146 -206 c 0
 88 -206 11 -180 10 -158 c 1
EndSplineSet
EndChar

StartChar: longs
Encoding: 383 383 3
Width: 336
Flags: HW
TeX: 108 0
HStem: 0 21G<119.5 195> 660 73<228.611 345.38>
VStem: 86 132<3.49692 647.528>
AnchorPoint: "above" 286 722 basechar 0
AnchorPoint: "below" 152 0 basechar 0
LayerCount: 2
Fore
SplineSet
86 46 m 2
 86 553 l 2
 86 700 183 733 286 733 c 0
 344 733 372 721 372 720 c 0
 377 718 379 714 381 709 c 1
 381 653 l 1
 380 632 379 623 369 623 c 0
 352 623 341 660 283 660 c 0
 225 660 218 630 218 591 c 2
 218 582 l 1
 219 52 l 2
 219 25 218 0 172 0 c 2
 137 0 l 2
 102 0 86 7 86 46 c 2
EndSplineSet
EndChar

StartChar: uni03F5
Encoding: 1013 1013 4
Width: 473
Flags: HW
TeX: 117 0
HStem: -11 116<266.55 420> 191 91<190 359> 353 116<262.99 420>
VStem: 54 305<191.525 276.138>
LayerCount: 2
Fore
SplineSet
54 231 m 0
 54 374 203 469 420 469 c 1
 420 353 l 1
 261 353 216 318 190 282 c 1
 359 282 l 1
 359 191 l 1
 185 191 l 1
 203 158 248 106 420 105 c 1
 420 -11 l 1
 211 -11 54 86 54 231 c 0
EndSplineSet
EndChar

StartChar: circumflex.cap
Encoding: 65536 -1 5
Width: 550
Flags: HW
HStem: 735 179<359.316 387.904>
AnchorPoint: "above" 275 717 mark 0
LayerCount: 2
Fore
SplineSet
103 748 m 0
 103 755 109 762 113 768 c 0
 126 786 209 895 213 899 c 0
 220 908 224 913 241 914 c 1
 358 914 l 2
 381 914 381 908 396 873 c 0
 445 759 447 754 447 749 c 0
 447 738 436 735 424 735 c 2
 402 735 l 2
 375 735 383 736 275 834 c 1
 167 735 171 735 147 735 c 2
 127 735 l 2
 115 735 103 737 103 748 c 0
EndSplineSet
EndChar

StartChar: dieresis.cap
Encoding: 65537 -1 6
Width: 550
Flags: HW
HStem: 760 142<101.312 234.538 315.257 448.531>
VStem: 97 142<764.53 898.194> 311 142<764.53 897.779>
AnchorPoint: "above" 275 717 mark 0
LayerCount: 2
Fore
SplineSet
97 808 m 2
 97 854 l 2
 97 893 115 903 146 903 c 0
 151 903 156 902 160 902 c 2
 187 902 l 2
 214 902 239 900 239 854 c 2
 239 809 l 2
 239 779 230 760 191 760 c 2
 148 760 l 2
 122 760 97 763 97 808 c 2
311 808 m 2
 311 854 l 2
 311 893 327 903 360 903 c 0
 364 903 369 902 374 902 c 2
 401 902 l 2
 427 902 453 900 453 855 c 2
 453 808 l 2
 453 780 445 760 405 760 c 2
 362 760 l 2
 335 760 311 763 311 808 c 2
EndSplineSet
EndChar

StartChar: dotaccent.cap
Encoding: 65538 -1 7
Width: 550
Flags: HW
HStem: 766 143<208.531 341.469>
VStem: 204 142<770.182 904.197>
AnchorPoint: "above" 275 717 mark 0
LayerCount: 2
Fore
SplineSet
204 815 m 2
 204 859 l 2
 204 899 220 909 253 909 c 0
 261 909 257 908 295 908 c 0
 323 908 346 905 346 859 c 2
 346 816 l 2
 346 784 337 766 299 766 c 2
 255 766 l 2
 227 766 204 770 204 815 c 2
EndSplineSet
EndChar

StartChar: caron.cap
Encoding: 65539 -1 8
Width: 550
Flags: HW
HStem: 735 168
AnchorPoint: "above" 275 717 mark 0
LayerCount: 2
Fore
SplineSet
98 890 m 0
 98 901 111 903 125 903 c 0
 129 903 134 902 139 902 c 2
 142 902 l 2
 173 902 172 890 275 810 c 1
 285 819 354 874 374 890 c 0
 387 900 393 902 410 902 c 2
 419 902 l 2
 422 902 425 903 428 903 c 0
 438 903 452 901 452 889 c 0
 452 880 450 880 339 749 c 0
 327 735 321 735 309 735 c 2
 239 735 l 2
 217 735 219 738 108 870 c 0
 106 873 98 882 98 890 c 0
EndSplineSet
EndChar

StartChar: ring.cap
Encoding: 65540 -1 9
Width: 550
Flags: HW
HStem: 662 73<218.861 331.526> 830 72<217.649 330.123>
VStem: 152 61<741.165 824.448> 336 62<740.483 823.795>
AnchorPoint: "above" 275 717 mark 0
LayerCount: 2
Fore
SplineSet
152 783 m 0
 152 843 176 902 276 902 c 0
 344 902 398 872 398 782 c 0
 398 722 372 662 274 662 c 0
 204 662 152 693 152 783 c 0
213 783 m 0
 213 745 230 735 274 735 c 0
 314 735 336 741 336 782 c 0
 336 820 318 830 276 830 c 0
 236 830 213 824 213 783 c 0
EndSplineSet
EndChar

StartChar: breve.cap
Encoding: 65541 -1 10
Width: 550
Flags: HW
HStem: 735 94<169.407 381.08>
VStem: 86 70<845.441 898.45>
AnchorPoint: "above" 274 717 mark 0
LayerCount: 2
Fore
SplineSet
86 863 m 0
 86 894 112 902 122 902 c 0
 136 902 150 892 156 879 c 0
 163 861 150 829 276 829 c 0
 404 829 386 865 396 883 c 0
 402 895 416 902 428 902 c 0
 438 902 463 894 463 862 c 0
 463 811 416 735 274 735 c 0
 166 735 86 786 86 863 c 0
EndSplineSet
EndChar

StartChar: uni026A
Encoding: 618 618 11
Width: 280
Flags: HW
HStem: 0 73<44.4265 73 207 235.574> 385 73<44.4265 73 207 235.574>
VStem: 42 196<3.09375 71.7245 386.276 454.906>
AnchorPoint: "affricate-below" 280 -195 basechar 0
AnchorPoint: "affricate-above" 280 722 basechar 0
AnchorPoint: "below" 140 0 basechar 0
AnchorPoint: "above" 140 475 basechar 0
LayerCount: 2
Fore
SplineSet
42 36 m 0
 42 50 48 73 73 73 c 1
 73 385 l 1
 48 385 42 408 42 422 c 0
 42 440 49 458 85 458 c 2
 195 458 l 2
 231 458 238 440 238 422 c 0
 238 408 232 385 207 385 c 1
 207 73 l 1
 232 73 238 50 238 36 c 0
 238 18 231 0 195 0 c 2
 85 0 l 2
 49 0 42 18 42 36 c 0
EndSplineSet
EndChar

StartChar: grave
Encoding: 96 96 12
Width: 550
Flags: HW
TeX: 666 0
HStem: 528 151
VStem: 108 230
LayerCount: 2
Fore
SplineSet
108 664 m 2
 108 669 l 1
 112 679 118 679 128 679 c 2
 221 679 l 2
 242 679 234 683 333 555 c 1
 338 545 l 1
 339 541 l 1
 338 532 334 528 320 528 c 0
 311 528 302 528 293 528 c 0
 272 528 269 534 257 543 c 0
 107 660 108 656 108 664 c 2
EndSplineSet
EndChar

StartChar: acute
Encoding: 180 180 13
Width: 550
Flags: HW
TeX: 666 0
HStem: 528 151
VStem: 209 228
LayerCount: 2
Fore
SplineSet
209 540 m 0
 209 549 233 577 302 666 c 0
 309 674 312 679 328 679 c 2
 415 679 l 2
 433 679 433 676 437 674 c 1
 440 669 l 1
 440 665 l 1
 439 657 435 655 402 629 c 0
 272 528 277 528 257 528 c 2
 231 528 l 1
 222 529 209 527 209 540 c 0
EndSplineSet
EndChar

StartChar: circumflex
Encoding: 710 710 14
Width: 550
Flags: HW
TeX: 666 0
HStem: 527 151
LayerCount: 2
Fore
SplineSet
102 540 m 0
 102 548 101 547 204 657 c 0
 215 669 221 678 239 678 c 2
 307 678 l 2
 326 678 328 673 346 654 c 0
 442 550 446 548 446 540 c 0
 446 527 430 527 419 527 c 2
 397 527 l 2
 378 527 382 528 274 608 c 1
 159 523 169 527 151 527 c 2
 129 527 l 2
 120 527 102 527 102 540 c 0
EndSplineSet
EndChar

StartChar: tilde
Encoding: 732 732 15
Width: 550
Flags: HW
TeX: 666 0
HStem: 541 74<296.922 378.312> 593 73<168.752 251.5>
VStem: 91 76<541.057 590.568> 381 75<619.182 665.94>
LayerCount: 2
Fore
SplineSet
91 560 m 0
 91 604 131 666 203 666 c 0x70
 277 666 310 615 346 615 c 2
 347 615 l 2xb0
 362 615 376 626 381 640 c 0
 385 651 381 665 404 666 c 1x70
 436 666 l 2x70
 449 666 456 663 456 647 c 0
 456 610 423 541 345 541 c 0xb0
 272 541 238 593 202 593 c 2
 201 593 l 2x70
 186 593 172 582 167 568 c 0
 162 556 167 542 144 541 c 1
 114 541 l 2xb0
 102 541 91 542 91 560 c 0
EndSplineSet
EndChar

StartChar: dieresis
Encoding: 168 168 16
Width: 550
Flags: HW
TeX: 694 0
HStem: 552 142<101.094 234.45 314.282 448.047>
VStem: 97 142<556.356 690.315> 310 142<555.733 690.045>
LayerCount: 2
Fore
SplineSet
97 597 m 2
 97 650 l 2
 97 694 128 694 144 694 c 2
 193 694 l 2
 221 694 239 685 239 647 c 2
 239 598 l 2
 239 551 205 553 194 552 c 1
 143 552 l 2
 121 552 97 558 97 597 c 2
310 599 m 2
 310 646 l 2
 310 692 335 693 356 694 c 1
 406 694 l 2
 429 694 452 688 452 649 c 0
 452 631 452 613 452 595 c 0
 452 550 417 553 408 552 c 1
 356 552 l 2
 332 552 310 558 310 599 c 2
EndSplineSet
EndChar

StartChar: ring
Encoding: 730 730 18
Width: 733
Flags: HW
TeX: 666 0
HStem: 492 35<314.183 415.105> 631 35<313.213 416.463>
VStem: 243 62<533.045 624.636> 426 62<533.614 625.132>
LayerCount: 2
Fore
SplineSet
243 579 m 0
 243 614 259 662 351 666 c 1
 372 666 l 1
 472 665 488 614 488 579 c 0
 488 544 472 496 381 492 c 1
 359 492 l 1
 258 494 243 544 243 579 c 0
305 580 m 0
 305 537 325 527 363 527 c 1
 391 528 426 526 426 579 c 0
 426 621 407 631 368 631 c 1
 340 630 305 633 305 580 c 0
EndSplineSet
EndChar

StartChar: caron
Encoding: 711 711 19
Width: 550
Flags: HW
TeX: 666 0
HStem: 617 34<149.211 402.838>
LayerCount: 2
Fore
SplineSet
103 654 m 1
 105 665 112 666 123 666 c 2
 149 666 l 2
 174 666 261 651 274 651 c 0
 296 651 353 666 418 666 c 2
 426 666 l 2
 442 666 443 661 445 658 c 1
 446 654 l 1
 445 649 l 1
 439 641 437 640 322 618 c 1
 302 617 l 1
 248 617 l 1
 228 618 l 1
 108 643 106 639 103 654 c 1
EndSplineSet
EndChar

StartChar: breve
Encoding: 728 728 20
Width: 550
Flags: HW
TeX: 666 0
HStem: 553 94<122.406 425.719>
LayerCount: 2
Fore
SplineSet
85 628 m 0
 85 648 99 666 121 666 c 0
 152 666 118 647 241 647 c 0
 255 647 269 647 283 647 c 0
 405 647 392 653 410 662 c 0
 415 665 420 666 426 666 c 0
 444 666 462 651 462 628 c 0
 462 556 351 553 298 553 c 2
 264 553 l 2
 201 553 85 553 85 628 c 0
EndSplineSet
EndChar

StartChar: macron
Encoding: 175 175 21
Width: 550
Flags: HW
TeX: 694 0
HStem: 631 86<76.1014 472.865>
LayerCount: 2
Fore
SplineSet
76 675 m 2
 76 690 l 2
 76 706 78 717 98 717 c 2
 451 717 l 2
 474 717 473 707 473 680 c 2
 473 654 l 2
 473 637 468 632 454 631 c 1
 98 631 l 2
 74 631 76 636 76 675 c 2
EndSplineSet
EndChar

StartChar: dotaccent
Encoding: 729 729 22
Width: 305
Flags: HW
TeX: 720 0
HStem: 580 142<100.437 233.662>
VStem: 96 142<584.061 718.386>
LayerCount: 2
Fore
SplineSet
96 627 m 2
 96 674 l 2
 96 723 124 721 141 722 c 1
 193 722 l 2
 221 722 238 713 238 675 c 2
 238 626 l 2
 238 579 205 581 194 580 c 1
 142 580 l 2
 119 580 96 586 96 627 c 2
EndSplineSet
EndChar

StartChar: cedilla
Encoding: 184 184 23
Width: 489
Flags: HW
TeX: 0 170
HStem: -193 170<200.002 222.998>
VStem: 119 159
LayerCount: 2
Fore
SplineSet
117 -184 m 1
 115 -172 131 -152 200 -43 c 0
 206 -34 211 -23 226 -23 c 0
 235 -23 244 -23 253 -23 c 0
 266 -23 278 -25 278 -37 c 0
 278 -42 279 -40 223 -175 c 0
 217 -190 213 -192 198 -193 c 1
 136 -193 l 2
 129 -193 125 -192 119 -188 c 1
 117 -184 l 1
EndSplineSet
EndChar

StartChar: ogonek
Encoding: 731 731 24
Width: 305
Flags: HW
TeX: 0 194
HStem: -197 100<48.5 163.942>
VStem: -41 260<-92 36>
LayerCount: 2
Fore
SplineSet
-41 -92 m 0
 -41 -56 -19 -26 -1 -11 c 0
 43 27 111 29 148 54 c 0
 159 61 168 72 183 72 c 0
 198 72 219 60 219 36 c 0
 219 8 181 -13 136 -44 c 0
 104 -67 101 -77 97 -87 c 1
 106 -94 111 -97 123 -97 c 0
 171 -97 177 -37 214 -37 c 0
 234 -37 250 -54 250 -74 c 0
 250 -87 242 -104 205 -143 c 0
 176 -174 134 -197 84 -197 c 0
 13 -197 -41 -148 -41 -92 c 0
EndSplineSet
EndChar

StartChar: guilsinglleft
Encoding: 8249 8249 26
Width: 489
Flags: HW
TeX: 499 0
HStem: -0 21G<308 353.5>
VStem: 122 139<213.908 284.818>
LayerCount: 2
Fore
SplineSet
122 250 m 0
 122 257 128 264 132 270 c 2
 285 481 l 2
 293 491 296 500 314 500 c 0
 323 500 332 500 341 500 c 0
 351 499 364 500 364 486 c 0
 364 470 261 265 261 250 c 0
 261 237 361 31 364 14 c 1
 363 8 363 0 344 -0 c 0
 335 0 326 0 317 -0 c 0
 299 0 297 2 285 19 c 2
 129 234 l 2
 127 237 122 244 122 250 c 0
EndSplineSet
EndChar

StartChar: guilsinglright
Encoding: 8250 8250 27
Width: 489
Flags: HW
TeX: 499 0
HStem: 0 21G<140.5 178>
VStem: 123 241
LayerCount: 2
Fore
SplineSet
123 14 m 0
 123 28 213 211 225 247 c 1
 228 264 126 463 123 486 c 1
 124 490 124 500 143 500 c 0
 152 500 161 500 170 500 c 0
 185 500 189 498 200 483 c 2
 356 267 l 2
 359 263 364 257 364 250 c 0
 364 243 359 236 355 231 c 2
 200 17 l 2
 187 0 184 1 172 0 c 1
 144 0 l 1
 137 1 123 0 123 14 c 0
EndSplineSet
EndChar

StartChar: quotedblleft
Encoding: 8220 8220 28
Width: 375
Flags: HW
TeX: 720 0
HStem: 485 237<59.0033 98 110 124 299.003 339 351 365>
VStem: 1 131<485.027 615.187> 241 132<485.027 615.924>
LayerCount: 2
Fore
SplineSet
241 508 m 2
 241 593 l 2
 241 611 243 610 299 700 c 0
 310 718 311 722 330 722 c 0
 337 722 344 722 351 722 c 0
 365 722 370 719 370 709 c 0
 370 695 358 668 339 617 c 1
 341 617 341 616 343 616 c 0
 346 616 349 617 351 617 c 0
 363 617 373 615 373 595 c 2
 373 519 l 2
 373 494 371 485 351 485 c 2
 265 485 l 2
 249 485 241 486 241 508 c 2
EndSplineSet
Refer: 107 8216 S 1 0 0 1 -85 0 2
EndChar

StartChar: endash
Encoding: 8211 8211 33
Width: 550
Flags: HW
TeX: 458 0
ItalicCorrection: 30
HStem: 247 73<3.63867 545.67>
LayerCount: 2
Fore
SplineSet
0 283 m 0
 0 292 5 320 44 320 c 2
 504 320 l 2
 544 320 549 294 549 283 c 0
 549 273 545 247 504 247 c 2
 44 247 l 1
 5 248 0 273 0 283 c 0
EndSplineSet
EndChar

StartChar: emdash
Encoding: 8212 8212 34
Width: 1100
Flags: HW
TeX: 458 0
ItalicCorrection: 30
HStem: 247 73<3.31598 1095.22>
LayerCount: 2
Fore
SplineSet
0 283 m 0
 0 322 42 320 46 320 c 2
 1052 320 l 2
 1092 320 1098 298 1098 283 c 0
 1098 269 1091 247 1053 247 c 2
 44 247 l 2
 5 247 0 273 0 283 c 0
EndSplineSet
Substitution2: "Cyrillic substitutions subtable" emdash.cyr
AlternateSubs2: "Cyrillic alternatives subtable" emdash.cyr
EndChar

StartChar: dotlessi
Encoding: 305 305 36
Width: 255
Flags: HW
TeX: 458 0
HStem: -0 21G<81.5 172.5> 438 20G<81.5 168.5>
VStem: 60 134<3.67405 453.828>
AnchorPoint: "below" 127 0 basechar 0
AnchorPoint: "above" 127 475 basechar 0
LayerCount: 2
Fore
SplineSet
60 50 m 2
 60 413 l 2
 60 425 59 458 104 458 c 2
 145 458 l 2
 192 458 194 434 194 408 c 2
 194 45 l 2
 194 33 195 0 150 -0 c 2
 104 -0 l 2
 59 0 60 33 60 50 c 2
EndSplineSet
EndChar

StartChar: dotlessj
Encoding: 567 567 37
Width: 286
Flags: HW
TeX: 458 194
HStem: -206 85<-36.0008 82.9935> 438 20G<131 202>
VStem: 92 134<-111.79 453.772>
AnchorPoint: "below" 112 -195 basechar 0
AnchorPoint: "above" 159 475 basechar 0
LayerCount: 2
Fore
SplineSet
-69 -158 m 1
 -69 -158 -58 -101 -40 -101 c 0
 -25 -101 -11 -121 33 -121 c 0
 95 -121 91 -76 92 -52 c 1
 92 414 l 2
 92 460 125 457 137 458 c 1
 180 458 l 2
 224 458 226 430 226 412 c 2
 226 -15 l 2
 226 -76 220 -139 172 -177 c 0
 143 -201 104 -206 76 -206 c 0
 29 -206 -69 -184 -69 -158 c 1
EndSplineSet
EndChar

StartChar: ff
Encoding: 64256 64256 38
Width: 642
Flags: HW
TeX: 720 0
ItalicCorrection: 76
HStem: -0 21G<107.5 195.5 416.5 503.5> 385 73<33.7584 86 219 310.67 525 616.67> 660 73<232.236 344.733 538.909 649.156>
VStem: 86 133<4.0761 385 458 647.971> 391 134<3.79688 385 458 648.918>
LayerCount: 2
Fore
SplineSet
391 45 m 2
 391 547 l 2
 391 645 430 733 586 733 c 2
 587 733 l 2
 680 733 687 716 687 703 c 0
 687 683 687 663 687 643 c 0
 687 627 681 625 676 623 c 1
 671 623 l 1
 654 629 641 660 588 660 c 0
 519 660 523 610 522 581 c 1
 522 458 l 1
 576 458 l 2
 609 458 620 437 620 422 c 0
 620 411 615 385 575 385 c 2
 525 385 l 1
 525 48 l 2
 525 34 526 0 481 -0 c 2
 437 -0 l 2
 396 0 391 22 391 45 c 2
EndSplineSet
Refer: 113 102 S 1 0 0 1 0 0 2
Ligature2: "Latin ligatures subtable" f f
EndChar

StartChar: fi
Encoding: 64257 64257 39
Width: 586
Flags: HW
TeX: 720 0
HStem: -0 21G<107.5 195.5 414.5 502.5> 385 73<33.7584 86 219 319.309> 586 136<392.703 521.71> 660 73<223.235 290.542>
VStem: 86 133<4.0761 385 458 657.127> 390 134<4.17206 453.332 590.17 717.963>
LayerCount: 2
Fore
SplineSet
31 422 m 0
 31 433 35 458 76 458 c 2
 86 458 l 1
 86 545 l 2
 86 648 118 733 247 733 c 0
 332 733 323 705 323 699 c 2
 323 643 l 2
 323 632 322 618 311 618 c 0
 294 618 292 660 251 660 c 0xdc
 218 660 216 617 216 588 c 2
 216 458 l 1
 279 458 l 2
 318 458 323 432 323 422 c 0
 323 413 318 385 278 385 c 2
 219 385 l 1
 219 52 l 2
 219 27 219 0 172 -0 c 0
 158 0 144 0 130 -0 c 0
 85 0 86 31 86 46 c 2
 86 385 l 1
 74 385 l 2
 34 385 31 412 31 422 c 0
388 633 m 0
 388 636 389 640 389 643 c 2
 389 670 l 2
 389 698 390 720 434 722 c 1
 477 722 l 2
 497 722 526 722 526 675 c 0
 526 663 526 651 526 639 c 0
 526 612 526 589 481 586 c 1xec
 437 586 l 2
 416 586 388 587 388 633 c 0
390 50 m 2
 390 413 l 2
 390 429 391 458 438 458 c 2
 475 458 l 2
 522 458 524 434 524 408 c 2
 524 45 l 2
 524 33 525 0 480 -0 c 0xcc
 466 0 452 0 438 -0 c 0
 391 0 390 27 390 50 c 2
EndSplineSet
Ligature2: "Latin ligatures excepting Turkic subtable" f i
EndChar

StartChar: fl
Encoding: 64258 64258 40
Width: 586
Flags: HW
TeX: 720 0
HStem: 0 21G<107.5 195.5 426.5 501> 385 73<33.7584 86 219 319.309> 660 73<222.904 291.65> 702 20G<411.5 490.5>
VStem: 86 133<4.0761 385 458 657.127> 390 134<3.68749 717.595>
LayerCount: 2
Fore
SplineSet
31 422 m 0
 31 433 35 458 76 458 c 2
 86 458 l 1
 86 545 l 2
 86 648 118 733 247 733 c 0xec
 318 733 323 713 323 702 c 2xdc
 323 640 l 2
 323 631 318 623 311 623 c 0
 295 623 290 660 251 660 c 0xec
 220 660 216 627 216 592 c 2
 216 458 l 1
 279 458 l 2
 318 458 323 432 323 422 c 0
 323 413 318 385 278 385 c 2
 219 385 l 1
 219 52 l 2
 219 27 219 0 172 -0 c 0
 158 0 144 0 130 -0 c 0
 85 0 86 31 86 46 c 2
 86 385 l 1
 74 385 l 2
 34 385 31 412 31 422 c 0
390 45 m 2
 390 667 l 2
 390 695 387 720 436 722 c 1
 478 722 l 2
 503 722 524 714 524 677 c 2
 524 49 l 2
 524 21 523 2 479 0 c 1xdc
 434 0 l 2
 419 0 390 1 390 45 c 2
EndSplineSet
Ligature2: "Latin ligatures subtable" f l
EndChar

StartChar: ffi
Encoding: 64259 64259 41
Width: 891
Flags: HW
TeX: 720 0
HStem: -0 21G<107.5 195.5 425.5 491.5 719.5 808.5> 385 73<33.7584 86 219 319.309 525 624.625> 586 136<698.303 826.71> 660 73<229.878 316.98 528.907 594.145>
VStem: 86 133<4.0761 385 458 651.885> 391 134<3.79688 385 458 657.757> 696 134<4.17206 453.734 590.17 718.423>
LayerCount: 2
Fore
SplineSet
31 422 m 0
 31 433 35 458 76 458 c 2
 86 458 l 1
 86 545 l 2
 86 645 120 732 261 733 c 1
 262 733 l 2
 344 733 351 714 351 702 c 2
 351 647 l 2
 351 628 347 622 341 622 c 0
 334 622 324 632 321 635 c 0
 313 643 299 660 266 660 c 0
 218 660 216 616 216 589 c 2
 216 458 l 1
 279 458 l 2
 318 458 323 432 323 422 c 0
 323 413 318 385 278 385 c 2
 219 385 l 1
 219 52 l 2
 219 27 219 0 172 -0 c 0
 158 0 144 0 130 -0 c 0
 85 0 86 31 86 46 c 2
 86 385 l 1
 74 385 l 2
 34 385 31 412 31 422 c 0
391 47 m 2
 391 545 l 2
 391 641 418 733 554 733 c 0
 633 733 628 713 628 705 c 2
 628 638 l 1
 627 622 620 620 615 620 c 0
 610 621 609 621 592 646 c 1
 580 654 571 660 557 660 c 0xde
 529 660 522 634 522 590 c 2
 522 458 l 1
 584 458 l 2
 623 458 628 432 628 422 c 0
 628 413 624 385 584 385 c 2
 525 385 l 1
 525 46 l 1
 526 6 503 0 480 -0 c 2
 437 -0 l 2
 414 0 391 5 391 47 c 2
694 633 m 2
 694 670 l 2
 694 698 695 720 739 722 c 1
 782 722 l 2xee
 802 722 831 722 831 675 c 0
 831 663 831 651 831 639 c 0
 831 612 832 589 787 586 c 1
 744 586 l 2
 723 586 694 586 694 633 c 2
696 50 m 2
 696 413 l 2
 696 429 697 458 744 458 c 2
 788 458 l 2
 833 458 830 419 830 408 c 2
 830 45 l 2
 830 33 831 0 786 -0 c 2xce
 743 -0 l 2
 696 0 696 27 696 50 c 2
EndSplineSet
Ligature2: "Latin ligatures excepting Turkic subtable" ff i
Ligature2: "Latin ligatures excepting Turkic subtable" f f i
EndChar

StartChar: ffl
Encoding: 64260 64260 42
Width: 891
Flags: HW
TeX: 720 0
HStem: -0 21G<107 178 410.5 502 732.5 806> 385 73<33.7584 86 219 319.309 525 624.625> 660 73<229.878 316.98 530.02 596.867> 702 20G<716.5 796.5>
VStem: 86 133<9.5546 385 458 651.885> 391 134<4.15886 385 458 658.514> 696 134<4.10477 717.926>
LayerCount: 2
Fore
SplineSet
31 422 m 0
 31 433 35 458 76 458 c 2
 86 458 l 1
 86 545 l 2
 86 645 120 732 261 733 c 1
 262 733 l 2xee
 344 733 351 714 351 702 c 2xde
 351 647 l 2
 351 628 347 622 341 622 c 0
 334 622 324 632 321 635 c 0
 313 643 299 660 266 660 c 0
 218 660 216 616 216 589 c 2
 216 458 l 1
 279 458 l 2
 318 458 323 432 323 422 c 0
 323 413 318 385 278 385 c 2
 219 385 l 1
 219 52 l 2
 219 22 217 21 206 9 c 1
 196 1 184 0 172 -0 c 2
 129 -0 l 2
 85 0 86 32 86 46 c 2
 86 385 l 1
 74 385 l 2
 34 385 31 412 31 422 c 0
391 49 m 2
 391 540 l 2
 391 609 398 733 553 733 c 0
 582 733 616 726 624 717 c 0
 628 712 629 706 629 700 c 2
 629 642 l 2
 629 632 626 624 617 623 c 1
 598 625 594 660 557 660 c 0xee
 526 660 522 627 522 592 c 2
 522 458 l 1
 584 458 l 2
 623 458 628 432 628 422 c 0
 628 413 624 385 584 385 c 2
 525 385 l 1
 525 45 l 2
 525 30 524 0 480 -0 c 2
 433 -0 l 2
 388 0 391 38 391 49 c 2
696 45 m 2
 696 667 l 2
 696 695 692 720 741 722 c 1
 784 722 l 2
 809 722 830 714 830 677 c 2
 830 56 l 2
 830 54 829 51 829 49 c 0
 829 21 828 2 784 -0 c 1xde
 740 -0 l 2
 725 0 696 1 696 45 c 2
EndSplineSet
Ligature2: "Latin ligatures subtable" ff l
Ligature2: "Latin ligatures subtable" f f l
EndChar

StartChar: uni2423
Encoding: 9251 9251 43
Width: 550
Flags: HW
TeX: 458 97
HStem: -122 51<96 451>
VStem: 45 51<-71 274.558> 451 52<-71 274.627>
LayerCount: 2
Fore
SplineSet
45 -85 m 2
 45 242 l 2
 45 270 62 275 71 275 c 0
 98 275 96 250 96 234 c 2
 96 -71 l 1
 451 -71 l 1
 451 241 l 2
 451 254 453 275 477 275 c 0
 485 275 503 271 503 242 c 2
 503 -89 l 2
 503 -122 481 -122 466 -122 c 2
 91 -122 l 2
 87 -122 83 -123 79 -123 c 0
 45 -123 45 -100 45 -85 c 2
EndSplineSet
EndChar

StartChar: exclam
Encoding: 33 33 44
Width: 367
Flags: HW
TeX: 720 0
HStem: -0 131<121.146 244.057> 702 20G<127.5 233.5>
VStem: 117 131<3.85761 126.718 436.077 722> 130 106<199.277 472.923>
LayerCount: 2
Fore
SplineSet
117 46 m 2
 117 84 l 2
 117 104 119 131 164 131 c 2
 207 131 l 2
 240 131 248 109 248 85 c 2
 248 47 l 2
 248 30 249 0 202 -0 c 2
 164 -0 l 2
 141 0 117 4 117 46 c 2
117 694 m 1
 118 713 116 722 139 722 c 2xe0
 226 722 l 2
 241 722 248 718 248 702 c 2xe0
 236 227 l 2
 236 205 233 205 228 199 c 1
 223 196 223 196 215 196 c 2
 154 196 l 2
 142 196 131 197 130 215 c 2xd0
 117 694 l 1
EndSplineSet
EndChar

StartChar: quotedbl
Encoding: 34 34 45
Width: 550
Flags: HW
TeX: 720 0
HStem: 702 20G<130.5 233 315 418.5>
VStem: 114 135<626.867 722>
LayerCount: 2
Fore
SplineSet
299 710 m 1
 303 721 309 722 321 722 c 2
 412 722 l 2
 425 722 434 720 434 705 c 2
 434 695 l 1
 404 403 l 2
 402 385 400 384 397 381 c 1
 393 379 391 378 382 378 c 2
 351 378 l 1
 329 379 329 393 328 408 c 2
 300 696 l 1
 299 710 l 1
EndSplineSet
Refer: 282 39 S 1 0 0 1 30 0 2
EndChar

StartChar: numbersign
Encoding: 35 35 46
Width: 916
Flags: HW
TeX: 720 222
HStem: 99 73<64.2259 259 354 497 593 850.368> 328 73<63.5859 321 417 560 656 850.67> 701 20G<441.5 468 679.5 706>
VStem: 421 75<-216.569 -167.211 657.101 716.891>
DStem2: 187 -163 257 -182 0.263697 0.964606<-24.7633 271.713 367.18 508.957 604.688 901.164> 426 -163 496 -182 0.263697 0.964606<-25.0268 271.449 367.18 508.957 604.688 900.9>
LayerCount: 2
Fore
SplineSet
60 365 m 0
 60 385 77 396 83 398 c 0
 91 401 100 401 109 401 c 2
 342 401 l 1
 418 682 l 2
 420 688 426 721 457 721 c 0
 479 721 492 704 493 688 c 0
 493 679 490 671 488 663 c 2
 417 401 l 1
 580 401 l 1
 657 682 l 2
 659 688 664 721 695 721 c 0
 717 721 730 704 731 688 c 0
 731 679 729 671 727 663 c 2
 656 401 l 1
 801 401 l 2
 808 401 816 401 823 400 c 0
 838 397 854 385 854 365 c 0
 854 354 849 328 809 328 c 2
 635 328 l 1
 593 172 l 1
 806 172 l 2
 814 172 823 172 831 169 c 0
 845 164 854 149 854 135 c 0
 854 102 821 99 809 99 c 2
 572 99 l 1
 496 -182 l 2
 495 -187 488 -221 457 -221 c 0
 436 -221 422 -204 421 -188 c 0
 421 -179 424 -171 426 -163 c 2
 497 99 l 1
 334 99 l 1
 257 -182 l 2
 256 -187 250 -221 219 -221 c 0
 198 -221 184 -204 183 -188 c 0
 183 -179 185 -171 187 -163 c 2
 259 99 l 1
 113 99 l 2
 106 99 98 99 91 100 c 0
 76 103 61 115 61 135 c 0
 61 145 65 172 105 172 c 2
 279 172 l 1
 321 328 l 1
 108 328 l 2
 100 328 91 328 83 331 c 0
 69 336 60 351 60 365 c 0
354 172 m 1
 518 172 l 1
 560 328 l 1
 397 328 l 1
 354 172 l 1
EndSplineSet
EndChar

StartChar: dollar
Encoding: 36 36 47
Width: 550
Flags: HW
TeX: 746 27
VStem: 60 116<486.394 607.605> 238 72<94 292 458 629> 372 116<120.871 259.347>
CounterMasks: 1 e0
LayerCount: 2
Fore
SplineSet
49 77 m 0
 49 84 51 91 61 146 c 0
 62 152 64 170 75 170 c 0
 94 170 128 109 238 92 c 1
 238 311 l 1
 113 337 60 435 60 524 c 0
 60 637 115 723 243 732 c 1
 245 735 255 749 274 749 c 0
 293 749 303 735 305 732 c 1
 376 726 405 710 450 682 c 0
 462 674 468 672 468 660 c 0
 468 649 464 631 457 593 c 0
 454 577 450 571 444 571 c 0
 424 571 402 616 310 631 c 1
 310 440 l 1
 418 417 488 325 488 211 c 0
 488 79 428 2 306 -10 c 1
 304 -13 293 -27 274 -27 c 0
 255 -27 245 -13 243 -10 c 1
 168 -4 49 45 49 77 c 0
176 545 m 0
 176 486 221 467 238 458 c 1
 238 629 l 1
 237 629 l 1
 224 625 176 614 176 545 c 0
310 94 m 1
 326 99 372 113 372 191 c 0
 372 219 365 266 311 292 c 1
 310 261 l 1
 310 94 l 1
EndSplineSet
EndChar

StartChar: percent
Encoding: 37 37 48
Width: 1029
Flags: HW
TeX: 746 27
HStem: -28 73<742.632 828.652> 288 73<741.062 828.94> 361 73<197.632 283.652> 677 73<196.062 283.971>
VStem: 60 120<450.033 660.596> 307 114<458.418 653.039> 605 120<61.0331 271.596> 852 114<69.4183 264.25>
DStem2: 216 49 292 9 0.617564 0.78652<-36.2374 895.788>
LayerCount: 2
Fore
SplineSet
60 555 m 0
 60 711 151 750 242 750 c 0
 331 750 421 711 421 556 c 0
 421 400 332 361 241 361 c 0
 152 361 60 400 60 555 c 0
180 541 m 1
 181 494 181 434 242 434 c 0
 264 434 286 447 298 481 c 0
 306 505 307 531 307 556 c 0
 307 583 308 677 241 677 c 0
 178 677 181 609 180 564 c 1
 180 541 l 1
201 14 m 0
 201 29 209 40 216 49 c 2
 746 724 l 2
 755 736 768 749 787 749 c 0
 817 749 828 723 828 708 c 0
 828 695 823 687 815 676 c 2
 292 9 l 2
 267 -22 264 -25 241 -27 c 1
 219 -26 201 -8 201 14 c 0
605 166 m 0
 605 322 696 361 787 361 c 0
 876 361 965 323 966 167 c 0
 966 11 877 -28 786 -28 c 0
 697 -28 605 11 605 166 c 0
725 152 m 1
 726 105 726 45 787 45 c 0
 809 45 831 58 843 92 c 0
 851 116 852 142 852 167 c 0
 852 194 853 288 786 288 c 0
 723 288 726 220 725 175 c 1
 725 152 l 1
EndSplineSet
EndChar

StartChar: ampersand
Encoding: 38 38 49
Width: 830
Flags: HW
TeX: 720 0
HStem: -22 100<206.259 361.549 560.256 758.971> -8 108<646.796 767.896> 671 73<297.63 374.793>
VStem: 45 137<103.295 230.392> 156 114<441.725 639.958> 396 114<509.253 652.487> 631 100<369.291 421.466>
DStem2: 140 304 233 282 0.798785 0.601617<-12.3515 61.0514 197.8 315.84>
LayerCount: 2
Fore
SplineSet
45 152 m 0xb6
 45 243 119 289 140 304 c 2
 200 348 l 1
 180 394 156 468 156 547 c 0xae
 156 669 249 744 342 744 c 0
 441 744 510 661 510 577 c 0
 510 492 403 407 330 355 c 1
 375 273 458 185 474 168 c 1
 513 206 580 264 631 425 c 0
 634 434 637 437 645 437 c 0
 655 437 674 431 711 421 c 0
 725 417 731 413 731 404 c 0
 731 395 691 247 577 128 c 2
 553 103 l 1
 586 86 608 78 644 78 c 0
 704 78 742 100 755 100 c 0
 762 100 768 96 768 80 c 2
 768 17 l 2
 768 -4 759 -4 746 -8 c 0x6e
 716 -16 679 -22 642 -22 c 0
 569 -22 506 4 460 35 c 1
 421 16 351 -22 248 -22 c 0
 117 -22 45 67 45 152 c 0xb6
182 180 m 0xb6
 182 143 195 78 249 78 c 0
 280 78 327 85 373 104 c 1
 327 153 278 204 234 282 c 1
 233 282 l 1
 213 267 182 247 182 180 c 0xb6
270 570 m 0
 270 502 288 453 298 423 c 1
 327 444 396 501 396 576 c 0
 396 606 384 671 341 671 c 0x2e
 317 671 270 648 270 570 c 0
EndSplineSet
EndChar

StartChar: parenleft
Encoding: 40 40 51
Width: 428
Flags: HW
TeX: 746 249
VStem: 85 137<66.5912 434.517>
LayerCount: 2
Fore
SplineSet
85 249 m 0
 85 575 257 711 284 736 c 0
 292 743 299 750 313 750 c 2
 343 750 l 2
 350 750 364 750 364 737 c 0
 364 711 222 628 222 249 c 0
 222 -130 364 -207 364 -238 c 0
 364 -243 361 -250 346 -250 c 2
 316 -250 l 2
 296 -250 294 -247 259 -214 c 0
 151 -112 85 53 85 249 c 0
EndSplineSet
EndChar

StartChar: parenright
Encoding: 41 41 52
Width: 428
Flags: HW
TeX: 746 249
VStem: 204 136<65.2827 435.64>
LayerCount: 2
Fore
SplineSet
62 -237 m 0
 62 -210 204 -129 204 252 c 0
 204 540 121 654 75 714 c 0
 63 729 61 730 62 740 c 0
 63 743 66 750 80 750 c 2
 111 750 l 2
 127 750 128 749 165 715 c 0
 214 670 340 529 340 250 c 0
 340 44 270 -115 166 -214 c 0
 125 -252 129 -249 109 -250 c 0
 100 -250 92 -250 83 -250 c 0
 65 -250 62 -242 62 -237 c 0
EndSplineSet
EndChar

StartChar: asterisk
Encoding: 42 42 53
Width: 550
Flags: HW
TeX: 746 0
VStem: 218 112<302.622 451.791 590.208 738.378>
LayerCount: 2
Fore
SplineSet
67 437 m 0
 67 479 95 482 199 521 c 1
 78 561 67 570 67 604 c 0
 67 633 91 665 124 665 c 0
 146 665 156 652 236 586 c 1
 220 677 218 689 218 700 c 0
 218 731 247 749 274 749 c 0
 301 749 330 731 330 700 c 0
 330 689 327 677 311 586 c 1
 381 644 400 665 423 665 c 0
 454 665 480 636 480 604 c 0
 480 563 456 560 349 520 c 1
 470 480 480 471 480 437 c 0
 480 408 456 376 423 376 c 0
 403 376 401 382 311 456 c 1
 323 387 330 357 330 339 c 0
 330 311 302 292 274 292 c 0
 247 292 218 310 218 341 c 0
 218 352 220 365 236 456 c 1
 150 385 146 376 124 376 c 0
 92 376 67 407 67 437 c 0
EndSplineSet
EndChar

StartChar: plus
Encoding: 43 43 54
Width: 855
Flags: HW
TeX: 616 116
HStem: 214 72<63.1311 390 463 789.156>
VStem: 390 73<-112.466 214 286 612.908>
LayerCount: 2
Fore
SplineSet
60 250 m 0
 60 283 93 286 106 286 c 2
 390 286 l 1
 390 576 l 2
 390 605 411 616 426 616 c 0
 460 616 463 584 463 571 c 2
 463 286 l 1
 744 286 l 2
 758 286 792 286 792 250 c 0
 792 236 785 214 745 214 c 2
 463 214 l 1
 463 -75 l 2
 463 -100 447 -116 426 -116 c 0
 393 -116 390 -84 390 -71 c 2
 390 214 l 1
 102 214 l 2
 77 214 60 229 60 250 c 0
EndSplineSet
EndChar

StartChar: comma
Encoding: 44 44 55
Width: 305
Flags: HW
TeX: 130 105
HStem: -105 236<93 108 120 159.997>
VStem: 86 131<0.750732 131>
LayerCount: 2
Fore
SplineSet
86 22 m 2
 86 98 l 2
 86 123 87 131 107 131 c 2
 195 131 l 2
 214 131 217 126 217 109 c 2
 217 23 l 2
 217 5 216 5 160 -84 c 0
 149 -101 147 -105 128 -105 c 2
 108 -105 l 2
 93 -105 88 -100 88 -92 c 0
 88 -83 93 -73 120 0 c 1
 116 0 112 0 108 0 c 0
 96 0 86 2 86 22 c 2
EndSplineSet
EndChar

StartChar: hyphen
Encoding: 45 45 56
Width: 367
Flags: HW
TeX: 458 0
HStem: 193 72<15.0814 300.965>
VStem: 12 292<196.87 261.13>
LayerCount: 2
Fore
SplineSet
12 229 m 0
 12 239 16 265 57 265 c 2
 260 265 l 2
 301 265 304 238 304 229 c 0
 304 220 300 193 260 193 c 2
 56 193 l 2
 16 193 12 220 12 229 c 0
EndSplineSet
EndChar

StartChar: period
Encoding: 46 46 57
Width: 305
Flags: HW
TeX: 130 0
HStem: -0 131<86.3301 216.993>
VStem: 86 131<0.0527382 130.993>
LayerCount: 2
Fore
SplineSet
86 23 m 2
 86 103 l 1
 87 122 86 131 108 131 c 2
 195 131 l 2
 216 131 217 122 217 110 c 2
 217 28 l 2
 217 10 218 1 196 -0 c 1
 109 -0 l 2
 88 0 86 11 86 23 c 2
EndSplineSet
EndChar

StartChar: slash
Encoding: 47 47 58
Width: 550
Flags: HW
TeX: 746 249
DStem2: 70 -181 134 -216 0.358147 0.933665<-32.5752 984.539>
LayerCount: 2
Fore
SplineSet
61 -213 m 0
 61 -201 67 -191 70 -181 c 2
 408 702 l 2
 413 716 421 749 451 749 c 0
 469 749 487 735 487 714 c 0
 487 704 483 694 480 686 c 2
 134 -216 l 2
 129 -229 120 -249 97 -249 c 0
 80 -249 61 -235 61 -213 c 0
EndSplineSet
EndChar

StartChar: zero
Encoding: 48 48 59
Width: 550
Flags: HW
TeX: 694 0
HStem: -22 72<223.354 321.252> 644 73<220.848 324.363>
VStem: 42 137<132.091 554.905> 369 136<132.413 558.847>
LayerCount: 2
Fore
SplineSet
42 324 m 2
 42 358 l 2
 42 431 44 584 117 658 c 0
 158 700 219 717 274 717 c 0
 493 717 505 503 505 367 c 2
 505 361 l 2
 505 350 506 336 506 320 c 0
 506 155 480 -22 273 -22 c 0
 176 -22 127 23 112 40 c 0
 45 114 42 245 42 324 c 2
179 350 m 0
 179 255 181 156 197 113 c 0
 204 93 228 50 274 50 c 0
 320 50 343 93 350 112 c 0
 368 160 369 242 369 348 c 2
 369 355 l 2
 369 494 367 556 348 594 c 0
 341 608 318 644 274 644 c 0
 248 644 228 632 215 617 c 0
 178 577 179 506 179 350 c 0
EndSplineSet
Substitution2: "LGC old numerals subtable" zerooldstyle
EndChar

StartChar: one
Encoding: 49 49 60
Width: 550
Flags: HW
TeX: 694 0
HStem: -0 73<95.375 220 356 468.941> 697 20G<303 334>
VStem: 220 136<73 589>
LayerCount: 2
Fore
SplineSet
77 611 m 0
 77 677 180 618 267 696 c 0
 289 716 291 717 315 717 c 0
 353 717 356 686 356 673 c 2
 356 73 l 1
 429 73 l 2
 469 73 472 45 472 36 c 0
 472 26 468 0 429 -0 c 2
 135 -0 l 2
 96 0 92 27 92 36 c 0
 92 45 96 73 136 73 c 2
 220 73 l 1
 220 589 l 1
 210 587 181 577 122 575 c 0
 119 575 77 573 77 611 c 0
EndSplineSet
Substitution2: "LGC old numerals subtable" oneoldstyle
EndChar

StartChar: two
Encoding: 50 50 61
Width: 550
Flags: HW
TeX: 694 0
HStem: -0 106<183 489.045> 616 101<179.352 304.345>
VStem: 354 139<397.689 565.242>
LayerCount: 2
Fore
SplineSet
46 568 m 0
 46 575 87 717 257 717 c 0
 401 717 493 612 493 486 c 0
 493 370 407 315 265 184 c 1
 183 106 l 1
 217 106 l 1
 425 108 l 1
 448 108 l 2
 487 108 493 86 493 63 c 0
 493 57 493 51 493 45 c 0
 493 6 470 0 448 -0 c 2
 100 -0 l 2
 54 0 55 29 54 44 c 1
 54 60 l 2
 54 80 46 67 199 230 c 0
 270 305 354 383 354 485 c 0
 354 551 318 616 242 616 c 0
 132 616 134 487 112 487 c 0
 101 487 89 507 80 518 c 0
 55 550 46 558 46 568 c 0
EndSplineSet
Substitution2: "LGC old numerals subtable" twooldstyle
EndChar

StartChar: three
Encoding: 51 51 62
Width: 550
Flags: HW
TeX: 694 0
HStem: -23 96<157.927 326.816> 339 76<182.127 292.385> 627 90<182.019 320.492>
VStem: 335 137<461.174 611.919> 361 142<107.92 293.963>
LayerCount: 2
Fore
SplineSet
46 73 m 0
 46 79 48 85 56 132 c 0
 58 142 59 144 64 148 c 1
 69 149 l 1
 90 148 139 73 260 73 c 0
 358 73 361 151 361 201 c 2
 361 208 l 2
 361 298 338 339 249 339 c 2xe8
 207 339 l 2
 189 339 182 340 182 365 c 2
 182 392 l 1
 183 415 195 410 245 415 c 0
 301 420 335 478 335 545 c 0
 335 597 321 627 261 627 c 0
 161 627 127 544 111 544 c 0
 99 544 61 601 61 611 c 0
 61 623 131 717 266 717 c 0
 449 717 472 605 472 544 c 0xf0
 472 443 397 396 365 377 c 1
 393 369 503 341 503 202 c 0
 503 36 395 -23 266 -23 c 0
 203 -23 135 -6 73 40 c 1
 56 54 46 60 46 73 c 0
EndSplineSet
Substitution2: "LGC old numerals subtable" threeoldstyle
EndChar

StartChar: four
Encoding: 52 52 63
Width: 550
Flags: HW
TeX: 694 0
HStem: 0 21G<327 401> 153 95<134 305 427 510.719> 674 20G<294.5 406>
VStem: 310 117<4.09927 153 248 592>
LayerCount: 2
Fore
SplineSet
30 196 m 2
 30 228 l 2
 30 245 30 248 42 270 c 2
 256 664 l 2
 265 680 266 680 275 688 c 1
 285 693 286 694 303 694 c 2
 383 694 l 2
 429 694 427 658 427 648 c 2
 427 248 l 1
 472 248 l 2
 491 248 518 247 518 202 c 1
 518 202 519 153 471 153 c 2
 427 153 l 1
 427 44 l 2
 427 22 421 0 381 0 c 2
 348 0 l 2
 306 0 305 28 305 44 c 2
 305 153 l 1
 79 153 l 2
 61 153 30 153 30 196 c 2
134 248 m 1
 310 248 l 1
 310 592 l 1
 298 556 261 485 134 248 c 1
EndSplineSet
Substitution2: "LGC old numerals subtable" fouroldstyle
EndChar

StartChar: five
Encoding: 53 53 64
Width: 550
Flags: HW
TeX: 694 0
HStem: -22 95<164.638 315.232> 378 73<215.918 328.79> 594 100<210 452.828>
VStem: 82 128<438 594> 352 142<113.098 340.139>
LayerCount: 2
Fore
SplineSet
37 94 m 0
 37 101 41 106 74 158 c 0
 80 167 85 171 89 171 c 0
 97 171 103 158 109 148 c 0
 121 128 163 73 243 73 c 0
 346 73 352 145 352 213 c 2
 352 226 l 2
 352 298 352 378 281 378 c 0
 262 378 218 373 185 324 c 0
 167 298 163 295 133 295 c 0
 103 295 100 299 89 311 c 1
 82 322 82 329 82 347 c 2
 82 642 l 2
 82 662 81 694 126 694 c 2
 413 694 l 2
 456 694 457 663 457 645 c 0
 457 594 433 594 406 594 c 2
 210 594 l 1
 210 438 l 1
 240 448 257 451 286 451 c 0
 387 451 494 405 494 221 c 0
 494 26 368 -22 246 -22 c 0
 109 -22 37 78 37 94 c 0
EndSplineSet
Substitution2: "LGC old numerals subtable" fiveoldstyle
EndChar

StartChar: six
Encoding: 54 54 65
Width: 550
Flags: HW
TeX: 694 0
HStem: -22 95<225.176 337.068> 407 73<230.075 337.315> 627 90<255.923 420.943>
VStem: 45 140<141.292 524.486> 364 139<100.262 372.661>
LayerCount: 2
Fore
SplineSet
45 336 m 0
 45 442 55 564 134 643 c 0
 186 695 262 717 332 717 c 0
 377 717 422 702 430 689 c 0
 433 684 433 678 433 672 c 2
 433 626 l 2
 433 616 432 614 428 609 c 1
 424 606 l 1
 419 605 l 1
 402 608 387 627 337 627 c 0
 235 627 198 557 188 467 c 0
 186 451 185 434 185 418 c 1
 232 478 290 480 312 480 c 0
 381 480 427 458 464 404 c 0
 499 353 503 300 503 244 c 0
 503 157 496 97 441 38 c 0
 414 9 375 -22 277 -22 c 0
 46 -22 45 232 45 336 c 0
185 251 m 0
 185 173 193 73 279 73 c 0
 371 73 363 159 364 233 c 1
 364 264 l 1
 362 334 362 407 282 407 c 0
 204 407 185 315 185 251 c 0
EndSplineSet
Substitution2: "LGC old numerals subtable" sixoldstyle
EndChar

StartChar: seven
Encoding: 55 55 66
Width: 550
Flags: HW
TeX: 694 0
HStem: -11 21G<176 242.5> 587 108<48.7969 358>
VStem: 45 458<591.421 689.844> 143 138<-7.3923 207.125>
LayerCount: 2
Fore
SplineSet
45 632 m 2
 45 651 l 2
 45 689 67 695 90 695 c 2
 166 695 l 1
 387 694 l 1
 458 694 l 2
 503 694 503 662 503 648 c 0xe0
 502 611 506 623 468 574 c 0
 267 312 287 43 281 18 c 0
 274 -12 246 -11 239 -11 c 2xd0
 189 -11 l 2
 163 -11 143 -3 143 32 c 0xd0
 145 224 210 421 358 588 c 1
 312 587 l 1
 158 587 l 1
 101 586 l 1
 89 586 l 2
 54 586 45 606 45 632 c 2
EndSplineSet
Substitution2: "LGC old numerals subtable" sevenoldstyle
EndChar

StartChar: eight
Encoding: 56 56 67
Width: 550
Flags: HW
TeX: 694 0
HStem: -22 95<209.421 338.841> 338 73<209.231 339.584> 627 89<205.694 338.836>
VStem: 45 137<100.3 297.777> 60 128<437.408 607.396> 359 128<437.576 606.391> 366 137<100.625 297.536>
LayerCount: 2
Fore
SplineSet
45 203 m 0xf2
 45 341 143 366 169 375 c 1
 85 400 60 461 60 521 c 0xe8
 60 677 165 716 258 716 c 0
 326 716 487 716 487 523 c 0xec
 487 404 398 382 378 375 c 1
 474 348 503 277 503 204 c 0
 503 89 457 -22 274 -22 c 0
 91 -22 45 89 45 203 c 0xf2
182 189 m 1xf2
 183 122 192 73 273 73 c 0
 366 73 365 136 366 196 c 1
 366 219 l 2
 366 281 357 338 274 338 c 0
 180 338 183 266 182 214 c 1
 182 189 l 1xf2
188 511 m 2xec
 188 457 196 411 273 411 c 0
 356 411 359 462 359 512 c 2
 359 530 l 2
 359 597 343 627 274 627 c 0
 191 627 189 584 188 529 c 1
 188 511 l 2xec
EndSplineSet
Substitution2: "LGC old numerals subtable" eightoldstyle
EndChar

StartChar: nine
Encoding: 57 57 68
Width: 550
Flags: HW
TeX: 694 0
HStem: -22 95<155.849 299.444> 214 73<209.828 318.057> 627 90<211.836 325.95>
VStem: 45 139<320.51 594.672> 363 140<254.466 554.493>
LayerCount: 2
Fore
SplineSet
45 456 m 0
 45 545 55 606 115 663 c 0
 146 693 190 717 276 717 c 0
 322 717 410 705 459 610 c 0
 501 529 503 435 503 348 c 0
 503 234 486 107 400 35 c 0
 352 -5 288 -22 228 -22 c 0
 168 -22 132 -8 90 23 c 0
 83 29 81 33 81 39 c 0
 81 49 91 63 110 96 c 0
 117 107 122 111 127 111 c 0
 144 111 163 73 227 73 c 0
 359 73 360 217 363 276 c 1
 350 261 313 214 238 214 c 0
 164 214 115 240 79 298 c 0
 55 337 45 374 45 456 c 0
184 457 m 2
 184 363 185 339 211 305 c 1
 220 298 233 287 266 287 c 0
 343 287 363 378 363 448 c 0
 363 519 357 627 276 627 c 0
 186 627 184 559 184 476 c 2
 184 457 l 2
EndSplineSet
Substitution2: "LGC old numerals subtable" nineoldstyle
EndChar

StartChar: colon
Encoding: 58 58 69
Width: 305
Flags: HW
TeX: 458 0
HStem: 0 131<86.3301 216.993> 327 131<86.3131 216.993>
VStem: 86 131<0.0527382 130.993 327.053 458>
LayerCount: 2
Fore
SplineSet
86 362 m 2
 86 430 l 1
 87 448 85 458 108 458 c 2
 195 458 l 2
 216 458 217 448 217 436 c 2
 217 355 l 2
 217 337 218 328 196 327 c 1
 111 327 l 2
 85 327 86 332 86 362 c 2
EndSplineSet
Refer: 57 46 S 1 0 0 1 -0 0 3
EndChar

StartChar: semicolon
Encoding: 59 59 70
Width: 305
Flags: HW
TeX: 458 105
HStem: -105 236<93 108 120 159.997> 327 131<86.3131 216.993>
VStem: 86 131<0.750732 131 327.053 458>
LayerCount: 2
Fore
SplineSet
86 362 m 2
 86 430 l 1
 87 448 85 458 108 458 c 2
 195 458 l 2
 216 458 217 448 217 436 c 2
 217 355 l 2
 217 337 218 328 196 327 c 1
 111 327 l 2
 85 327 86 332 86 362 c 2
EndSplineSet
Refer: 55 44 S 1 0 0 1 -0 0 3
EndChar

StartChar: less
Encoding: 60 60 71
Width: 855
Flags: HW
TeX: 606 106
DStem2: 128 291 205 250 0.884314 0.466893<48.9496 673.182> 205 250 129 208 0.884616 -0.466321<0 624.149>
LayerCount: 2
Fore
SplineSet
91 249 m 1
 93 267 96 274 128 291 c 2
 700 593 l 2
 708 597 717 601 726 601 c 0
 747 601 762 583 762 565 c 0
 762 541 739 531 727 524 c 2
 205 250 l 1
 726 -24 l 2
 735 -29 762 -39 762 -65 c 0
 762 -84 745 -101 726 -101 c 0
 716 -101 708 -97 700 -93 c 2
 129 208 l 2
 96 225 94 231 91 249 c 1
EndSplineSet
EndChar

StartChar: equal
Encoding: 61 61 72
Width: 855
Flags: HW
TeX: 406 -93
HStem: 99 73<64.035 788.889> 328 73<64.4277 788.965>
LayerCount: 2
Fore
SplineSet
61 135 m 0
 61 146 65 172 105 172 c 2
 748 172 l 2
 789 172 792 144 792 135 c 0
 792 126 788 99 748 99 c 2
 105 99 l 2
 64 99 61 125 61 135 c 0
61 364 m 0
 61 373 65 401 105 401 c 2
 748 401 l 2
 788 401 792 374 792 365 c 0
 792 326 749 328 746 328 c 2
 106 328 l 2
 65 328 61 354 61 364 c 0
EndSplineSet
EndChar

StartChar: greater
Encoding: 62 62 73
Width: 855
Flags: HW
TeX: 606 106
DStem2: 153 593 127 524 0.884616 -0.466321<-41.2089 597.833> 648 250 153 -93 0.88465 0.466255<-624.184 0>
LayerCount: 2
Fore
SplineSet
91 565 m 0
 91 584 107 601 127 601 c 2
 128 601 l 2
 137 601 145 597 153 593 c 2
 724 292 l 2
 757 275 759 269 762 251 c 1
 760 233 758 226 726 209 c 2
 153 -93 l 2
 145 -97 136 -101 127 -101 c 0
 106 -101 92 -83 92 -65 c 0
 92 -41 115 -31 127 -24 c 2
 648 250 l 1
 127 524 l 2
 118 529 91 539 91 565 c 0
EndSplineSet
EndChar

StartChar: question
Encoding: 63 63 74
Width: 519
Flags: HW
TeX: 720 0
HStem: -0 131<181.378 305.064> 660 73<163.145 309.429>
VStem: 178 131<4.39024 126.988> 191 105<196.387 350.745> 321 136<505.912 647.069>
LayerCount: 2
Fore
SplineSet
61 668 m 1
 63 673 l 1
 78 692 149 733 247 733 c 0
 362 733 457 702 457 576 c 0
 457 509 427 475 416 464 c 1
 383 437 296 378 296 250 c 2
 296 225 l 2xd8
 296 202 292 196 274 196 c 2
 228 196 l 1
 193 197 191 194 191 227 c 2
 191 247 l 2
 191 294 198 384 288 492 c 0
 309 517 321 525 321 578 c 0
 321 636 311 660 246 660 c 0
 146 660 115 586 98 586 c 0
 82 586 61 665 61 668 c 1
177 46 m 0
 177 49 178 53 178 56 c 2
 178 84 l 2
 178 104 179 131 224 131 c 2
 268 131 l 2
 301 131 309 109 309 85 c 2
 309 47 l 2
 309 30 309 0 262 -0 c 2xe8
 225 -0 l 2
 202 0 177 4 177 46 c 0
EndSplineSet
EndChar

StartChar: at
Encoding: 64 64 75
Width: 733
Flags: HW
TeX: 720 0
HStem: -11 73<313.674 542.598> 123 73<402.678 509.821> 526 73<404.781 512.972> 661 72<312.483 488.968>
VStem: 60 120<212.958 509.47> 244 120<242.812 481.489> 551 120<244.934 479.227>
LayerCount: 2
Fore
SplineSet
60 356 m 0
 60 438 68 570 170 656 c 0
 244 719 348 733 423 733 c 0
 522 733 578 699 609 660 c 0
 667 586 671 461 671 394 c 2
 671 373 l 2
 671 285 660 123 457 123 c 0
 351 123 244 170 244 360 c 0
 244 533 330 599 458 599 c 0
 481 599 503 596 525 591 c 1
 508 632 475 661 421 661 c 0
 324 661 180 622 180 365 c 0
 180 349 180 334 181 318 c 0
 186 205 231 62 426 62 c 0
 526 62 564 99 598 104 c 1
 651 104 l 2
 662 104 669 100 669 93 c 0
 669 88 666 82 656 73 c 0
 581 9 493 -11 422 -11 c 0
 246 -11 60 62 60 356 c 0
364 352 m 2
 364 309 368 196 457 196 c 0
 555 196 551 334 551 370 c 0
 550 413 547 526 458 526 c 0
 368 526 364 412 364 363 c 2
 364 352 l 2
EndSplineSet
EndChar

StartChar: A
Encoding: 65 65 76
Width: 733
Flags: HW
TeX: 694 0
HStem: 0 21G<63.5 145.5 572.5 654> 151 86<246 471> 674 20G<300 436.5>
DStem2: 46 46 246 237 0.332164 0.943222<-9.00953 155.506 246.588 597.272> 479 634 359 569 0.331063 -0.943609<21.607 371.964 463.046 630.08>
AnchorPoint: "ogonek" 603 0 basechar 0
AnchorPoint: "below" 366 0 basechar 0
AnchorPoint: "above" 366 717 basechar 0
LayerCount: 2
Fore
SplineSet
42 27 m 0
 42 33 44 40 46 46 c 2
 258 648 l 2
 267 674 279 694 321 694 c 2
 411 694 l 2
 462 694 469 663 479 634 c 2
 686 44 l 2
 688 38 690 33 690 27 c 0
 690 -2 655 0 653 0 c 2
 600 0 l 2
 545 0 546 24 501 151 c 1
 216 151 l 1
 172 27 174 0 117 -0 c 2
 80 -0 l 2
 47 0 42 16 42 27 c 0
246 237 m 1
 471 237 l 1
 379 502 368 535 359 569 c 1
 345 518 269 303 246 237 c 1
EndSplineSet
EndChar

StartChar: B
Encoding: 66 66 77
Width: 733
Flags: HW
TeX: 694 0
HStem: 0 86<228 484.283> 324 73<228 451.292> 608 86<228 463.749>
VStem: 91 137<86 324 397 608> 510 131<447.235 567.364> 538 133<132.667 267.935>
AnchorPoint: "below" 357 0 basechar 0
AnchorPoint: "above" 357 717 basechar 0
LayerCount: 2
Fore
SplineSet
91 46 m 2
 91 648 l 2
 91 671 96 694 138 694 c 2
 351 694 l 2
 419 694 526 694 589 636 c 0
 624 604 641 557 641 514 c 0xf8
 641 393 517 370 493 363 c 1
 596 350 671 295 671 192 c 0xf4
 671 153 660 74 575 31 c 0
 516 1 448 0 383 0 c 2
 138 0 l 2
 99 0 91 19 91 46 c 2
228 86 m 1
 363 86 l 2
 433 86 484 95 515 131 c 0
 531 150 538 173 538 197 c 0xf4
 538 248 512 319 378 324 c 1
 228 324 l 1
 228 86 l 1
228 397 m 1xf8
 322 397 l 2
 393 397 435 399 481 437 c 1
 500 460 510 482 510 511 c 0
 510 540 498 574 449 593 c 0
 412 607 372 608 333 608 c 2
 228 608 l 1
 228 397 l 1xf8
EndSplineSet
EndChar

StartChar: C
Encoding: 67 67 78
Width: 703
Flags: HW
TeX: 694 0
HStem: -23 101<321.726 551.003> 616 101<320.36 529.542>
VStem: 60 142<210.622 485.246>
AnchorPoint: "below" 427 0 basechar 0
AnchorPoint: "above" 429 717 basechar 0
LayerCount: 2
Fore
SplineSet
60 347 m 0
 60 643 239 717 429 717 c 0
 508 717 547 706 607 688 c 0
 624 682 623 683 630 676 c 1
 632 672 633 670 633 666 c 0
 633 658 629 640 618 580 c 0
 614 559 610 551 603 551 c 0
 584 551 543 616 428 616 c 0
 247 616 202 490 202 348 c 0
 202 201 248 78 432 78 c 0
 576 78 596 142 626 142 c 0
 638 142 638 123 641 96 c 0
 644 60 645 56 645 51 c 0
 645 35 633 31 621 24 c 0
 555 -13 511 -23 427 -23 c 0
 163 -23 60 124 60 347 c 0
EndSplineSet
EndChar

StartChar: D
Encoding: 68 68 79
Width: 794
Flags: HW
TeX: 694 0
HStem: -0 86<230 486.547> 608 86<231 479.524>
VStem: 91 139<86 608> 593 139<198.965 487.577>
AnchorPoint: "below" 387 0 basechar 0
AnchorPoint: "above" 387 717 basechar 0
LayerCount: 2
Fore
SplineSet
91 45 m 2
 91 646 l 2
 91 658 89 694 133 694 c 2
 373 694 l 2
 549 694 732 648 732 341 c 0
 732 15 501 0 384 -0 c 2
 137 -0 l 2
 112 0 91 6 91 45 c 2
230 86 m 1
 341 86 l 2
 418 86 506 90 557 166 c 0
 587 212 592 268 593 321 c 1
 593 332 l 2
 593 459 585 600 376 608 c 1
 231 608 l 1
 230 579 l 1
 230 86 l 1
EndSplineSet
EndChar

StartChar: E
Encoding: 69 69 80
Width: 642
Flags: HW
TeX: 694 0
HStem: -0 107<233 591.062> 310 95<233 545.25> 586 105<233 576.381>
VStem: 91 142<107 310 405 590>
AnchorPoint: "ogonek" 343 0 basechar 0
AnchorPoint: "below" 343 0 basechar 0
AnchorPoint: "above" 343 717 basechar 0
LayerCount: 2
Fore
SplineSet
91 47 m 2
 91 644 l 2
 91 682 108 691 137 691 c 2
 535 691 l 2
 578 691 580 665 580 646 c 2
 580 630 l 2
 580 613 576 586 538 586 c 0
 507 586 477 587 233 590 c 1
 233 405 l 1
 498 405 l 2
 522 405 550 404 550 357 c 0
 550 311 518 310 505 310 c 2
 233 310 l 1
 233 107 l 1
 553 111 l 1
 587 110 595 89 595 65 c 0
 595 58 595 51 595 44 c 0
 595 6 572 0 550 -0 c 2
 137 -0 l 2
 92 0 91 29 91 47 c 2
EndSplineSet
EndChar

StartChar: F
Encoding: 70 70 81
Width: 611
Flags: HW
TeX: 694 0
HStem: -0 21G<116.5 206> 298 95<233 513.58> 586 105<233 560.045>
VStem: 91 142<3.95312 298 393 590>
AnchorPoint: "below" 328 0 basechar 0
AnchorPoint: "above" 328 717 basechar 0
LayerCount: 2
Fore
SplineSet
91 46 m 2
 91 649 l 2
 91 663 94 691 136 691 c 2
 519 691 l 2
 558 691 564 671 564 646 c 2
 564 631 l 2
 564 617 563 586 519 586 c 0
 510 586 328 589 233 590 c 1
 233 393 l 1
 474 393 l 2
 513 393 518 369 518 347 c 0
 518 300 493 298 472 298 c 2
 233 298 l 1
 233 44 l 2
 233 19 223 0 189 -0 c 2
 137 -0 l 2
 96 0 91 23 91 46 c 2
EndSplineSet
EndChar

StartChar: G
Encoding: 71 71 82
Width: 733
Flags: HW
TeX: 694 0
HStem: -22 100<319.205 520.363> 228 95<426.053 522> 616 101<318.325 533.259>
VStem: 60 142<203.591 487.727> 426 233<228.002 322.952> 522 137<85.1719 228>
AnchorPoint: "below" 424 0 basechar 0
AnchorPoint: "above" 426 717 basechar 0
LayerCount: 2
Fore
SplineSet
60 348 m 0
 60 577 169 717 426 717 c 0
 500 717 561 705 625 675 c 0
 643 667 648 663 648 654 c 0
 648 645 643 619 634 567 c 0
 629 542 627 542 622 538 c 1
 617 537 l 1
 591 544 558 616 426 616 c 0
 231 616 202 469 202 344 c 0xf8
 202 203 247 78 428 78 c 0
 466 78 494 84 522 89 c 1
 522 228 l 1xf4
 448 228 l 2
 436 228 427 230 426 250 c 1
 426 300 l 2
 426 323 436 323 451 323 c 2
 639 323 l 1
 652 322 659 319 659 302 c 2xf8
 659 49 l 2xf4
 659 37 657 31 644 24 c 1
 584 -3 512 -22 424 -22 c 0
 240 -22 60 52 60 348 c 0
EndSplineSet
EndChar

StartChar: H
Encoding: 72 72 83
Width: 794
Flags: HW
TeX: 694 0
HStem: -0 21G<112 198 598 681.5> 313 95<233 560> 674 20G<115.5 210 584 679.5>
VStem: 91 142<3.70758 313 408 689.5> 560 142<4.37842 313 408 689.901>
AnchorPoint: "below" 396 0 basechar 0
AnchorPoint: "above" 396 717 basechar 0
LayerCount: 2
Fore
SplineSet
91 54 m 2
 91 647 l 2
 91 666 93 694 138 694 c 0
 155 694 172 694 189 694 c 0
 231 694 233 667 233 649 c 2
 233 408 l 1
 560 408 l 1
 560 650 l 2
 560 666 564 694 604 694 c 2
 656 694 l 2
 703 694 702 662 702 647 c 2
 702 54 l 2
 702 34 705 0 658 -0 c 0
 641 0 624 0 607 -0 c 0
 589 0 560 3 560 44 c 2
 560 313 l 1
 233 313 l 1
 233 44 l 2
 233 5 209 0 187 -0 c 0
 170 0 153 0 136 -0 c 0
 88 0 91 33 91 54 c 2
EndSplineSet
EndChar

StartChar: I
Encoding: 73 73 84
Width: 325
Flags: HW
TeX: 694 0
HStem: 0 21G<125 193.5> 674 20G<119 198.5>
VStem: 91 142<3.82324 689.884>
AnchorPoint: "ogonek" 162 0 basechar 0
AnchorPoint: "below" 162 0 basechar 0
AnchorPoint: "above" 162 717 basechar 0
LayerCount: 2
Fore
SplineSet
91 46 m 2
 91 647 l 2
 91 676 105 694 133 694 c 0
 151 694 169 694 187 694 c 0
 210 694 233 689 233 649 c 2
 233 48 l 2
 233 39 233 29 230 22 c 0
 220 -1 199 1 188 0 c 1
 137 0 l 2
 113 0 91 6 91 46 c 2
EndSplineSet
EndChar

StartChar: J
Encoding: 74 74 85
Width: 519
Flags: HW
TeX: 694 0
HStem: -22 100<121.835 265.452> 674 20G<326.5 399>
VStem: 288 139<100.607 690.056>
AnchorPoint: "below" 237 0 basechar 0
AnchorPoint: "above" 358 717 basechar 0
LayerCount: 2
Fore
SplineSet
47 36 m 0
 47 53 53 86 62 128 c 1
 65 136 69 139 73 139 c 0
 92 139 111 78 196 78 c 0
 238 78 288 92 288 154 c 2
 288 648 l 2
 288 695 319 693 334 694 c 1
 380 694 l 2
 418 694 427 678 427 647 c 2
 427 154 l 2
 427 13 321 -22 235 -22 c 0
 159 -22 69 5 49 25 c 0
 48 27 47 31 47 36 c 0
EndSplineSet
EndChar

StartChar: K
Encoding: 75 75 86
Width: 764
Flags: HW
TeX: 694 0
HStem: -0 21G<112 194 594 675.5> 674 20G<114 183.5 588.5 676.5>
VStem: 91 125<3.96869 214 367 689.939>
DStem2: 216 367 333 323 0.729286 0.684209<0 55.2213 173.361 500.918> 419 403 333 323 0.604631 -0.796506<11.7222 433.359>
AnchorPoint: "below" 396 0 basechar 0
AnchorPoint: "above" 396 717 basechar 0
LayerCount: 2
Fore
SplineSet
91 49 m 2
 91 646 l 2
 91 664 92 694 136 694 c 2
 171 694 l 2
 196 694 215 687 216 652 c 1
 216 367 l 1
 548 678 l 1
 564 691 578 694 599 694 c 2
 666 694 l 2
 687 694 695 684 695 674 c 0
 695 660 682 651 669 639 c 2
 419 404 l 1
 419 403 l 1
 690 46 l 2
 695 39 700 33 701 25 c 1
 699 1 683 0 668 -0 c 2
 609 -0 l 2
 579 0 571 9 556 28 c 2
 333 323 l 1
 216 214 l 1
 216 47 l 2
 216 31 217 0 171 -0 c 2
 135 -0 l 2
 89 0 91 34 91 49 c 2
EndSplineSet
EndChar

StartChar: L
Encoding: 76 76 87
Width: 580
Flags: HW
TeX: 694 0
HStem: -0 106<233 529.724> 674 20G<118.5 198>
VStem: 91 142<101 689.884>
AnchorPoint: "below" 312 0 basechar 0
AnchorPoint: "above" 312 717 basechar 0
LayerCount: 2
Fore
SplineSet
91 47 m 2
 91 647 l 2
 91 676 100 694 137 694 c 2
 189 694 l 2
 207 694 233 690 233 651 c 2
 233 101 l 1
 319 102 482 106 490 106 c 0
 525 106 534 85 534 60 c 2
 534 49 l 2
 534 26 531 0 487 -0 c 2
 137 -0 l 2
 114 0 91 5 91 47 c 2
EndSplineSet
EndChar

StartChar: M
Encoding: 77 77 88
Width: 978
Flags: HW
TeX: 694 0
HStem: -0 21G<112.5 190 784.5 860.5> 674 20G<123 227 727.5 862>
VStem: 91 123<3.99885 569> 763 123<4.13318 569>
DStem2: 277 666 271 410 0.375119 -0.926977<67.8598 554.82>
AnchorPoint: "below" 488 0 basechar 0
AnchorPoint: "above" 488 717 basechar 0
LayerCount: 2
Fore
SplineSet
91 55 m 2
 91 650 l 2
 91 685 110 694 136 694 c 2
 218 694 l 2
 236 694 260 693 277 666 c 0
 287 650 467 208 486 148 c 1
 491 167 511 222 683 642 c 0
 694 668 703 694 752 694 c 2
 841 694 l 2
 883 694 886 666 886 648 c 2
 886 48 l 2
 886 23 881 0 840 0 c 2
 808 0 l 2
 761 0 763 32 763 52 c 2
 763 541 l 2
 763 550 762 560 762 569 c 1
 752 524 614 189 567 75 c 0
 546 25 526 22 497 22 c 2
 477 22 l 2
 418 22 418 49 375 153 c 2
 271 410 l 1
 235 504 222 536 214 569 c 1
 214 46 l 2
 214 27 211 0 169 -0 c 0
 158 0 147 0 136 -0 c 0
 89 0 91 30 91 55 c 2
EndSplineSet
EndChar

StartChar: N
Encoding: 78 78 89
Width: 794
Flags: HW
TeX: 694 0
HStem: -0 21G<114 190 542 665.5> 674 20G<125.5 252 602.5 678.5>
VStem: 91 123<4.12502 576> 579 123<118 689.875>
DStem2: 305 643 214 576 0.462681 -0.886525<17.2931 592.2>
AnchorPoint: "below" 396 0 basechar 0
AnchorPoint: "above" 396 717 basechar 0
LayerCount: 2
Fore
SplineSet
91 46 m 2
 91 649 l 2
 91 689 114 694 137 694 c 2
 229 694 l 2
 275 694 289 674 305 643 c 2
 579 118 l 1
 579 648 l 2
 579 666 580 694 625 694 c 0
 636 694 647 694 658 694 c 0
 699 694 702 668 702 649 c 2
 702 45 l 2
 702 3 675 0 656 -0 c 2
 565 -0 l 2
 519 0 504 21 488 51 c 2
 214 576 l 1
 214 46 l 2
 214 28 212 0 168 -0 c 0
 157 0 146 0 135 -0 c 0
 93 0 91 27 91 46 c 2
EndSplineSet
EndChar

StartChar: O
Encoding: 79 79 90
Width: 794
Flags: HW
TeX: 694 0
HStem: -22 81<306.497 482.72> 639 78<304.484 488.692>
VStem: 60 142<182.051 506.286> 590 142<184.135 504.694>
AnchorPoint: "ogonek" 397 0 basechar 0
AnchorPoint: "below" 397 0 basechar 0
AnchorPoint: "above" 395 717 basechar 0
LayerCount: 2
Fore
SplineSet
60 343 m 0
 60 613 194 717 395 717 c 0
 664 717 732 536 732 343 c 0
 732 158 669 -22 397 -22 c 0
 128 -22 60 151 60 343 c 0
202 345 m 2
 202 261 205 59 397 59 c 0
 474 59 516 99 525 108 c 0
 589 173 590 289 590 366 c 2
 590 373 l 2
 590 456 587 639 396 639 c 0
 342 639 294 619 265 591 c 0
 202 530 202 428 202 353 c 2
 202 345 l 2
EndSplineSet
EndChar

StartChar: P
Encoding: 80 80 91
Width: 703
Flags: HW
TeX: 694 0
HStem: -0 21G<126.5 209> 268 79<233 459.646> 608 86<231 462.731>
VStem: 91 139<3.57866 268 347 608> 507 134<393.283 564.56>
AnchorPoint: "below" 342 0 basechar 0
AnchorPoint: "above" 342 717 basechar 0
LayerCount: 2
Fore
SplineSet
91 46 m 2
 91 643 l 2
 91 664 92 694 137 694 c 2
 345 694 l 2
 425 694 521 695 585 632 c 0
 626 592 641 535 641 479 c 0
 641 269 452 268 360 268 c 2
 233 268 l 1
 233 46 l 2
 233 26 230 0 188 -0 c 0
 171 0 154 0 137 -0 c 0
 116 0 91 3 91 46 c 2
230 347 m 1
 364 347 l 2
 505 347 507 427 507 483 c 0
 505 597 436 608 351 608 c 2
 231 608 l 1
 230 571 l 1
 230 347 l 1
EndSplineSet
EndChar

StartChar: Q
Encoding: 81 81 92
Width: 794
Flags: HW
TeX: 694 105
HStem: -22 78<301.714 421> 639 78<306.837 485.407>
VStem: 60 139<183.008 508.31> 593 139<179.999 506.376>
AnchorPoint: "below" 396 -195 basechar 0
AnchorPoint: "above" 400 717 basechar 0
LayerCount: 2
Fore
SplineSet
60 342 m 0
 60 619 196 717 400 717 c 0
 543 717 718 661 731 381 c 1
 732 336 l 1
 731 310 739 113 598 27 c 1
 657 -54 676 -65 676 -82 c 0
 676 -101 662 -105 645 -105 c 2
 565 -105 l 2
 528 -105 529 -97 473 -17 c 1
 435 -21 427 -22 396 -22 c 0
 127 -22 60 153 60 342 c 0
199 338 m 2
 199 247 208 149 273 95 c 0
 302 70 346 56 395 56 c 0
 404 56 412 56 421 57 c 1
 360 145 l 1
 349 162 l 1
 346 171 l 1
 353 193 364 194 382 194 c 2
 445 194 l 2
 470 194 468 192 533 109 c 1
 582 164 593 242 593 327 c 2
 593 340 l 2
 593 410 592 543 511 603 c 0
 478 627 437 639 396 639 c 0
 320 639 279 602 270 594 c 0
 200 531 199 413 199 343 c 2
 199 338 l 2
EndSplineSet
EndChar

StartChar: R
Encoding: 82 82 93
Width: 703
Flags: HW
TeX: 694 0
HStem: -0 21G<114.5 206.5 547 626> 311 72<230 360.107> 608 86<231 465.887>
VStem: 91 139<4.47779 311 383 608> 507 134<421.998 570.191>
DStem2: 481 320 350 311 0.509462 -0.860493<0 314.792>
AnchorPoint: "below" 342 0 basechar 0
AnchorPoint: "above" 342 717 basechar 0
LayerCount: 2
Fore
SplineSet
91 47 m 2
 91 648 l 2
 91 667 94 694 137 694 c 2
 380 694 l 1
 438 693 520 687 578 640 c 0
 621 605 641 551 641 497 c 0
 641 353 511 328 481 320 c 1
 645 43 l 2
 648 37 651 31 652 24 c 1
 649 1 634 0 618 -0 c 2
 561 -0 l 2
 533 0 525 6 513 28 c 0
 382 254 365 282 350 311 c 1
 230 311 l 1
 230 44 l 2
 230 31 230 0 183 -0 c 0
 167 0 151 0 135 -0 c 0
 94 0 91 26 91 47 c 2
230 383 m 1
 356 383 l 2
 444 383 507 397 507 495 c 0
 507 593 446 608 357 608 c 2
 231 608 l 1
 230 574 l 1
 230 383 l 1
EndSplineSet
EndChar

StartChar: S
Encoding: 83 83 94
Width: 611
Flags: HW
TeX: 694 0
HStem: -22 108<189.642 387.539> 613 104<216.615 403.313>
VStem: 60 126<475.753 584.185> 423 126<118.6 241.37>
AnchorPoint: "below" 305 0 basechar 0
AnchorPoint: "above" 306 717 basechar 0
LayerCount: 2
Fore
SplineSet
49 63 m 0
 49 71 52 87 63 147 c 0
 67 169 72 177 79 177 c 0
 102 177 151 86 309 86 c 0
 365 86 423 106 423 184 c 0
 423 237 380 263 363 271 c 0
 339 283 323 282 231 305 c 0
 161 322 60 387 60 509 c 0
 60 588 88 717 306 717 c 0
 419 717 506 671 510 660 c 0
 511 658 511 657 511 653 c 0
 511 642 507 617 493 548 c 1
 490 540 487 537 483 537 c 0
 456 537 439 613 295 613 c 0
 203 613 186 562 186 528 c 0
 186 437 310 439 386 414 c 0
 463 389 549 317 549 199 c 0
 549 90 500 -22 305 -22 c 0
 173 -22 58 39 51 54 c 0
 50 58 49 59 49 63 c 0
EndSplineSet
EndChar

StartChar: T
Encoding: 84 84 95
Width: 733
Flags: HW
TeX: 694 0
HStem: 0 21G<343 390> 584 104<52.8337 355.75 380.147 679.166>
VStem: 295 143<13 587>
AnchorPoint: "below" 366 0 basechar 0
AnchorPoint: "above" 366 717 basechar 0
LayerCount: 2
Fore
SplineSet
39 632 m 2
 39 640 l 2
 39 677 52 688 88 688 c 2
 644 688 l 2
 685 688 693 672 693 640 c 2
 693 632 l 2
 693 584 668 584 640 584 c 0
 596 584 482 587 438 587 c 1
 438 48 l 2
 438 13 428 0 390 0 c 2
 343 0 l 2
 306 0 295 12 295 48 c 2
 295 587 l 1
 295 587 136 584 92 584 c 0
 64 584 39 584 39 632 c 2
EndSplineSet
EndChar

StartChar: U
Encoding: 85 85 96
Width: 764
Flags: HW
TeX: 694 0
HStem: -22 87<292.933 478.689> 674 20G<114 196.5 576 645.5>
VStem: 91 142<123.76 689.854> 537 134<122.771 690.232>
AnchorPoint: "ogonek" 383 0 basechar 0
AnchorPoint: "below" 383 0 basechar 0
AnchorPoint: "above" 381 717 basechar 0
LayerCount: 2
Fore
SplineSet
91 240 m 2
 91 644 l 2
 91 665 91 694 137 694 c 2
 187 694 l 2
 206 694 233 692 233 647 c 2
 233 242 l 2
 233 150 245 74 362 65 c 1
 387 64 l 1
 531 66 537 158 537 243 c 2
 537 649 l 2
 537 694 567 694 585 694 c 2
 629 694 l 2
 662 694 671 673 671 648 c 2
 671 243 l 2
 671 84 597 -21 383 -22 c 0
 231 -22 91 30 91 240 c 2
EndSplineSet
EndChar

StartChar: V
Encoding: 86 86 97
Width: 733
Flags: HW
TeX: 694 0
ItalicCorrection: 15
HStem: -0 21G<293.5 436.5> 674 20G<46.5 142 603.5 685>
DStem2: 185 634 31 649 0.348506 -0.937307<-68.8273 542.26> 372 125 480 58 0.348863 0.937174<0 613.148>
AnchorPoint: "below" 366 0 basechar 0
AnchorPoint: "above" 365 717 basechar 0
LayerCount: 2
Fore
SplineSet
27 667 m 0
 27 675 31 694 62 694 c 2
 117 694 l 2
 167 694 174 664 185 634 c 2
 372 125 l 1
 381 159 494 463 557 632 c 0
 572 672 579 694 628 694 c 2
 670 694 l 2
 700 694 704 676 704 667 c 0
 704 661 702 655 700 649 c 2
 480 58 l 2
 469 27 461 0 412 -0 c 2
 321 -0 l 2
 266 0 261 31 250 60 c 2
 31 649 l 2
 29 655 27 661 27 667 c 0
EndSplineSet
EndChar

StartChar: W
Encoding: 87 87 98
Width: 1039
Flags: HW
TeX: 694 0
ItalicCorrection: 15
HStem: -0 21G<220 343 689 814.5> 674 20G<45.5 104 460.5 578.5 931.5 984>
DStem2: 152 655 27 647 0.260033 -0.9656<-42.6684 547.652> 290 125 378 54 0.257079 0.96639<0 486.92> 617 637 515 569 0.257079 -0.96639<39.4925 529.498> 752 125 852 62 0.259618 0.965711<0 587.837>
AnchorPoint: "below" 518 0 basechar 0
AnchorPoint: "above" 518 717 basechar 0
LayerCount: 2
Fore
SplineSet
24 665 m 0
 24 677 29 694 62 694 c 0
 73 694 84 694 95 694 c 0
 113 694 142 693 152 655 c 2
 257 260 l 2
 269 215 280 170 290 125 c 1
 298 178 414 603 425 646 c 0
 430 666 437 694 484 694 c 0
 507 694 530 694 553 694 c 0
 604 694 609 667 617 637 c 2
 712 282 l 2
 726 230 740 178 752 125 c 1
 891 649 l 2
 900 680 914 694 949 694 c 2
 974 694 l 2
 994 694 1012 688 1012 664 c 0
 1012 660 1011 655 1009 646 c 2
 852 62 l 2
 844 32 839 0 790 -0 c 2
 713 -0 l 2
 665 0 658 31 652 54 c 2
 560 396 l 2
 545 454 529 511 515 569 c 1
 378 54 l 2
 372 33 368 0 318 -0 c 0
 294 0 270 0 246 -0 c 0
 194 0 192 37 184 64 c 2
 27 647 l 2
 25 653 24 659 24 665 c 0
EndSplineSet
EndChar

StartChar: X
Encoding: 88 88 99
Width: 733
Flags: HW
TeX: 694 0
HStem: -0 21G<53.5 161.5 561.5 677> 675 19G<84 183 609 619.5>
DStem2: 50 48 202 34 0.578349 0.81579<19.6878 354.342 533 807.315> 358 483 284 369 0.581238 -0.813733<-223.544 0 178.208 518.237>
AnchorPoint: "below" 366 0 basechar 0
AnchorPoint: "above" 366 717 basechar 0
LayerCount: 2
Fore
SplineSet
38 23 m 0
 38 32 45 41 50 48 c 2
 284 367 l 1
 284 369 l 1
 67 647 l 2
 62 654 55 663 55 672 c 0
 55 692 76 694 92 694 c 0
 118 694 143 694 169 694 c 0
 197 694 206 686 224 662 c 2
 358 483 l 1
 486 663 l 2
 505 690 514 694 538 694 c 0
 558 694 578 694 598 694 c 0
 601 694 606 695 612 695 c 0
 627 695 649 692 649 672 c 0
 649 663 642 654 637 647 c 2
 432 369 l 1
 679 50 l 2
 685 42 693 32 693 22 c 0
 693 13 688 1 666 -0 c 1
 578 -0 l 2
 545 0 538 13 524 33 c 2
 358 264 l 1
 202 34 l 2
 184 7 175 0 148 -0 c 2
 65 -0 l 1
 42 1 38 15 38 23 c 0
EndSplineSet
EndChar

StartChar: Y
Encoding: 89 89 100
Width: 733
Flags: HW
TeX: 694 0
ItalicCorrection: 27
HStem: -0 21G<319 403> 674 20G<52.5 153.5 599.5 681>
VStem: 296 139<3.53754 278>
DStem2: 373 403 440 283 0.575322 0.817927<0 369.469>
AnchorPoint: "below" 366 0 basechar 0
AnchorPoint: "above" 366 717 basechar 0
LayerCount: 2
Fore
SplineSet
25 671 m 0
 25 693 46 694 59 694 c 2
 121 694 l 2
 186 694 191 669 323 480 c 1
 359 426 364 419 373 403 c 1
 385 428 469 547 535 641 c 0
 560 676 575 694 624 694 c 2
 673 694 l 2
 689 694 707 691 707 671 c 0
 707 660 696 647 689 637 c 2
 440 283 l 1
 436 273 435 275 435 256 c 2
 435 47 l 2
 435 7 417 0 389 -0 c 2
 340 -0 l 2
 298 0 296 27 296 45 c 2
 296 278 l 1
 39 642 l 2
 33 650 25 660 25 671 c 0
EndSplineSet
EndChar

StartChar: Z
Encoding: 90 90 101
Width: 672
Flags: HW
TeX: 694 0
HStem: -0 104<235 612.262> 598 96<79.0936 436>
DStem2: 75 100 235 101 0.586914 0.809649<94.7159 615.081>
AnchorPoint: "below" 338 0 basechar 0
AnchorPoint: "above" 338 717 basechar 0
LayerCount: 2
Fore
SplineSet
60 49 m 2
 60 58 l 2
 60 80 65 86 75 100 c 2
 436 598 l 1
 121 595 l 2
 79 595 75 617 75 644 c 0
 75 662 75 694 119 694 c 2
 566 694 l 2
 608 694 610 667 610 646 c 2
 610 641 l 2
 610 619 605 613 595 599 c 2
 235 101 l 1
 474 104 l 1
 503 104 l 1
 557 105 564 105 571 105 c 0
 610 105 616 84 616 60 c 2
 616 46 l 2
 616 24 612 1 572 -0 c 1
 103 -0 l 2
 57 0 60 36 60 49 c 2
EndSplineSet
EndChar

StartChar: bracketleft
Encoding: 91 91 102
Width: 343
Flags: HW
TeX: 746 249
HStem: -250 73<218 313.625> 677 73<218 313.662>
VStem: 84 134<-177 677>
LayerCount: 2
Fore
SplineSet
84 -202 m 2
 84 701 l 2
 84 725 88 750 130 750 c 2
 271 750 l 2
 311 750 317 725 317 713 c 0
 317 694 302 684 296 681 c 0
 287 677 275 677 265 677 c 2
 218 677 l 1
 218 -177 l 1
 273 -177 l 2
 281 -177 317 -178 317 -213 c 0
 317 -226 311 -250 271 -250 c 2
 129 -250 l 2
 84 -250 84 -220 84 -202 c 2
EndSplineSet
EndChar

StartChar: backslash
Encoding: 92 92 103
Width: 550
Flags: HW
TeX: 746 249
DStem2: 136 712 69 684 0.357059 -0.934082<-27.2319 990.111>
LayerCount: 2
Fore
SplineSet
61 713 m 0
 61 735 79 749 96 749 c 0
 123 749 131 725 136 712 c 2
 485 -201 l 2
 486 -205 487 -210 487 -214 c 0
 487 -231 472 -249 451 -249 c 0
 425 -249 417 -226 409 -206 c 2
 69 684 l 2
 66 693 61 702 61 713 c 0
EndSplineSet
EndChar

StartChar: bracketright
Encoding: 93 93 104
Width: 343
Flags: HW
TeX: 746 249
HStem: -250 73<27.7584 124> 677 73<27.7584 124>
VStem: 124 133<-177 677>
LayerCount: 2
Fore
SplineSet
25 -213 m 0
 25 -201 29 -177 70 -177 c 2
 124 -177 l 1
 124 677 l 1
 71 677 l 2
 59 677 25 678 25 713 c 0
 25 725 29 750 70 750 c 2
 211 750 l 2
 257 750 257 720 257 701 c 2
 257 -202 l 2
 257 -219 258 -250 212 -250 c 2
 70 -250 l 2
 30 -250 25 -226 25 -213 c 0
EndSplineSet
EndChar

StartChar: asciicircum
Encoding: 94 94 105
Width: 672
Flags: HW
TeX: 720 0
HStem: 458 176
VStem: 171 329<461 477>
LayerCount: 2
Fore
SplineSet
171 471 m 0
 171 480 172 480 274 620 c 0
 284 633 290 634 301 634 c 2
 373 634 l 2
 391 634 390 629 491 490 c 0
 495 484 500 477 500 471 c 0
 500 461 491 458 483 458 c 2
 451 458 l 2
 433 458 436 459 335 553 c 1
 229 452 236 458 219 458 c 2
 198 458 l 2
 187 458 171 457 171 471 c 0
EndSplineSet
EndChar

StartChar: underscore
Encoding: 95 95 106
Width: 855
Flags: HW
TeX: 0 335
HStem: -336 83<97.2226 756.884>
LayerCount: 2
Fore
SplineSet
92 -295 m 0
 92 -284 97 -253 141 -253 c 2
 712 -253 l 2
 756 -253 762 -283 762 -294 c 0
 762 -306 757 -336 710 -336 c 2
 142 -336 l 2
 97 -336 92 -309 92 -295 c 0
EndSplineSet
EndChar

StartChar: quoteleft
Encoding: 8216 8216 107
Width: 305
Flags: HW
TeX: 720 0
HStem: 485 237<144.003 183 195 209>
VStem: 86 131<485.027 615.187>
LayerCount: 2
Fore
SplineSet
86 508 m 2
 86 593 l 2
 86 612 90 613 144 700 c 0
 155 718 156 722 175 722 c 2
 195 722 l 2
 209 722 215 719 215 709 c 0
 215 695 202 668 183 617 c 1
 185 617 186 616 188 616 c 0
 191 616 193 617 195 617 c 0
 207 617 217 615 217 595 c 2
 217 519 l 2
 217 494 216 485 196 485 c 2
 110 485 l 2
 94 485 86 486 86 508 c 2
EndSplineSet
EndChar

StartChar: a
Encoding: 97 97 108
Width: 525
Flags: HW
TeX: 458 0
HStem: -11 73<128 280.881> -0 21G<355 439> 232 59<219.447 328> 405 70<159.632 308.344>
VStem: 30 131<82.0559 188.032> 328 136<4.81284 40 94.1523 232 291 387.448>
AnchorPoint: "ogonek" 397 0 basechar 0
AnchorPoint: "affricate-below" 525 -195 basechar 0
AnchorPoint: "affricate-above" 525 722 basechar 0
AnchorPoint: "below" 257 0 basechar 0
AnchorPoint: "above" 257 475 basechar 0
LayerCount: 2
Fore
SplineSet
30 137 m 0
 30 273 239 290 328 291 c 1
 328 312 l 2
 328 359 320 405 257 405 c 0
 142 405 112 337 90 336 c 1
 86 337 l 1
 82 340 l 1
 75 352 72 417 72 417 c 1
 72 433 78 432 100 443 c 1
 145 463 194 475 257 475 c 0
 418 475 464 408 464 308 c 2
 464 45 l 2
 464 23 459 0 419 -0 c 0x7c
 403 0 387 0 371 -0 c 0x7c
 339 0 330 23 330 40 c 1
 308 23 258 -11 176 -11 c 0xbc
 80 -11 30 69 30 137 c 0
161 137 m 0
 161 101 187 62 230 62 c 0xbc
 263 62 328 80 328 154 c 2
 328 232 l 1
 267 227 161 215 161 137 c 0
EndSplineSet
EndChar

StartChar: b
Encoding: 98 98 109
Width: 561
Flags: HW
TeX: 720 0
HStem: -11 73<221.025 347.202> -0 21G<86.5 164.5> 397 72<227.526 349.798> 702 20G<86.5 167.5>
VStem: 60 137<80.1538 377.902 429 716.568> 386 137<105.678 359.804>
AnchorPoint: "affricate-below" 561 -195 basechar 0
AnchorPoint: "affricate-above" 561 722 basechar 0
AnchorPoint: "below" 291 0 basechar 0
AnchorPoint: "above" 291 722 basechar 0
LayerCount: 2
Fore
SplineSet
60 46 m 2
 60 676 l 2
 60 702 67 722 106 722 c 0
 121 722 135 722 150 722 c 0
 185 722 194 702 194 678 c 2
 194 429 l 1
 232 453 276 469 333 469 c 0
 421 469 487 427 512 334 c 0
 523 292 523 246 523 224 c 0
 522 35 411 -11 309 -11 c 0xbc
 261 -11 225 5 196 27 c 1
 186 6 177 0 152 -0 c 2x7c
 106 -0 l 2x7c
 67 0 60 21 60 46 c 2
197 101 m 1
 208 89 228 62 275 62 c 0
 391 62 386 165 386 234 c 0
 386 311 384 397 286 397 c 0xbc
 248 397 222 383 197 362 c 1
 197 101 l 1
EndSplineSet
EndChar

StartChar: c
Encoding: 99 99 110
Width: 489
Flags: HW
TeX: 458 0
HStem: -11 78<211.236 372.03> 397 78<213.366 373.56>
VStem: 36 137<110.732 349.703>
AnchorPoint: "affricate-below" 489 -195 basechar 0
AnchorPoint: "affricate-above" 489 722 basechar 0
AnchorPoint: "below" 274 0 basechar 0
AnchorPoint: "above" 280 475 basechar 0
LayerCount: 2
Fore
SplineSet
36 228 m 0
 36 425 150 475 280 475 c 0
 345 475 385 465 442 434 c 0
 448 430 450 426 450 418 c 1
 450 418 445 340 426 340 c 0
 410 340 390 373 347 388 c 0
 318 398 285 397 270 397 c 0
 174 393 173 296 173 242 c 2
 173 223 l 2
 173 160 176 67 277 67 c 0
 381 67 417 128 438 131 c 1
 443 130 l 1
 451 125 450 126 456 60 c 1
 456 52 l 2
 456 37 447 33 436 27 c 0
 392 4 340 -11 274 -11 c 0
 135 -11 36 52 36 228 c 0
EndSplineSet
EndChar

StartChar: d
Encoding: 100 100 111
Width: 561
Flags: HW
TeX: 720 0
HStem: -11 73<208.904 327.66> -0 21G<399 475> 396 73<213.81 339.135> 702 20G<389.5 472.5>
VStem: 36 137<101.8 355.56> 362 137<84.5439 381.58 433 716.757>
AnchorPoint: "affricate-below" 561 -195 basechar 0
AnchorPoint: "affricate-above" 561 722 basechar 0
AnchorPoint: "below" 268 0 basechar 0
AnchorPoint: "above" 268 722 basechar 0
LayerCount: 2
Fore
SplineSet
36 239 m 0
 39 417 135 469 240 469 c 0
 290 469 329 456 365 433 c 1
 365 678 l 2
 365 697 370 722 409 722 c 2
 449 722 l 2
 496 722 499 698 499 677 c 2
 499 46 l 2
 499 27 496 0 454 -0 c 2
 408 -0 l 2x7c
 390 0 371 1 362 32 c 1
 326 6 290 -11 235 -11 c 0
 155 -11 75 23 47 130 c 0
 36 172 36 206 36 239 c 0
173 221 m 0
 173 150 175 62 274 62 c 0
 317 62 362 91 362 121 c 2
 362 366 l 1
 355 371 331 396 284 396 c 0
 174 396 173 303 173 242 c 0xbc
 173 235 173 228 173 221 c 0
EndSplineSet
EndChar

StartChar: e
Encoding: 101 101 112
Width: 511
Flags: HW
TeX: 458 0
HStem: -11 73<210.333 383.373> 214 65<160 367> 402 73<204.941 333.723>
VStem: 30 129<116.945 214 279 352.43> 367 112<279 364.091>
AnchorPoint: "ogonek" 284 0 basechar 0
AnchorPoint: "affricate-below" 511 -195 basechar 0
AnchorPoint: "affricate-above" 511 722 basechar 0
AnchorPoint: "below" 284 0 basechar 0
AnchorPoint: "above" 270 475 basechar 0
LayerCount: 2
Fore
SplineSet
30 233 m 0
 30 401 126 475 270 475 c 0
 437 475 479 364 479 257 c 0
 479 216 453 214 435 214 c 2
 159 214 l 1
 161 136 184 62 286 62 c 0
 386 62 433 121 453 127 c 1
 457 127 l 1
 462 125 l 1
 473 114 473 55 473 55 c 1
 473 44 469 40 457 33 c 0
 415 9 353 -11 284 -11 c 0
 117 -11 30 74 30 233 c 0
160 279 m 1
 367 279 l 1
 364 346 348 402 270 402 c 0
 190 402 166 341 160 279 c 1
EndSplineSet
EndChar

StartChar: f
Encoding: 102 102 113
Width: 336
Flags: HW
TeX: 720 0
ItalicCorrection: 76
HStem: -0 21G<107.5 195.5> 385 73<33.7584 86 219 310.67> 660 73<232.236 344.733>
VStem: 86 133<4.0761 385 458 647.971>
AnchorPoint: "affricate-below" 336 -195 basechar 0
AnchorPoint: "affricate-above" 336 722 basechar 0
AnchorPoint: "above" 280 722 basechar 0
AnchorPoint: "below" 152 0 basechar 0
LayerCount: 2
Fore
SplineSet
31 422 m 0
 31 433 35 458 76 458 c 2
 86 458 l 1
 86 546 l 2
 86 644 124 732 279 733 c 1
 281 733 l 2
 317 733 362 728 376 718 c 1
 379 714 l 1
 381 709 l 1
 381 648 l 2
 381 639 381 623 369 623 c 0
 354 623 339 660 283 660 c 0
 216 660 216 613 216 580 c 2
 216 458 l 1
 271 458 l 2
 304 458 314 437 314 422 c 0
 314 411 309 385 269 385 c 2
 219 385 l 1
 219 52 l 2
 219 27 219 0 172 -0 c 0
 158 0 144 0 130 -0 c 0
 85 0 86 31 86 46 c 2
 86 385 l 1
 74 385 l 2
 34 385 31 412 31 422 c 0
EndSplineSet
EndChar

StartChar: g
Encoding: 103 103 114
Width: 550
Flags: HW
TeX: 458 194
ItalicCorrection: 15
HStem: -206 72<157.501 390.128> -17 109<132.195 407.466> 139 72<183.976 300.71> 393 76<183.789 304.665 420.426 525.901>
VStem: 24 103<-106.632 -22.2388> 41 129<225.239 381.11> 54 70<100.308 158.31> 316 128<225.417 383.165> 420 103<-107.266 -34.5205>
AnchorPoint: "affricate-below" 550 -195 basechar 0
AnchorPoint: "affricate-above" 550 722 basechar 0
AnchorPoint: "below" 274 -195 basechar 0
AnchorPoint: "above" 243 475 basechar 0
LayerCount: 2
Fore
SplineSet
24 -65 m 0xf880
 24 -41 31 2 80 29 c 1
 66 50 54 75 54 108 c 0xf2
 54 139 65 166 81 190 c 1
 81 192 l 1
 60 216 41 250 41 303 c 0
 41 369 67 469 243 469 c 2
 246 469 l 2
 337 469 359 444 374 444 c 0
 384 444 439 469 503 469 c 0
 525 469 524 461 532 412 c 1
 533 397 525 393 515 393 c 0
 508 393 487 398 446 398 c 1
 420 397 l 1xf480
 424 389 444 360 444 304 c 0xf1
 444 205 389 139 242 139 c 0
 202 139 170 142 127 159 c 1xf9
 125 152 124 145 124 140 c 0xf2
 124 122 132 92 183 92 c 2
 269 92 l 2
 390 92 523 88 523 -63 c 0
 523 -112 500 -159 431 -185 c 0
 381 -204 327 -206 274 -206 c 0
 213 -206 79 -206 36 -117 c 0
 28 -101 24 -83 24 -65 c 0xf880
127 -63 m 0xf880
 127 -120 197 -134 275 -134 c 2
 279 -134 l 2
 398 -134 420 -94 420 -67 c 0
 420 -27 372 -17 282 -17 c 2
 184 -17 l 2
 168 -17 127 -14 127 -63 c 0xf880
170 296 m 2
 170 249 176 211 241 211 c 0
 303 211 316 237 316 296 c 2
 316 312 l 2
 316 363 307 397 245 397 c 0xf5
 184 397 170 372 170 312 c 2
 170 296 l 2
EndSplineSet
EndChar

StartChar: h
Encoding: 104 104 115
Width: 561
Flags: HW
TeX: 720 0
HStem: -0 21G<85.5 172 390.5 477.5> 396 73<253.283 427.438> 702 20G<82.5 154.5>
VStem: 59 134<4.08898 343.472 403 717.975> 364 136<3.77809 387.292>
AnchorPoint: "affricate-below" 561 -195 basechar 0
AnchorPoint: "affricate-above" 561 722 basechar 0
AnchorPoint: "below" 280 0 basechar 0
AnchorPoint: "above" 280 722 basechar 0
LayerCount: 2
Fore
SplineSet
59 44 m 2
 59 674 l 2
 59 695 62 722 103 722 c 2
 143 722 l 2
 166 722 193 720 193 677 c 2
 193 403 l 1
 227 437 273 469 352 469 c 0
 500 469 500 380 500 308 c 2
 500 44 l 2
 500 28 498 0 457 -0 c 2
 410 -0 l 2
 371 0 364 19 364 44 c 2
 364 324 l 2
 364 364 359 396 306 396 c 0
 241 396 204 342 197 295 c 0
 195 284 196 272 196 260 c 2
 196 50 l 2
 196 26 195 0 149 -0 c 2
 105 -0 l 2
 66 0 59 21 59 44 c 2
EndSplineSet
EndChar

StartChar: i
Encoding: 105 105 116
Width: 255
Flags: HW
TeX: 720 0
HStem: -0 21<81.5 172.5> 438 20<81.5 168.5> 580 142<60.3594 193.614>
VStem: 56 142<584.163 717.992> 60 134<3.67405 453.828>
AnchorPoint: "above" 127 702 basechar 0
AnchorPoint: "ogonek" 127 0 basechar 0
AnchorPoint: "affricate-below" 255 -195 basechar 0
AnchorPoint: "affricate-above" 255 722 basechar 0
AnchorPoint: "below" 127 0 basechar 0
LayerCount: 2
Fore
SplineSet
56 626 m 2
 56 676 l 2
 56 722 82 721 101 722 c 1
 152 722 l 2
 175 722 198 716 198 676 c 2
 198 624 l 2
 198 579 163 581 154 580 c 1xf0
 102 580 l 2
 79 580 56 586 56 626 c 2
EndSplineSet
Refer: 36 305 S 1 0 0 1 0 -0 3
EndChar

StartChar: j
Encoding: 106 106 117
Width: 286
Flags: HW
TeX: 720 194
HStem: -206 85<-35.6187 82.6997> 438 20G<131 202> 580 142<87.8598 222.047>
VStem: 84 142<584.416 717.992> 92 134<-108.82 453.772>
AnchorPoint: "affricate-below" 286 -195 basechar 0
AnchorPoint: "affricate-above" 286 722 basechar 0
AnchorPoint: "below" 112 -195 basechar 0
LayerCount: 2
Fore
SplineSet
-69 -157 m 1
 -69 -157 -62 -101 -45 -101 c 0
 -32 -101 -11 -121 30 -121 c 0
 88 -121 92 -84 92 -62 c 2
 92 414 l 2
 92 460 125 457 137 458 c 1
 180 458 l 2
 224 458 226 430 226 412 c 2
 226 -15 l 2xe8
 226 -82 220 -206 76 -206 c 0
 30 -206 -69 -184 -69 -157 c 1
84 626 m 2
 84 676 l 2
 84 720 110 721 129 722 c 1
 180 722 l 2
 203 722 226 716 226 676 c 2
 226 624 l 2
 226 579 190 581 181 580 c 1xf0
 129 580 l 2
 106 580 84 586 84 626 c 2
EndSplineSet
EndChar

StartChar: k
Encoding: 107 107 118
Width: 530
Flags: HW
TeX: 720 0
HStem: -0 21G<92 157 399.5 478.5> 438 20G<366.5 466.5> 702 20G<101.5 164.5>
VStem: 69 117<4.95312 153 303 718.119>
DStem2: 312 272 230 195 0.604596 -0.796532<11.756 273.034>
AnchorPoint: "affricate-below" 530 -195 basechar 0
AnchorPoint: "affricate-above" 530 722 basechar 0
AnchorPoint: "below" 282 0 basechar 0
AnchorPoint: "above" 282 722 basechar 0
LayerCount: 2
Fore
SplineSet
69 47 m 2
 69 678 l 2
 69 713 89 722 114 722 c 0
 123 722 132 722 141 722 c 0
 188 722 186 688 186 674 c 2
 186 303 l 1
 353 458 343 458 390 458 c 2
 456 458 l 1
 477 457 480 445 481 440 c 1
 480 424 485 430 312 272 c 1
 328 249 347 226 485 45 c 0
 490 38 495 31 495 22 c 0
 495 15 492 0 465 -0 c 2
 412 -0 l 2
 387 0 377 2 356 29 c 2
 230 195 l 1
 184 153 l 1
 184 44 l 2
 184 19 175 0 139 -0 c 2
 115 -0 l 2
 69 0 69 30 69 47 c 2
EndSplineSet
EndChar

StartChar: l
Encoding: 108 108 119
Width: 255
Flags: HW
TeX: 720 0
HStem: 0 21G<95 170.5> 702 20G<88 160.5>
VStem: 60 134<4.23094 717.884>
AnchorPoint: "affricate-below" 255 -195 basechar 0
AnchorPoint: "affricate-above" 255 722 basechar 0
AnchorPoint: "below" 127 0 basechar 0
AnchorPoint: "above" 127 722 basechar 0
LayerCount: 2
Fore
SplineSet
60 45 m 2
 60 675 l 2
 60 704 74 722 102 722 c 0
 117 722 133 722 148 722 c 0
 173 722 194 714 194 677 c 2
 194 49 l 2
 194 22 192 2 149 0 c 1
 108 0 l 2
 82 0 60 5 60 45 c 2
EndSplineSet
EndChar

StartChar: m
Encoding: 109 109 120
Width: 866
Flags: HW
TeX: 458 0
HStem: -0 21G<94 170 391 479.5 692 779.5> 396 73<254.831 393.949 559.236 733.379>
VStem: 59 137<4.10772 346.977 400 457.105> 364 137<5.93004 346.894> 670 136<3.96869 384.576>
AnchorPoint: "affricate-below" 866 -195 basechar 0
AnchorPoint: "affricate-above" 866 722 basechar 0
AnchorPoint: "below" 432 0 basechar 0
AnchorPoint: "above" 432 475 basechar 0
LayerCount: 2
Fore
SplineSet
59 45 m 2
 59 419 l 2
 59 461 86 463 104 463 c 2
 144 463 l 2
 162 463 190 463 190 420 c 2
 190 400 l 1
 208 417 256 469 353 469 c 0
 433 469 472 446 492 395 c 1
 508 414 558 469 658 469 c 0
 806 469 806 382 806 307 c 2
 806 45 l 2
 806 20 799 0 760 -0 c 2
 716 -0 l 2
 668 0 671 31 670 47 c 1
 670 319 l 2
 670 357 669 396 611 396 c 0
 552 396 517 350 506 313 c 0
 501 296 501 278 501 261 c 2
 501 54 l 1
 501 54 502 0 457 -0 c 2
 411 -0 l 2
 371 0 364 20 364 45 c 2
 364 323 l 2
 364 372 353 396 306 396 c 0
 253 396 196 355 196 269 c 2
 196 45 l 2
 196 21 189 0 151 -0 c 0
 136 0 121 0 106 -0 c 0
 82 0 59 6 59 45 c 2
EndSplineSet
EndChar

StartChar: n
Encoding: 110 110 121
Width: 561
Flags: HW
TeX: 458 0
HStem: -0 21G<94.5 173 390.5 477.5> 396 73<253.581 427.175>
VStem: 59 137<6.73599 347.523 400 457.105> 364 136<3.77809 387.272>
AnchorPoint: "affricate-below" 561 -195 basechar 0
AnchorPoint: "affricate-above" 561 722 basechar 0
AnchorPoint: "below" 280 0 basechar 0
AnchorPoint: "above" 280 475 basechar 0
LayerCount: 2
Fore
SplineSet
59 45 m 2
 59 418 l 2
 59 460 85 463 104 463 c 2
 144 463 l 2
 162 463 190 463 190 420 c 2
 190 400 l 1
 225 435 271 469 352 469 c 0
 500 469 500 380 500 308 c 2
 500 44 l 2
 500 28 498 0 457 -0 c 2
 410 -0 l 2
 371 0 364 19 364 44 c 2
 364 318 l 2
 364 355 364 396 305 396 c 0
 243 396 211 346 202 315 c 0
 197 297 196 279 196 261 c 2
 196 53 l 1
 196 53 196 0 150 -0 c 2
 106 -0 l 2
 83 0 59 6 59 45 c 2
EndSplineSet
EndChar

StartChar: o
Encoding: 111 111 122
Width: 550
Flags: HW
TeX: 458 0
HStem: -11 78<205.188 343.8> 402 73<204.616 341.611>
VStem: 30 137<107.969 347.594> 381 137<105.859 349.401>
AnchorPoint: "ogonek" 275 0 basechar 0
AnchorPoint: "affricate-below" 550 -195 basechar 0
AnchorPoint: "affricate-above" 550 722 basechar 0
AnchorPoint: "below" 275 0 basechar 0
AnchorPoint: "above" 259 475 basechar 0
LayerCount: 2
Fore
SplineSet
30 224 m 0
 30 424 146 475 259 475 c 0
 356 475 518 465 518 220 c 0
 518 35 398 -11 275 -11 c 0
 146 -11 30 36 30 224 c 0
167 214 m 1
 169 155 170 67 274 67 c 0
 383 67 380 161 381 228 c 1
 381 255 l 1
 380 313 380 402 273 402 c 0
 165 402 167 310 167 241 c 2
 167 214 l 1
EndSplineSet
EndChar

StartChar: p
Encoding: 112 112 123
Width: 561
Flags: HW
TeX: 458 194
HStem: -195 21G<81 165> -11 73<221.188 338.353> 391 78<232.762 345.192> 438 20G<85 155.5>
VStem: 60 137<-191.162 26 79.207 373.032> 386 137<113.426 345>
AnchorPoint: "affricate-below" 561 -195 basechar 0
AnchorPoint: "affricate-above" 561 722 basechar 0
AnchorPoint: "below" 291 -195 basechar 0
AnchorPoint: "above" 291 475 basechar 0
LayerCount: 2
Fore
SplineSet
60 -149 m 2
 60 412 l 2
 60 435 65 458 105 458 c 0xdc
 119 458 133 458 147 458 c 0xdc
 164 458 185 457 193 427 c 1
 243 458 296 469 340 469 c 0xec
 440 469 492 412 512 335 c 0
 521 299 523 265 523 224 c 0
 522 35 411 -11 309 -11 c 0
 261 -11 229 3 197 26 c 1
 197 -147 l 2
 197 -186 180 -195 150 -195 c 2
 104 -195 l 2
 58 -195 60 -160 60 -149 c 2
197 100 m 1
 206 91 227 62 273 62 c 0xec
 306 62 340 75 360 106 c 0
 385 145 386 192 386 230 c 2
 386 242 l 2
 386 318 365 391 284 391 c 0
 238 391 214 370 197 358 c 1
 197 100 l 1
EndSplineSet
EndChar

StartChar: q
Encoding: 113 113 124
Width: 561
Flags: HW
TeX: 458 194
HStem: -195 21G<384 476> -11 73<214.268 326.809> 391 78<218.723 332.276>
VStem: 36 137<109.33 340.717> 365 134<-191.145 34 90.2005 365.714 422 465.119>
AnchorPoint: "affricate-below" 561 -195 basechar 0
AnchorPoint: "affricate-above" 561 722 basechar 0
AnchorPoint: "below" 268 -195 basechar 0
AnchorPoint: "above" 268 475 basechar 0
LayerCount: 2
Fore
SplineSet
36 229 m 0
 36 416 138 469 246 469 c 0
 318 469 351 434 365 422 c 1
 365 439 366 469 407 469 c 2
 457 469 l 2
 478 469 499 460 499 425 c 2
 499 -146 l 2
 499 -167 498 -195 454 -195 c 2
 407 -195 l 2
 361 -195 362 -160 362 -147 c 2
 362 34 l 1
 322 3 288 -11 238 -11 c 0
 157 -11 36 20 36 229 c 0
173 228 m 0
 173 140 192 62 274 62 c 0
 329 62 356 104 365 116 c 1
 365 315 l 2
 365 356 328 391 284 391 c 0
 190 391 173 307 173 228 c 0
EndSplineSet
EndChar

StartChar: r
Encoding: 114 114 125
Width: 372
Flags: HW
TeX: 458 0
ItalicCorrection: 15
HStem: -0 21G<84.5 156.5> 373 96<272.523 356>
VStem: 60 134<6.60218 303.695 388 449.491>
AnchorPoint: "affricate-below" 372 -195 basechar 0
AnchorPoint: "affricate-above" 372 722 basechar 0
AnchorPoint: "below" 126 0 basechar 0
AnchorPoint: "above" 214 475 basechar 0
LayerCount: 2
Fore
SplineSet
60 43 m 2
 60 418 l 2
 60 461 85 463 106 463 c 0
 117 463 128 463 139 463 c 0
 164 463 168 461 179 450 c 1
 188 439 188 438 189 388 c 1
 242 462 317 469 335 469 c 2
 336 469 l 2
 354 469 356 461 356 447 c 2
 356 391 l 2
 356 380 355 379 351 373 c 1
 339 364 321 369 288 358 c 0
 245 343 207 308 197 263 c 0
 194 250 194 238 194 225 c 2
 194 50 l 2
 194 22 192 19 176 6 c 1
 166 1 165 0 148 -0 c 2
 105 -0 l 2
 64 0 60 24 60 43 c 2
EndSplineSet
EndChar

StartChar: s
Encoding: 115 115 126
Width: 422
Flags: HW
TeX: 458 0
HStem: -11 79<130.379 285.987> 402 73<146.019 300.343>
VStem: 36 99<319.868 391.482> 296 100<80.3243 158.53>
AnchorPoint: "affricate-below" 422 -195 basechar 0
AnchorPoint: "affricate-above" 422 722 basechar 0
AnchorPoint: "below" 216 0 basechar 0
AnchorPoint: "above" 204 475 basechar 0
LayerCount: 2
Fore
SplineSet
31 50 m 0
 31 59 35 76 43 120 c 0
 44 127 45 143 57 143 c 0
 75 143 111 68 218 68 c 0
 263 68 296 79 296 121 c 0
 296 183 197 175 140 196 c 0
 103 210 36 250 36 331 c 0
 36 446 120 473 204 475 c 1
 230 475 l 1
 277 474 315 465 352 450 c 0
 370 443 376 440 376 426 c 0
 376 415 372 397 366 363 c 1
 363 352 359 348 354 348 c 0
 333 348 306 402 209 402 c 0
 168 402 135 392 135 354 c 0
 135 295 246 307 308 275 c 0
 336 261 396 221 396 140 c 0
 396 19 315 -11 216 -11 c 0
 127 -11 62 21 37 37 c 1
 33 42 l 1
 32 45 31 47 31 50 c 0
EndSplineSet
EndChar

StartChar: t
Encoding: 116 116 127
Width: 404
Flags: HW
TeX: 589 0
HStem: -11 78<170 316.092> 385 73<24.035 86 218 350.309>
VStem: 86 132<72.252 385 458 583.397>
AnchorPoint: "affricate-below" 404 -195 basechar 0
AnchorPoint: "affricate-above" 404 722 basechar 0
AnchorPoint: "below" 166 0 basechar 0
AnchorPoint: "above" 152 589 basechar 0
LayerCount: 2
Fore
SplineSet
21 422 m 0
 21 433 25 458 65 458 c 2
 89 458 l 1
 89 544 l 2
 89 588 120 589 137 589 c 2
 173 589 l 2
 208 589 218 568 218 544 c 2
 218 458 l 1
 309 458 l 2
 349 458 354 430 354 421 c 0
 354 411 349 386 311 385 c 1
 218 385 l 1
 218 185 l 2
 218 176 217 168 217 159 c 0
 217 85 231 67 259 67 c 0
 306 67 336 102 349 102 c 0
 364 102 372 47 372 47 c 1
 372 21 264 -11 190 -11 c 0
 150 -11 112 6 95 61 c 0
 86 91 86 121 86 152 c 2
 86 385 l 1
 65 385 l 2
 25 385 21 411 21 422 c 0
EndSplineSet
EndChar

StartChar: u
Encoding: 117 117 128
Width: 561
Flags: HW
TeX: 458 0
HStem: -11 61<203.325 322.051> -0 21G<386.5 468> 438 20G<80.5 172.5 405 467.5>
VStem: 59 137<57.3204 453.726> 364 136<4.7946 44 94.1758 448.445>
AnchorPoint: "ogonek" 433 0 basechar 0
AnchorPoint: "affricate-below" 561 -195 basechar 0
AnchorPoint: "affricate-above" 561 722 basechar 0
AnchorPoint: "below" 280 0 basechar 0
AnchorPoint: "above" 280 475 basechar 0
LayerCount: 2
Fore
SplineSet
59 139 m 2
 59 414 l 2
 59 424 58 458 103 458 c 0
 118 458 134 458 149 458 c 0
 196 458 195 430 196 413 c 1
 196 147 l 2
 196 139 195 131 195 123 c 0
 195 67 201 50 259 50 c 0xb8
 298 50 364 72 364 181 c 2
 364 406 l 2
 364 436 366 437 377 449 c 1
 387 457 399 458 411 458 c 2
 455 458 l 2
 480 458 499 451 500 416 c 1
 500 43 l 2
 500 8 481 0 455 -0 c 2x78
 408 -0 l 2x78
 365 0 367 37 367 44 c 1
 318 -3 274 -11 219 -11 c 0
 65 -11 59 68 59 139 c 2
EndSplineSet
EndChar

StartChar: v
Encoding: 118 118 129
Width: 500
Flags: HW
TeX: 458 0
ItalicCorrection: 15
HStem: -0 21G<185.5 307> 438 20G<46.5 118 402 453>
DStem2: 250 113 33 402 0.307967 -0.951397<-365.768 0> 250 113 351 51 0.308965 0.951074<0 366.234>
AnchorPoint: "affricate-below" 500 -195 basechar 0
AnchorPoint: "affricate-above" 500 722 basechar 0
AnchorPoint: "below" 249 0 basechar 0
AnchorPoint: "above" 249 475 basechar 0
LayerCount: 2
Fore
SplineSet
25 430 m 0
 25 441 32 458 61 458 c 0
 72 458 83 458 94 458 c 0
 142 458 150 420 154 407 c 2
 250 113 l 1
 348 413 l 2
 362 458 394 458 410 458 c 2
 437 458 l 2
 469 458 470 441 472 432 c 1
 472 423 469 414 466 405 c 2
 351 51 l 2
 339 15 326 0 288 -0 c 2
 210 -0 l 2
 161 0 154 28 145 56 c 2
 33 402 l 2
 30 411 25 420 25 430 c 0
EndSplineSet
EndChar

StartChar: w
Encoding: 119 119 130
Width: 744
Flags: HW
TeX: 458 0
ItalicCorrection: 15
HStem: -0 21G<163.5 245.5 450 579> 438 20G<57 106.5 357.5 381.5 647.5 699>
DStem2: 150 410 28 411 0.268917 -0.963163<-51.6437 291.893> 513 114 616 57 0.269031 0.963131<0 358.581>
AnchorPoint: "affricate-below" 744 -195 basechar 0
AnchorPoint: "affricate-above" 744 722 basechar 0
AnchorPoint: "below" 372 0 basechar 0
AnchorPoint: "above" 371 475 basechar 0
LayerCount: 2
Fore
SplineSet
25 429 m 0
 25 456 52 458 62 458 c 2
 90 458 l 2
 123 458 139 448 150 410 c 0
 176 316 226 138 229 129 c 1
 236 158 245 186 309 414 c 0
 321 457 349 458 366 458 c 2
 370 458 l 2
 393 458 400 454 414 444 c 1
 423 429 l 1
 512 114 l 1
 513 114 l 1
 597 414 l 2
 609 458 640 458 655 458 c 2
 683 458 l 2
 715 458 719 438 719 429 c 0
 719 424 717 420 716 415 c 2
 616 57 l 2
 609 31 603 0 555 -0 c 2
 476 -0 l 2
 424 0 423 29 405 94 c 0
 355 274 355 298 352 321 c 1
 349 269 312 141 286 47 c 0
 277 15 263 0 228 0 c 2
 189 0 l 2
 138 0 133 34 126 60 c 2
 28 411 l 2
 26 417 25 423 25 429 c 0
EndSplineSet
EndChar

StartChar: x
Encoding: 120 120 131
Width: 500
Flags: HW
TeX: 458 0
HStem: -0 21G<50.5 124 372.5 456.5> 438 20G<53 130.5 357.5 434>
AnchorPoint: "affricate-below" 500 -195 basechar 0
AnchorPoint: "affricate-above" 500 722 basechar 0
AnchorPoint: "below" 249 0 basechar 0
AnchorPoint: "above" 249 475 basechar 0
LayerCount: 2
Fore
SplineSet
25 22 m 0
 25 34 24 30 143 177 c 0
 159 197 174 217 191 236 c 1
 177 255 162 272 43 413 c 0
 35 423 32 431 32 438 c 0
 32 451 45 458 61 458 c 2
 110 458 l 2
 151 458 146 454 246 327 c 1
 343 457 338 458 377 458 c 2
 426 458 l 2
 442 458 455 451 455 438 c 0
 455 431 452 423 444 413 c 0
 329 272 314 254 301 236 c 1
 318 217 432 81 464 42 c 0
 469 36 473 30 473 22 c 0
 473 16 470 0 443 -0 c 0
 426 0 409 0 392 -0 c 0
 353 0 360 1 246 164 c 1
 136 0 143 0 105 -0 c 0
 89 0 72 0 56 -0 c 0
 45 0 25 1 25 22 c 0
EndSplineSet
EndChar

StartChar: y
Encoding: 121 121 132
Width: 500
Flags: HW
TeX: 458 194
ItalicCorrection: 15
HStem: -206 86<54.7113 176.31> -193 96<47 109.958> 438 20G<59.5 103.5 385.5 452>
AnchorPoint: "affricate-below" 500 -195 basechar 0
AnchorPoint: "affricate-above" 500 722 basechar 0
AnchorPoint: "below" 251 -195 basechar 0
AnchorPoint: "above" 262 475 basechar 0
LayerCount: 2
Fore
SplineSet
30 433 m 0
 30 457 55 458 64 458 c 2
 98 458 l 2
 109 458 135 457 152 434 c 0
 158 427 254 234 269 137 c 1
 273 190 309 296 344 400 c 0
 356 433 362 458 409 458 c 2xa0
 437 458 l 2
 467 458 472 440 472 431 c 0
 472 425 470 418 468 412 c 2
 313 -39 l 2
 307 -56 301 -74 293 -90 c 0
 275 -126 225 -206 123 -206 c 0xa0
 105 -206 56 -202 47 -193 c 0
 42 -188 42 -188 37 -124 c 0
 36 -107 36 -105 42 -99 c 1
 47 -97 l 1
 51 -97 l 1x60
 66 -101 85 -120 126 -120 c 0
 189 -120 204 -56 220 -5 c 1
 221 2 219 8 216 14 c 2
 39 405 l 2
 35 414 30 423 30 433 c 0
EndSplineSet
EndChar

StartChar: z
Encoding: 122 122 133
Width: 476
Flags: HW
TeX: 458 0
HStem: -0 74<182 437.73> 383 75<48.6387 287>
DStem2: 54 92 182 74 0.622412 0.78269<65.5803 374.35>
AnchorPoint: "affricate-below" 476 -195 basechar 0
AnchorPoint: "affricate-above" 476 722 basechar 0
AnchorPoint: "below" 236 0 basechar 0
AnchorPoint: "above" 236 475 basechar 0
LayerCount: 2
Fore
SplineSet
30 41 m 0
 30 65 40 75 54 92 c 2
 287 385 l 1
 89 383 l 1
 50 384 45 410 45 421 c 0
 45 432 50 458 89 458 c 2
 398 458 l 2
 423 458 439 443 439 417 c 0
 439 393 429 384 415 367 c 2
 182 74 l 1
 399 76 l 1
 437 75 441 49 441 38 c 0
 441 27 437 0 398 -0 c 2
 74 -0 l 2
 59 0 31 3 30 41 c 0
EndSplineSet
EndChar

StartChar: braceleft
Encoding: 123 123 134
Width: 550
Flags: HW
TeX: 746 249
HStem: -250 73<360.92 493.918> 678 72<366.561 483 487 493.75>
VStem: 206 137<-158.291 167.297 332.976 655.541>
LayerCount: 2
Fore
SplineSet
55 236 m 2
 55 266 l 1
 56 294 72 283 109 291 c 0
 162 303 198 335 205 374 c 0
 207 383 206 393 206 402 c 2
 206 618 l 2
 206 729 339 750 431 750 c 0
 444 750 457 750 470 750 c 0
 495 750 494 746 494 702 c 0
 494 687 493 685 487 680 c 1
 483 678 l 1
 442 673 358 679 345 632 c 0
 343 624 343 615 343 606 c 2
 343 404 l 2
 343 359 339 290 211 250 c 1
 280 232 329 190 340 136 c 0
 343 123 343 109 343 96 c 2
 343 -113 l 2
 343 -135 346 -153 378 -165 c 0
 406 -176 431 -177 450 -177 c 0
 455 -177 459 -176 463 -176 c 0
 496 -176 494 -182 494 -215 c 2
 494 -225 l 2
 494 -247 487 -250 473 -250 c 2
 435 -250 l 2
 378 -250 227 -242 208 -141 c 0
 206 -131 206 -121 206 -111 c 2
 206 95 l 2
 206 107 207 119 204 130 c 0
 194 173 147 208 81 213 c 1
 65 215 l 1
 61 217 l 1
 57 222 l 1
 56 226 55 227 55 236 c 2
EndSplineSet
EndChar

StartChar: bar
Encoding: 124 124 135
Width: 305
Flags: HW
TeX: 746 249
VStem: 110 83<-243.469 743.282>
LayerCount: 2
Fore
SplineSet
110 -200 m 2
 110 700 l 2
 110 743 142 749 152 749 c 0
 163 749 193 744 193 700 c 2
 193 -201 l 2
 193 -244 162 -249 152 -249 c 0
 141 -249 110 -243 110 -200 c 2
EndSplineSet
EndChar

StartChar: braceright
Encoding: 125 125 136
Width: 550
Flags: HW
TeX: 746 249
HStem: -250 72<55.283 62 66 186.026> 676 74<55.375 186.151>
VStem: 206 137<-155.541 164.781 332.703 656.98>
LayerCount: 2
Fore
SplineSet
55 -202 m 2
 55 -187 56 -186 62 -180 c 1
 66 -178 l 1
 108 -173 193 -179 205 -132 c 0
 207 -124 206 -115 206 -106 c 2
 206 107 l 2
 206 197 282 232 338 250 c 1
 269 268 220 310 209 364 c 0
 206 377 206 391 206 404 c 2
 206 613 l 2
 206 635 202 653 171 665 c 0
 143 676 121 677 104 677 c 0
 94 677 86 676 79 676 c 0
 63 676 55 680 55 704 c 2
 55 717 l 1
 56 738 53 750 77 750 c 2
 96 750 l 1
 162 748 l 1
 342 733 343 644 343 611 c 2
 343 405 l 2
 343 393 342 381 345 370 c 0
 355 327 402 292 468 287 c 1
 484 285 l 1
 488 283 l 1
 492 278 l 1
 493 274 494 272 494 264 c 0
 494 254 494 244 494 234 c 0
 493 206 479 218 440 209 c 0
 400 200 354 174 345 126 c 0
 343 117 343 107 343 98 c 2
 343 -118 l 2
 343 -229 209 -250 117 -250 c 2
 77 -250 l 2
 56 -250 55 -241 55 -215 c 2
 55 -202 l 2
EndSplineSet
EndChar

StartChar: asciitilde
Encoding: 126 126 137
Width: 672
Flags: HW
TeX: 720 0
HStem: 582 73<372.898 492.752> 647 73<178.491 297.102>
VStem: 91 74<582.134 632.972> 506 73<669.81 720>
LayerCount: 2
Fore
SplineSet
91 601 m 0
 91 651 141 720 233 720 c 0x70
 331 720 381 655 439 655 c 0xb0
 467 655 500 670 506 700 c 0
 509 712 509 719 526 720 c 0
 537 720 548 720 559 720 c 0x70
 571 720 579 717 579 702 c 0
 579 652 531 582 437 582 c 0xb0
 339 582 289 647 231 647 c 0x70
 203 647 171 631 165 601 c 0
 161 583 158 582 134 582 c 0xb0
 127 582 120 582 113 582 c 0xb0
 100 582 91 585 91 601 c 0
EndSplineSet
EndChar

StartChar: Abreve
Encoding: 258 258 139
Width: 733
Flags: HW
TeX: 902 0
HStem: 0 21<63.5 145.5 572.5 654> 151 86<246 471> 674 20<300 436.5> 735 94<233.074 449.107>
VStem: 152 70<845.441 898.555> 455 75<842.857 897.99>
DStem2: 46 46 246 237 0.332164 0.943222<-9.00953 155.506 246.588 597.272> 479 634 359 569 0.331063 -0.943609<21.607 371.964 463.046 630.08>
AnchorPoint: "below" 366 0 basechar 0
AnchorPoint: "above" 366 905 basechar 0
LayerCount: 2
Fore
SplineSet
152 863 m 0
 152 894 177 902 188 902 c 0
 203 902 217 893 222 879 c 0
 229 862 215 829 336 829 c 0
 384 829 443 832 455 859 c 0
 457 865 460 902 494 902 c 0
 509 902 530 890 530 863 c 0
 530 812 486 735 340 735 c 0
 232 735 152 786 152 863 c 0
EndSplineSet
Refer: 76 65 S 1 0 0 1 -0 0 3
AlternateSubs2: "Stilistic set 01 subtable" Abreve.vn
AlternateSubs2: "Latin alternatives subtable" Abreve.vn
Substitution2: "Latin Vietnamese substitutions subtable" Abreve.vn
EndChar

StartChar: Aogonek
Encoding: 260 260 140
Width: 733
Flags: HW
TeX: 694 194
HStem: -217 87<607.546 708.375> -0 21G<75 143.5> 151 86<246 471> 674 20G<311 433>
VStem: 508 96<-124.22 -35.039>
DStem2: 47 48 216 151 0.332164 0.943222<-11.1534 153.288 244.37 595.054> 474 648 359 569 0.331334 -0.943513<36.4341 386.79 477.872 630.136>
AnchorPoint: "above" 370 717 basechar 0
LayerCount: 2
Fore
SplineSet
42 27 m 0
 42 34 45 41 47 48 c 2
 259 650 l 2
 274 691 297 694 325 694 c 2
 414 694 l 2
 452 694 466 672 474 648 c 2
 684 50 l 2
 687 43 690 36 690 28 c 0
 690 2 665 0 656 -0 c 2
 653 -0 l 2
 607 0 604 -50 604 -76 c 2
 604 -88 l 2
 604 -120 622 -130 647 -130 c 0
 677 -130 694 -119 708 -119 c 0
 732 -119 736 -168 736 -168 c 1
 736 -199 643 -217 614 -217 c 0
 548 -217 508 -174 508 -113 c 0
 508 -64 531 -25 562 10 c 1
 543 26 547 20 501 151 c 1
 216 151 l 1
 171 23 174 0 113 -0 c 2
 82 -0 l 2
 68 0 42 1 42 27 c 0
246 237 m 1
 471 237 l 1
 379 502 368 535 359 569 c 1
 346 523 284 347 246 237 c 1
EndSplineSet
Ligature2: "Latin ligatures subtable" A uni0328
EndChar

StartChar: Ccaron
Encoding: 268 268 142
Width: 703
Flags: HW
TeX: 902 0
HStem: -23 101<321.726 551.003> 616 101<320.36 529.542>
VStem: 60 142<210.622 485.246>
AnchorPoint: "below" 427 0 basechar 0
AnchorPoint: "above" 429 883 basechar 0
LayerCount: 2
Fore
SplineSet
248 890 m 0
 248 902 263 902 274 902 c 2
 300 902 l 1
 315 901 309 904 426 810 c 1
 530 894 530 895 541 900 c 1
 549 902 546 903 581 903 c 0
 591 903 604 901 604 890 c 0
 604 881 594 872 498 758 c 0
 480 737 478 735 464 735 c 2
 391 735 l 2
 374 735 370 740 362 748 c 0
 248 883 248 882 248 890 c 0
EndSplineSet
Refer: 78 67 S 1 0 0 1 0 -0 3
EndChar

StartChar: Dcaron
Encoding: 270 270 143
Width: 794
Flags: HW
TeX: 902 0
HStem: -0 86<230 486.547> 608 86<231 479.524>
VStem: 91 139<86 608> 593 139<198.965 487.577>
AnchorPoint: "below" 387 0 basechar 0
AnchorPoint: "above" 387 906 basechar 0
LayerCount: 2
Fore
SplineSet
151 890 m 0
 151 902 165 902 176 902 c 2
 203 902 l 1
 218 901 212 904 329 810 c 1
 433 894 433 895 444 900 c 1
 452 902 449 903 484 903 c 0
 494 903 507 901 507 890 c 0
 507 881 497 872 401 758 c 0
 383 737 380 735 366 735 c 2
 294 735 l 2
 277 735 273 740 265 748 c 0
 151 883 151 882 151 890 c 0
EndSplineSet
Refer: 79 68 S 1 0 0 1 0 -0 3
EndChar

StartChar: Ecaron
Encoding: 282 282 144
Width: 642
Flags: HW
TeX: 902 0
HStem: -0 107<233 591.062> 310 95<233 545.25> 586 105<233 576.381>
VStem: 91 142<107 310 405 590>
AnchorPoint: "below" 343 0 basechar 0
AnchorPoint: "above" 343 909 basechar 0
LayerCount: 2
Fore
SplineSet
141 890 m 0
 141 902 156 902 167 902 c 2
 193 902 l 1
 208 901 202 904 319 810 c 1
 423 894 423 895 434 900 c 1
 442 902 439 903 474 903 c 0
 484 903 497 901 497 890 c 0
 497 881 487 872 391 758 c 0
 373 737 371 735 357 735 c 2
 284 735 l 2
 267 735 263 740 255 748 c 0
 141 883 141 882 141 890 c 0
EndSplineSet
Refer: 80 69 S 1 0 0 1 0 -0 3
EndChar

StartChar: Eogonek
Encoding: 280 280 145
Width: 642
Flags: HW
TeX: 694 194
HStem: -217 86<431.632 531.296> 0 107<233 376 450.943 591.367> 310 95<233 545.25> 590 101<233 576.052>
VStem: 91 142<107 310 405 590> 330 96<-125.635 -35.9296>
AnchorPoint: "above" 333 717 basechar 0
LayerCount: 2
Fore
SplineSet
91 44 m 2
 91 646 l 2
 91 686 114 691 137 691 c 2
 529 691 l 2
 581 691 580 662 580 640 c 2
 580 633 l 2
 580 591 557 586 535 586 c 2
 233 590 l 1
 233 405 l 1
 498 405 l 2
 522 405 550 404 550 357 c 0
 550 311 518 310 505 310 c 2
 233 310 l 1
 233 107 l 1
 548 111 l 2
 571 111 595 105 595 65 c 0
 595 58 595 52 595 45 c 0
 595 1 567 0 549 -0 c 0
 530 0 511 0 492 -0 c 0
 449 0 426 -59 426 -88 c 0
 426 -116 443 -131 471 -131 c 0
 499 -131 518 -119 532 -119 c 0
 554 -119 558 -167 558 -167 c 1
 558 -170 558 -173 556 -178 c 1
 539 -200 470 -217 436 -217 c 0
 370 -217 330 -174 330 -114 c 0
 330 -69 352 -29 376 0 c 1
 137 0 l 2
 121 0 91 1 91 44 c 2
EndSplineSet
EndChar

StartChar: Gbreve
Encoding: 286 286 146
Width: 733
Flags: HW
TeX: 902 0
HStem: -22 100<319.205 520.363> 228 95<426.053 522> 616 101<318.325 533.259> 735 94<320.873 533.742>
VStem: 60 142<203.591 487.727> 238 70<845.441 898.555> 426 233<228.002 322.952> 522 137<85.1719 228> 540 75<843.436 897.99>
LayerCount: 2
Fore
SplineSet
238 863 m 0
 238 894 263 902 274 902 c 0
 289 902 303 893 308 879 c 0
 314 862 301 829 429 829 c 0
 466 829 529 833 540 859 c 0
 542 865 545 902 579 902 c 0
 594 902 615 890 615 863 c 0xfc80
 615 792 544 735 426 735 c 0xfe
 317 735 238 786 238 863 c 0
EndSplineSet
Refer: 82 71 S 1 0 0 1 -0 0 3
EndChar

StartChar: Lacute
Encoding: 313 313 147
Width: 580
Flags: HW
TeX: 863 0
HStem: 0 106<232 528.724> 674 20<117.5 197> 851 27<260.062 299.971>
VStem: 90 142<101 689.884>
LayerCount: 2
Fore
SplineSet
3 777 m 0
 3 782 7 786 10 789 c 0
 126 878 121 878 141 878 c 2
 280 878 l 2
 297 878 300 870 300 865 c 0
 300 856 290 853 287 851 c 0
 86 765 90 764 70 764 c 0
 53 764 37 764 20 764 c 1
 6 765 4 771 3 777 c 0
EndSplineSet
Refer: 87 76 S 1 0 0 1 -1 0 2
EndChar

StartChar: Lcaron
Encoding: 317 317 148
Width: 580
Flags: HW
TeX: 902 0
HStem: 0 106<233 529.724> 674 20<118.5 198>
VStem: 91 142<101 689.884> 268 132<658.831 789.33>
LayerCount: 2
Fore
SplineSet
268 681 m 0
 268 683 269 685 269 687 c 2
 269 743 l 2
 269 750 268 756 268 762 c 0
 268 787 278 790 291 790 c 2
 368 790 l 1
 398 789 400 784 400 771 c 2
 400 683 l 2
 400 663 399 664 337 599 c 0
 326 588 322 588 311 588 c 2
 291 588 l 2
 281 588 270 590 270 600 c 0
 270 609 282 628 299 658 c 1
 291 658 l 2
 278 658 268 660 268 681 c 0
EndSplineSet
Refer: 87 76 S 1 0 0 1 -0 0 3
EndChar

StartChar: Lslash
Encoding: 321 321 149
Width: 672
Flags: HW
TeX: 694 0
HStem: -0 105<325 621.674> 674 20G<209.5 303>
VStem: 183 142<101 244 350.89 369.717 478 689.583>
LayerCount: 2
Fore
SplineSet
74 262 m 0
 74 283 79 285 183 365 c 1
 183 649 l 2
 183 673 189 694 230 694 c 2
 280 694 l 2
 326 694 325 659 325 647 c 2
 325 478 l 1
 443 571 442 572 458 572 c 0
 485 572 508 534 508 517 c 0
 508 496 504 497 325 357 c 1
 325 101 l 1
 582 105 l 1
 584 105 l 2
 596 105 626 104 626 59 c 2
 626 52 l 1
 627 18 616 0 580 -0 c 2
 226 -0 l 2
 185 0 183 30 183 45 c 2
 183 244 l 1
 159 226 142 208 123 208 c 0
 101 208 74 241 74 262 c 0
EndSplineSet
EndChar

StartChar: Nacute
Encoding: 323 323 150
Width: 794
Flags: HW
TeX: 863 0
HStem: 0 21<114 190 542 665.5> 674 20<125.5 252 602.5 678.5> 851 27<521.062 560.971>
VStem: 91 123<4.12502 576> 579 123<118 689.875>
DStem2: 305 643 214 576 0.462681 -0.886525<17.2931 592.2>
LayerCount: 2
Fore
SplineSet
263 777 m 0
 263 782 267 786 270 789 c 0
 386 878 381 878 401 878 c 2
 541 878 l 2
 558 878 561 870 561 865 c 0
 561 856 551 853 548 851 c 0
 347 765 351 764 331 764 c 0
 314 764 297 764 280 764 c 1
 266 765 264 771 263 777 c 0
EndSplineSet
Refer: 89 78 S 1 0 0 1 0 0 3
EndChar

StartChar: Ncaron
Encoding: 327 327 151
Width: 794
Flags: HW
TeX: 902 0
HStem: -0 21<114 190 542 665.5> 674 20<125.5 252 602.5 678.5>
VStem: 91 123<4.12502 576> 579 123<118 689.875>
DStem2: 305 643 214 576 0.462681 -0.886525<17.2931 592.2>
LayerCount: 2
Fore
SplineSet
219 890 m 0
 219 902 233 902 244 902 c 2
 271 902 l 1
 286 901 280 904 397 810 c 1
 501 894 501 895 512 900 c 1
 520 902 516 903 551 903 c 0
 561 903 575 901 575 890 c 0
 575 881 564 872 468 758 c 0
 450 737 448 735 434 735 c 2
 362 735 l 2
 345 735 341 740 333 748 c 0
 219 883 219 882 219 890 c 0
EndSplineSet
Refer: 89 78 S 1 0 0 1 0 -0 3
EndChar

StartChar: Eng
Encoding: 330 330 152
Width: 825
Flags: HW
TeX: 694 0
HStem: -22 100<505.709 605.233> -0 21G<125.5 210> 614 133<325.552 526.762> 674 20G<112.5 194.5>
VStem: 91 142<4.54216 537.873> 621 142<95.3991 531.154>
LayerCount: 2
Fore
SplineSet
91 46 m 2
 91 648 l 2
 91 663 91 694 134 694 c 2
 183 694 l 2x5c
 206 694 208 693 221 686 c 1
 275 724 350 747 429 747 c 0
 589 747 763 647 763 456 c 2
 763 154 l 2
 763 13 674 -22 601 -22 c 0
 545 -22 494 -4 462 13 c 0
 449 20 443 22 443 35 c 0
 443 40 455 125 465 136 c 1
 470 139 l 1
 473 139 l 1
 481 138 485 128 488 122 c 0
 509 84 546 78 560 78 c 0xac
 584 78 621 89 621 155 c 2
 621 454 l 2
 621 582 488 614 425 614 c 0
 310 614 233 539 233 482 c 2
 233 49 l 1
 232 31 234 0 186 -0 c 2x6c
 135 -0 l 2
 116 0 91 4 91 46 c 2
EndSplineSet
EndChar

StartChar: Ohungarumlaut
Encoding: 336 336 153
Width: 794
Flags: HW
TeX: 863 0
HStem: -22 81<306.497 482.72> 639 78<304.484 488.692> 764 114<312.479 350.67 409 418 468 513.813 514.417 527.783>
VStem: 60 142<182.051 506.286> 590 142<184.135 504.694>
AnchorPoint: "below" 397 0 basechar 0
AnchorPoint: "above" 395 858 basechar 0
LayerCount: 2
Fore
SplineSet
217 776 m 0
 217 783 224 789 229 793 c 0
 340 878 335 878 357 878 c 2
 491 878 l 2
 507 878 510 875 514 872 c 1
 523 877 525 878 540 878 c 2
 673 878 l 2
 684 878 695 878 697 865 c 1
 694 852 701 858 501 772 c 0
 484 765 480 764 468 764 c 2
 418 764 l 2
 409 764 400 767 400 777 c 0
 400 786 412 793 468 836 c 1
 306 767 304 764 290 764 c 2
 250 764 l 2
 233 764 217 763 217 776 c 0
EndSplineSet
Refer: 90 79 S 1 0 0 1 0 0 3
EndChar

StartChar: Racute
Encoding: 340 340 154
Width: 703
Flags: HW
TeX: 863 0
HStem: 0 21<114.5 206.5 547 626> 311 72<230 360.107> 608 86<231 465.887> 851 27<459.068 499.968>
VStem: 91 139<4.47779 311 383 608> 507 134<421.998 570.191>
DStem2: 481 320 350 311 0.509462 -0.860493<0 314.792>
AnchorPoint: "below" 342 0 basechar 0
AnchorPoint: "above" 342 881 basechar 0
LayerCount: 2
Fore
SplineSet
202 777 m 0
 202 782 206 786 209 789 c 0
 325 878 320 878 340 878 c 2
 479 878 l 2
 496 878 500 870 500 865 c 0
 500 856 489 853 486 851 c 0
 285 765 290 764 270 764 c 0
 253 764 236 764 219 764 c 1
 205 765 203 771 202 777 c 0
EndSplineSet
Refer: 93 82 S 1 0 0 1 0 0 3
EndChar

StartChar: Rcaron
Encoding: 344 344 155
Width: 703
Flags: HW
TeX: 902 0
HStem: -0 21<114.5 206.5 547 626> 311 72<230 360.107> 608 86<231 465.887>
VStem: 91 139<4.47779 311 383 608> 507 134<421.998 570.191>
DStem2: 481 320 350 311 0.509462 -0.860493<0 314.792>
AnchorPoint: "below" 342 0 basechar 0
AnchorPoint: "above" 342 906 basechar 0
LayerCount: 2
Fore
SplineSet
151 890 m 0
 151 902 166 902 177 902 c 2
 203 902 l 1
 218 901 213 904 330 810 c 1
 434 894 434 895 445 900 c 1
 453 902 449 903 484 903 c 0
 494 903 507 901 507 890 c 0
 507 881 497 872 401 758 c 0
 383 737 381 735 367 735 c 2
 294 735 l 2
 277 735 274 740 266 748 c 0
 152 883 151 882 151 890 c 0
EndSplineSet
Refer: 93 82 S 1 0 0 1 0 -0 3
EndChar

StartChar: Sacute
Encoding: 346 346 156
Width: 611
Flags: HW
TeX: 863 0
HStem: -22 108<189.642 387.539> 613 104<216.615 403.313> 851 27<413.068 453.968>
VStem: 60 126<475.753 584.185> 423 126<118.6 241.37>
AnchorPoint: "below" 305 0 basechar 0
AnchorPoint: "above" 306 858 basechar 0
LayerCount: 2
Fore
SplineSet
156 777 m 0
 156 782 160 786 163 789 c 0
 279 878 274 878 294 878 c 2
 433 878 l 2
 450 878 454 870 454 865 c 0
 454 856 443 853 440 851 c 0
 239 765 244 764 224 764 c 0
 207 764 190 764 173 764 c 1
 159 765 157 771 156 777 c 0
EndSplineSet
Refer: 94 83 S 1 0 0 1 0 0 3
EndChar

StartChar: Scaron
Encoding: 352 352 157
Width: 611
Flags: HW
TeX: 902 0
HStem: -22 108<189.642 387.539> 613 104<216.615 403.313>
VStem: 60 126<475.753 584.185> 423 126<118.6 241.37>
AnchorPoint: "below" 305 0 basechar 0
AnchorPoint: "above" 306 883 basechar 0
LayerCount: 2
Fore
SplineSet
126 890 m 0
 126 902 141 902 152 902 c 2
 178 902 l 1
 193 901 188 904 305 810 c 1
 409 894 409 895 420 900 c 1
 428 902 424 903 459 903 c 0
 469 903 482 901 482 890 c 0
 482 881 472 872 376 758 c 0
 358 737 356 735 342 735 c 2
 269 735 l 2
 252 735 249 740 241 748 c 0
 127 883 126 882 126 890 c 0
EndSplineSet
Refer: 94 83 S 1 0 0 1 0 -0 3
EndChar

StartChar: Scedilla
Encoding: 350 350 158
Width: 611
Flags: HW
TeX: 694 170
HStem: -193 170<261.002 283.998> -22 108<189.863 387.539> 613 104<216.435 405.211>
VStem: 60 125<476.156 583.082> 180 159 423 126<118.6 241.376>
DStem2: 245 450 231 305 0.960954 -0.276709<-53.704 216.826>
LayerCount: 2
Fore
SplineSet
49 63 m 0
 49 71 52 87 63 147 c 0
 67 169 72 177 79 177 c 0
 102 177 152 86 309 86 c 0
 365 86 423 106 423 184 c 0
 423 237 380 263 363 271 c 0
 339 283 323 282 231 305 c 0
 161 322 60 387 60 509 c 0
 60 588 88 717 306 717 c 0
 418 717 506 671 510 660 c 0
 511 658 511 656 511 652 c 0
 511 639 506 610 493 548 c 1
 490 540 487 537 483 537 c 0
 456 537 439 613 295 613 c 0xf4
 203 613 185 560 185 529 c 0
 185 482 226 458 245 450 c 0
 280 435 342 428 386 414 c 0
 463 389 549 317 549 199 c 0
 549 90 500 -22 305 -22 c 0
 173 -22 58 39 51 54 c 0
 50 58 49 59 49 63 c 0
EndSplineSet
Refer: 23 184 S 1 0 0 1 61 0 2
EndChar

StartChar: Tcaron
Encoding: 356 356 159
Width: 733
Flags: HW
TeX: 902 0
HStem: -0 21<316 415> 584 105<43.4844 295 437 688.688>
VStem: 295 142<3.89841 587>
AnchorPoint: "below" 366 0 basechar 0
AnchorPoint: "above" 366 912 basechar 0
LayerCount: 2
Fore
SplineSet
188 890 m 0
 188 902 203 902 214 902 c 2
 240 902 l 1
 255 901 249 904 366 810 c 1
 470 894 470 895 481 900 c 1
 489 902 486 903 521 903 c 0
 531 903 544 901 544 890 c 0
 544 881 534 872 438 758 c 0
 420 737 418 735 404 735 c 2
 331 735 l 2
 314 735 310 740 302 748 c 0
 188 883 188 882 188 890 c 0
EndSplineSet
Refer: 95 84 S 1 0 0 1 0 -0 3
EndChar

StartChar: Tcommaaccent
Encoding: 354 354 160
Width: 733
Flags: HW
TeX: 694 170
HStem: -43 20G<341.5 381> 0 21<316 415> 584 105<43.4844 295 437 688.688>
VStem: 295 142<3.89841 587>
LayerCount: 2
Fore
SplineSet
240 -184 m 1
 238 -172 253 -151 322 -43 c 0
 328 -34 334 -23 349 -23 c 2
 375 -23 l 2
 387 -23 401 -25 401 -37 c 0
 401 -44 405 -34 346 -175 c 0
 340 -190 336 -192 321 -193 c 1
 257 -193 l 1
 247 -192 244 -190 242 -188 c 2
 240 -184 l 1
EndSplineSet
Refer: 95 84 S 1 0 0 1 0 0 3
EndChar

StartChar: Uhungarumlaut
Encoding: 368 368 161
Width: 764
Flags: HW
TeX: 863 0
HStem: -22 87<292.933 478.689> 674 20<114 196.5 576 645.5> 764 114<297.479 335.67 394 403 453 498.813 499.417 512.789>
VStem: 91 142<123.76 689.854> 537 134<122.771 690.232>
AnchorPoint: "below" 383 0 basechar 0
AnchorPoint: "above" 381 881 basechar 0
LayerCount: 2
Fore
SplineSet
202 776 m 0
 202 783 209 789 214 793 c 0
 325 878 320 878 342 878 c 2
 476 878 l 2
 492 878 495 875 499 872 c 1
 508 877 510 878 525 878 c 2
 659 878 l 2
 670 878 681 878 683 865 c 1
 680 852 686 858 486 772 c 0
 469 765 465 764 453 764 c 2
 403 764 l 2
 394 764 385 767 385 777 c 0
 385 786 397 793 453 836 c 1
 291 767 289 764 275 764 c 2
 235 764 l 2
 218 764 202 763 202 776 c 0
EndSplineSet
Refer: 96 85 S 1 0 0 1 0 0 3
EndChar

StartChar: Uring
Encoding: 366 366 162
Width: 764
Flags: HW
TeX: 902 0
HStem: -22 87<292.933 478.689> 662 73<328.594 436.859> 674 20<114 196.5 576 645.5> 830 72<326.351 438.799>
VStem: 91 142<123.76 689.854> 261 61<740.821 824.007> 444 62<740.778 824.14> 537 134<122.771 690.232>
LayerCount: 2
Fore
SplineSet
261 784 m 0
 261 845 285 902 384 902 c 0
 453 902 506 872 506 781 c 0
 506 720 481 662 382 662 c 0
 313 662 261 693 261 784 c 0
322 783 m 0xdf
 322 739 344 735 380 735 c 2
 386 735 l 2
 417 735 444 737 444 782 c 0
 444 826 422 830 386 830 c 1
 352 829 322 831 322 783 c 0xdf
EndSplineSet
Refer: 96 85 S 1 0 0 1 -0 0 3
EndChar

StartChar: Ydieresis
Encoding: 376 376 163
Width: 733
Flags: HW
TeX: 902 0
ItalicCorrection: 27
HStem: 0 21<319 403> 674 20<52.5 153.5 599.5 681> 760 142<192.412 326.072 405.953 539.383>
VStem: 188 142<763.77 898.295> 296 139<3.53754 278> 402 142<764.356 898.386>
DStem2: 373 403 440 283 0.575322 0.817927<0 369.469>
AnchorPoint: "below" 366 0 basechar 0
AnchorPoint: "above" 366 906 basechar 0
LayerCount: 2
Fore
SplineSet
188 807 m 0
 188 823 188 839 188 855 c 0
 188 904 216 901 234 902 c 1
 284 902 l 2
 312 902 330 893 330 857 c 2
 330 803 l 2xf0
 330 758 294 761 285 760 c 1
 233 760 l 2
 208 760 188 768 188 807 c 0
402 805 m 2
 402 858 l 2
 402 902 432 903 449 903 c 0
 454 903 459 902 464 902 c 2
 498 902 l 2
 527 902 544 893 544 855 c 2
 544 806 l 2
 544 760 512 761 499 760 c 1xe4
 448 760 l 2
 425 760 402 766 402 805 c 2
EndSplineSet
Refer: 100 89 S 1 0 0 1 0 0 3
EndChar

StartChar: Zacute
Encoding: 377 377 164
Width: 672
Flags: HW
TeX: 863 0
HStem: 0 104<235 612.262> 598 96<79.0936 436> 851 27<474.068 513.971>
DStem2: 75 100 235 101 0.586914 0.809649<94.7159 615.081>
AnchorPoint: "below" 338 0 basechar 0
AnchorPoint: "above" 338 881 basechar 0
LayerCount: 2
Fore
SplineSet
217 777 m 0
 217 782 221 786 224 789 c 0
 340 878 335 878 355 878 c 2
 494 878 l 2
 511 878 514 870 514 865 c 0
 514 856 504 853 501 851 c 0
 300 765 305 764 285 764 c 0
 268 764 251 764 234 764 c 1
 220 765 218 771 217 777 c 0
EndSplineSet
Refer: 101 90 S 1 0 0 1 0 0 3
EndChar

StartChar: Zcaron
Encoding: 381 381 165
Width: 672
Flags: HW
TeX: 902 0
HStem: -0 104<235 612.262> 598 96<79.0936 436>
DStem2: 75 100 235 101 0.586914 0.809649<94.7159 615.081>
AnchorPoint: "below" 338 0 basechar 0
AnchorPoint: "above" 338 906 basechar 0
LayerCount: 2
Fore
SplineSet
163 890 m 0
 163 902 178 902 189 902 c 2
 215 902 l 1
 230 901 224 904 341 810 c 1
 445 894 446 895 457 900 c 1
 465 902 461 903 496 903 c 0
 506 903 519 901 519 890 c 0
 519 881 509 872 413 758 c 0
 395 737 393 735 379 735 c 2
 306 735 l 2
 289 735 286 740 278 748 c 0
 164 883 163 882 163 890 c 0
EndSplineSet
Refer: 101 90 S 1 0 0 1 0 -0 3
EndChar

StartChar: IJ
Encoding: 306 306 167
Width: 814
Flags: HW
TeX: 694 0
HStem: -22 100<417.56 561.752> 0 21<94 162.5> 674 20G<88 167.5 620.5 698.5>
VStem: 60 142<3.82324 689.884> 583 139<100.607 689.484>
LayerCount: 2
Fore
SplineSet
341 36 m 2
 341 36 352 130 364 137 c 0
 366 138 367 139 369 139 c 0
 386 139 407 78 490 78 c 0
 582 78 583 138 583 154 c 0
 583 160 582 166 582 172 c 2
 582 648 l 2
 582 695 613 693 628 694 c 1xb8
 675 694 l 2
 722 694 721 663 721 647 c 2
 721 173 l 2
 721 167 722 160 722 154 c 0
 722 13 615 -22 529 -22 c 0
 464 -22 367 2 344 25 c 0
 342 28 341 32 341 36 c 2
EndSplineSet
Refer: 84 73 S 1 0 0 1 -31 0 2
Ligature2: "Latin Dutch ligatures subtable" I J
EndChar

StartChar: dcroat
Encoding: 273 273 169
Width: 561
Flags: HW
TeX: 720 0
HStem: -11 73<208.904 327.66> -0 21G<392 462.5> 396 73<213.81 339.135> 551 73<162.844 365 499 616.919> 702 20G<390 478.5>
VStem: 36 137<101.8 355.56> 365 134<87.9704 379.628 433 551 624 717.844>
LayerCount: 2
Fore
SplineSet
36 239 m 0
 39 417 135 469 240 469 c 0
 290 469 329 456 365 433 c 1
 365 551 l 1
 206 551 l 2
 167 551 160 572 160 587 c 0
 160 602 167 624 207 624 c 2
 365 624 l 1
 365 672 l 2
 365 698 368 722 412 722 c 2
 456 722 l 2
 501 722 499 685 499 672 c 2
 499 624 l 1
 575 624 l 2
 616 624 620 597 620 587 c 0
 620 576 615 551 575 551 c 2
 499 551 l 1
 499 46 l 2
 499 2 472 0 453 -0 c 2
 407 -0 l 2x7e
 377 0 369 11 362 32 c 1
 326 6 290 -11 235 -11 c 0
 155 -11 75 23 47 130 c 0
 36 172 36 206 36 239 c 0
173 221 m 0
 173 150 175 62 274 62 c 0
 317 62 362 91 362 121 c 2
 362 366 l 1
 355 371 331 396 284 396 c 0
 174 396 173 303 173 242 c 0xbe
 173 235 173 228 173 221 c 0
EndSplineSet
AlternateSubs2: "Stilistic set 01 subtable" dcroat.vn
AlternateSubs2: "Latin alternatives subtable" dcroat.vn
Substitution2: "Latin Vietnamese substitutions subtable" dcroat.vn
EndChar

StartChar: section
Encoding: 167 167 170
Width: 533
Flags: HW
TeX: 720 194
HStem: -206 73<167.095 319.61> 660 73<210.312 353.963>
VStem: 75 101<227.981 334.783 516.405 623.513> 355 101<-96.8047 11.6504 192.518 299.721>
LayerCount: 2
Fore
SplineSet
49 -118 m 0
 49 -115 57 -67 62 -41 c 0
 64 -30 68 -28 70 -26 c 1
 75 -25 l 1
 91 -27 90 -44 119 -75 c 0
 133 -90 176 -133 261 -133 c 0
 329 -133 355 -70 355 -33 c 0
 355 29 269 39 208 73 c 0
 123 120 75 190 75 269 c 0
 75 293 80 356 147 406 c 1
 110 441 75 491 75 557 c 0
 75 656 159 733 269 733 c 0
 328 733 384 719 439 679 c 0
 447 673 451 670 451 660 c 0
 451 649 447 630 439 587 c 0
 437 576 433 575 431 573 c 1
 426 571 l 1
 418 572 418 573 408 587 c 0
 391 611 353 660 270 660 c 0
 202 660 176 599 176 561 c 0
 176 498 263 488 327 452 c 0
 379 423 456 359 456 258 c 0
 456 203 431 155 385 121 c 1
 427 81 456 31 456 -30 c 0
 456 -123 379 -206 262 -206 c 0
 200 -206 143 -193 84 -154 c 0
 48 -130 49 -125 49 -118 c 0
176 272 m 0
 176 213 251 201 313 171 c 1
 348 201 355 234 355 254 c 0
 355 316 277 327 218 357 c 1
 178 324 176 284 176 272 c 0
EndSplineSet
EndChar

StartChar: abreve
Encoding: 259 259 171
Width: 525
Flags: HW
TeX: 666 0
HStem: -11 73<128 280.881> 0 21<355 439> 232 59<219.447 328> 405 70<159.632 308.344> 553 94<122.452 425.719>
VStem: 30 131<82.0559 188.032> 328 136<4.81284 40 94.1523 232 291 387.448>
AnchorPoint: "below" 257 0 basechar 0
AnchorPoint: "above" 257 646 basechar 0
LayerCount: 2
Fore
SplineSet
86 628 m 0
 86 648 99 666 121 666 c 0
 153 666 118 647 241 647 c 2
 262 647 l 2
 408 647 388 651 410 662 c 0
 415 665 420 666 426 666 c 0
 448 666 462 647 462 628 c 0
 462 556 352 553 299 553 c 2x3e
 264 553 l 2
 201 553 86 553 86 628 c 0
EndSplineSet
Refer: 108 97 S 1 0 0 1 -0 0 3
AlternateSubs2: "Stilistic set 01 subtable" abreve.vn
AlternateSubs2: "Latin alternatives subtable" abreve.vn
Substitution2: "Latin Vietnamese substitutions subtable" abreve.vn
EndChar

StartChar: aogonek
Encoding: 261 261 172
Width: 525
Flags: HW
TeX: 458 194
HStem: -217 85<363.642 470.714> -11 73<128 280.881> 232 59<219.447 328> 405 70<161.153 309.159>
VStem: 30 131<82.0559 188.058> 266 93<-126.534 -46.2622> 328 136<94.1523 232 291 386.45>
AnchorPoint: "above" 260 475 basechar 0
LayerCount: 2
Fore
SplineSet
30 137 m 0
 30 273 239 291 328 291 c 1
 328 312 l 2
 328 359 320 405 257 405 c 0
 144 405 113 338 90 336 c 1
 86 337 l 1
 83 340 l 1
 75 351 72 417 72 417 c 1
 72 429 77 433 98 442 c 0
 172 474 227 475 260 475 c 0
 377 475 464 442 464 308 c 2
 464 43 l 1xfa
 463 -3 433 5 415 -6 c 0
 381 -26 359 -64 359 -92 c 0
 359 -115 375 -132 407 -132 c 0
 439 -132 457 -120 469 -120 c 0
 487 -120 494 -175 494 -175 c 1
 494 -187 483 -191 473 -195 c 0
 455 -203 415 -217 376 -217 c 0
 311 -217 266 -177 266 -118 c 0xfc
 266 -63 302 -20 341 11 c 1
 335 18 331 22 330 40 c 1
 308 23 258 -11 176 -11 c 0
 80 -11 30 69 30 137 c 0
161 137 m 0
 161 101 187 62 230 62 c 0xfa
 263 62 328 80 328 154 c 2
 328 232 l 1
 267 227 161 215 161 137 c 0
EndSplineSet
EndChar

StartChar: ccaron
Encoding: 269 269 174
Width: 489
Flags: HW
TeX: 666 0
HStem: -11 78<211.236 372.03> 397 78<213.366 373.56> 617 34<149.211 401.06>
VStem: 36 137<110.732 349.703>
AnchorPoint: "below" 274 0 basechar 0
AnchorPoint: "above" 280 646 basechar 0
LayerCount: 2
Fore
SplineSet
103 654 m 1
 105 665 112 666 123 666 c 2
 149 666 l 2
 174 666 261 651 274 651 c 0
 296 651 353 666 418 666 c 2
 426 666 l 2
 442 666 443 661 445 658 c 1
 446 654 l 1
 445 649 l 1
 441 643 444 641 322 618 c 1
 302 617 l 1
 248 617 l 1
 228 618 l 1
 108 643 106 639 103 654 c 1
EndSplineSet
Refer: 110 99 S 1 0 0 1 0 0 3
EndChar

StartChar: dcaron
Encoding: 271 271 175
Width: 732
Flags: HW
TeX: 720 0
HStem: -11 73<208.904 327.66> 0 21<399 475> 396 73<213.81 339.135> 702 20<389.5 472.5>
VStem: 36 137<101.8 355.56> 362 137<84.5439 381.58 433 716.757> 524 132<620.831 751.261>
LayerCount: 2
Fore
SplineSet
524 643 m 2
 524 724 l 2
 524 749 533 752 546 752 c 2
 623 752 l 1
 653 751 655 746 655 733 c 2
 655 724 l 2
 655 722 656 719 656 717 c 2
 656 645 l 2
 656 625 654 626 592 561 c 0
 581 550 577 550 566 550 c 2x3e
 546 550 l 2
 536 550 526 552 526 562 c 0
 526 571 538 590 555 620 c 1
 547 620 l 2
 534 620 524 622 524 643 c 2
EndSplineSet
Refer: 111 100 S 1 0 0 1 -0 0 2
EndChar

StartChar: ecaron
Encoding: 283 283 176
Width: 511
Flags: HW
TeX: 666 0
HStem: -11 73<210.333 383.373> 214 65<160 367> 402 73<204.941 333.723> 617 34<145.217 396.847>
VStem: 30 129<116.945 214 279 352.43> 367 112<279 364.091>
AnchorPoint: "below" 284 0 basechar 0
AnchorPoint: "above" 270 646 basechar 0
LayerCount: 2
Fore
SplineSet
98 654 m 1
 100 665 107 666 118 666 c 2
 144 666 l 2
 169 666 257 651 270 651 c 0
 292 651 348 666 413 666 c 2
 421 666 l 2
 437 666 439 661 441 658 c 1
 441 654 l 1
 440 649 l 1
 436 643 440 641 318 618 c 1
 298 617 l 1
 244 617 l 1
 224 618 l 1
 104 643 101 639 98 654 c 1
EndSplineSet
Refer: 112 101 S 1 0 0 1 0 0 3
EndChar

StartChar: eogonek
Encoding: 281 281 177
Width: 511
Flags: HW
TeX: 458 194
HStem: -217 85<315.792 422.385> -11 73<212.195 268> 214 65<160 367> 402 73<206.088 333.723>
VStem: 30 129<118.954 214 279 352.43> 218 94<-126.917 -46.2772> 367 112<279 364.817>
AnchorPoint: "above" 270 475 basechar 0
LayerCount: 2
Fore
SplineSet
30 233 m 0
 30 390 114 475 270 475 c 0
 437 475 479 365 479 258 c 0
 479 215 450 214 436 214 c 2
 159 214 l 1
 161 134 186 62 286 62 c 0
 392 62 436 127 457 128 c 1
 468 123 467 123 472 63 c 1
 472 50 l 1
 471 45 l 1
 467 40 l 1
 421 7 390 12 359 -13 c 0
 338 -30 312 -62 312 -94 c 0
 312 -120 332 -132 358 -132 c 0
 390 -132 409 -120 421 -120 c 0
 440 -120 445 -176 445 -176 c 1
 445 -185 441 -188 429 -193 c 0
 411 -201 368 -217 328 -217 c 0
 263 -217 218 -177 218 -118 c 0
 218 -74 240 -40 268 -11 c 1
 163 -9 30 38 30 233 c 0
160 279 m 1
 367 279 l 1
 364 346 348 402 270 402 c 0
 190 402 166 341 160 279 c 1
EndSplineSet
EndChar

StartChar: gbreve
Encoding: 287 287 178
Width: 550
Flags: HW
TeX: 666 194
ItalicCorrection: 15
HStem: -206 72<157.501 390.128> -17 109<132.195 407.466> 139 72<183.976 300.71> 393 76<183.789 304.665 420.426 525.901> 553 94<122.452 425.719>
VStem: 24 103<-106.632 -22.2388> 41 129<225.239 381.11> 54 70<100.308 158.31> 316 128<225.417 383.165> 420 103<-107.266 -34.5205>
LayerCount: 2
Fore
SplineSet
85 628 m 0
 85 648 99 666 121 666 c 0
 153 666 118 647 241 647 c 2
 262 647 l 2
 408 647 388 651 410 662 c 0
 415 665 420 666 426 666 c 0
 444 666 462 651 462 628 c 0
 462 556 351 553 298 553 c 2xf8
 264 553 l 2
 201 553 85 553 85 628 c 0
EndSplineSet
Refer: 114 103 S 1 0 0 1 -0 0 3
EndChar

StartChar: lacute
Encoding: 314 314 179
Width: 255
Flags: HW
TeX: 863 0
ItalicCorrection: 117
HStem: 0 21<95 170.5> 702 20<88 160.5> 851 27<296.068 336.968>
VStem: 40 297 60 134<4.23094 717.884>
LayerCount: 2
Fore
SplineSet
40 776 m 1
 40 787 57 797 67 805 c 0
 161 877 157 878 177 878 c 2
 317 878 l 2
 334 878 337 870 337 865 c 0
 337 856 326 853 323 851 c 0
 122 764 127 764 107 764 c 2xf0
 57 764 l 1
 43 765 41 770 40 776 c 1
EndSplineSet
Refer: 119 108 S 1 0 0 1 0 0 3
EndChar

StartChar: lcaron
Encoding: 318 318 180
Width: 426
Flags: HW
TeX: 720 0
HStem: 0 21<95 170.5> 702 20<88 160.5>
VStem: 60 134<4.23094 717.884> 218 132<620.831 751.33>
LayerCount: 2
Fore
SplineSet
218 643 m 0
 218 645 219 647 219 649 c 2
 219 705 l 2
 219 712 218 718 218 724 c 0
 218 749 228 752 241 752 c 2
 318 752 l 1
 348 751 350 746 350 733 c 2
 350 645 l 2
 350 625 349 626 287 561 c 0
 276 550 271 550 260 550 c 2
 241 550 l 2
 231 550 220 552 220 562 c 0
 220 571 232 590 249 620 c 1
 241 620 l 2
 228 620 218 622 218 643 c 0
EndSplineSet
Refer: 119 108 S 1 0 0 1 -0 0 2
EndChar

StartChar: lslash
Encoding: 322 322 181
Width: 381
Flags: HW
TeX: 720 0
ItalicCorrection: 27
HStem: -0 21G<156 223> 702 20G<150 234>
VStem: 121 134<4.01735 298 373.8 418.2 496 717.572>
DStem2: 53 337 121 298 0.785778 0.618509<-50.7049 29.3111 257.07 359.278>
AnchorPoint: "above" 188 722 basechar 0
LayerCount: 2
Fore
SplineSet
17 290 m 0
 17 309 28 317 53 337 c 0
 76 355 97 373 121 390 c 1
 121 677 l 2
 121 705 131 722 169 722 c 2
 211 722 l 2
 257 722 255 687 255 674 c 2
 255 496 l 1
 317 545 324 553 341 553 c 0
 359 553 377 539 377 517 c 0
 377 494 365 489 255 403 c 1
 255 46 l 2
 255 10 237 0 209 -0 c 2
 166 -0 l 2
 146 0 121 5 121 44 c 2
 121 298 l 1
 84 269 70 254 53 254 c 0
 35 254 17 268 17 290 c 0
EndSplineSet
EndChar

StartChar: nacute
Encoding: 324 324 182
Width: 561
Flags: HW
TeX: 666 0
HStem: -0 21<94.5 173 390.5 477.5> 396 73<253.581 427.175>
VStem: 59 137<6.73599 347.523 400 457.105> 364 136<3.77809 387.272>
LayerCount: 2
Fore
SplineSet
184 540 m 0
 184 549 207 577 276 666 c 0
 283 675 288 679 304 679 c 2
 390 679 l 2
 408 679 408 676 412 674 c 1
 415 669 l 1
 415 665 l 1
 414 657 410 655 377 629 c 0
 248 528 253 528 233 528 c 0
 224 528 215 528 206 528 c 0
 197 529 184 527 184 540 c 0
EndSplineSet
Refer: 121 110 S 1 0 0 1 0 -0 3
EndChar

StartChar: ncaron
Encoding: 328 328 183
Width: 561
Flags: HW
TeX: 666 0
HStem: 0 21<94.5 173 390.5 477.5> 396 73<253.581 427.175> 617 34<129.486 379.952>
VStem: 59 137<6.73599 347.523 400 457.105> 364 136<3.77809 387.272>
LayerCount: 2
Fore
SplineSet
82 654 m 1
 84 665 91 666 102 666 c 2
 128 666 l 2
 159 666 235 651 254 651 c 0
 276 651 333 666 398 666 c 2
 405 666 l 2
 421 666 423 661 425 658 c 1
 425 654 l 1
 424 649 l 1
 420 643 424 641 302 618 c 1
 282 617 l 1
 228 617 l 1
 208 618 l 1
 88 643 85 639 82 654 c 1
EndSplineSet
Refer: 121 110 S 1 0 0 1 -0 0 3
EndChar

StartChar: eng
Encoding: 331 331 184
Width: 561
Flags: HW
TeX: 458 194
HStem: -206 85<206.785 341.403> -0 21G<84.5 172.5> 396 73<253.827 422.528>
VStem: 59 137<3.92418 348.045 400 457.125> 364 136<-100.94 385.606>
AnchorPoint: "affricate-below" 561 -195 basechar 0
AnchorPoint: "affricate-above" 561 722 basechar 0
AnchorPoint: "below" 280 -195 basechar 0
AnchorPoint: "above" 280 475 basechar 0
LayerCount: 2
Fore
SplineSet
59 43 m 2
 59 419 l 2
 59 462 84 463 112 463 c 0
 124 463 135 463 147 463 c 0
 162 463 190 462 190 420 c 2
 190 400 l 1
 225 435 271 469 352 469 c 0
 490 469 500 393 500 316 c 2
 500 39 l 1
 496 -21 501 -206 331 -206 c 0
 276 -206 216 -192 175 -170 c 1
 171 -166 l 1
 169 -162 l 1
 169 -157 l 1
 169 -157 189 -101 205 -101 c 0
 218 -101 245 -121 289 -121 c 0
 366 -121 365 -49 365 -11 c 2
 364 66 l 1
 364 317 l 2
 364 358 363 396 307 396 c 0
 243 396 201 343 196 286 c 1
 196 50 l 2
 196 26 195 0 150 -0 c 2
 104 -0 l 2
 65 0 59 22 59 43 c 2
EndSplineSet
EndChar

StartChar: rcaron
Encoding: 345 345 187
Width: 372
Flags: HW
TeX: 666 0
ItalicCorrection: 15
HStem: 0 21<84.5 156.5> 373 96<272.523 356> 617 34<109.486 359.952>
VStem: 60 134<6.60218 303.695 388 449.491>
AnchorPoint: "below" 126 0 basechar 0
AnchorPoint: "above" 214 652 basechar 0
LayerCount: 2
Fore
SplineSet
62 654 m 1
 64 665 71 666 82 666 c 2
 108 666 l 2
 139 666 215 651 234 651 c 0
 256 651 313 666 378 666 c 2
 385 666 l 2
 401 666 403 661 405 658 c 1
 405 654 l 1
 404 649 l 1
 400 643 404 641 282 618 c 1
 262 617 l 1
 208 617 l 1
 188 618 l 1
 68 643 65 639 62 654 c 1
EndSplineSet
Refer: 125 114 S 1 0 0 1 0 0 3
EndChar

StartChar: sacute
Encoding: 347 347 188
Width: 422
Flags: HW
TeX: 666 0
HStem: -11 79<130.346 285.196> 402 73<142.685 300.449> 528 151
VStem: 36 100<319.111 392.49> 120 228 296 100<80.0625 157.254>
AnchorPoint: "below" 216 0 basechar 0
AnchorPoint: "above" 204 659 basechar 0
LayerCount: 2
Fore
SplineSet
31 50 m 0
 31 57 33 65 43 122 c 0
 44 126 46 143 57 143 c 0
 78 143 109 68 219 68 c 0
 262 68 296 78 296 120 c 0
 296 169 227 177 220 178 c 0
 168 188 110 194 66 247 c 0
 44 273 36 302 36 332 c 0
 36 457 129 475 214 475 c 0
 291 475 357 454 374 438 c 1
 376 434 377 431 377 427 c 1
 377 427 370 348 353 348 c 0
 336 348 307 401 212 402 c 1
 189 401 136 405 136 356 c 0xf4
 136 300 223 305 280 287 c 0
 325 272 396 228 396 140 c 0
 396 19 316 -11 219 -11 c 0
 113 -11 38 32 34 40 c 0
 31 46 31 45 31 50 c 0
EndSplineSet
Refer: 13 180 S 1 0 0 1 -89 0 2
EndChar

StartChar: scaron
Encoding: 353 353 189
Width: 422
Flags: HW
TeX: 666 0
HStem: -11 79<130.346 285.556> 402 73<143.121 300.449> 617 34<82.2175 333.847>
VStem: 36 100<319.573 392.571> 296 100<79.8022 159.627>
AnchorPoint: "below" 216 0 basechar 0
AnchorPoint: "above" 204 646 basechar 0
LayerCount: 2
Fore
SplineSet
31 50 m 0
 31 57 33 65 43 122 c 0
 44 126 46 143 57 143 c 0
 78 143 109 68 219 68 c 0
 273 68 296 85 296 119 c 0
 296 177 218 176 164 189 c 0
 109 202 36 246 36 332 c 0
 36 458 131 475 214 475 c 0
 291 475 357 454 374 438 c 1
 376 434 377 431 377 427 c 1
 377 427 370 348 353 348 c 0
 336 348 307 401 212 402 c 1
 189 401 136 405 136 355 c 0
 136 312 197 304 203 303 c 0
 245 295 325 290 372 219 c 0
 385 199 396 174 396 140 c 0
 396 19 316 -11 219 -11 c 0
 113 -11 38 32 34 40 c 0
 31 46 31 45 31 50 c 0
35 654 m 1
 37 665 44 666 55 666 c 2
 81 666 l 2
 106 666 194 651 207 651 c 0
 229 651 285 666 350 666 c 2
 358 666 l 2
 374 666 376 661 378 658 c 1
 378 654 l 1
 377 649 l 1
 373 643 377 641 255 618 c 1
 235 617 l 1
 181 617 l 1
 161 618 l 1
 41 643 38 639 35 654 c 1
EndSplineSet
EndChar

StartChar: scedilla
Encoding: 351 351 190
Width: 422
Flags: HW
TeX: 458 170
HStem: -43 20G<190.5 234.5> -11 79<130.568 285.762> 402 73<143.991 300.449>
VStem: 36 100<319.496 392.516> 296 100<79.8022 159.721>
LayerCount: 2
Fore
SplineSet
31 50 m 0
 31 57 33 65 43 122 c 0
 44 126 46 143 57 143 c 0
 78 143 109 68 219 68 c 0
 273 68 296 85 296 119 c 0
 296 177 218 176 164 189 c 0
 109 202 36 246 36 332 c 0
 36 469 152 475 214 475 c 0
 291 475 357 454 374 438 c 1
 376 434 377 431 377 427 c 1
 377 427 370 348 353 348 c 0
 336 348 307 401 212 402 c 1
 189 401 136 405 136 356 c 0
 136 300 223 305 280 287 c 0
 325 272 396 228 396 140 c 0
 396 19 317 -11 219 -11 c 0
 114 -11 38 32 34 40 c 0
 31 46 31 45 31 50 c 0
89 -179 m 0
 89 -171 98 -158 172 -43 c 0
 178 -34 183 -23 198 -23 c 0
 208 -23 218 -23 228 -23 c 0
 241 -23 251 -26 251 -37 c 0
 251 -42 251 -40 195 -175 c 0
 187 -193 179 -193 170 -193 c 2
 107 -193 l 2
 100 -193 89 -190 89 -179 c 0
EndSplineSet
EndChar

StartChar: tcaron
Encoding: 357 357 191
Width: 404
Flags: HW
TeX: 720 0
HStem: -11 78<139 314.748> 385 73<24.035 86 218 350.309>
VStem: 86 132<73.8182 385 458 584.477> 252 132<553.355 683.297>
LayerCount: 2
Fore
SplineSet
21 422 m 0
 21 432 25 458 65 458 c 2
 89 458 l 1
 89 544 l 2
 89 587 113 589 137 589 c 0
 149 589 161 589 173 589 c 0
 187 589 218 588 218 544 c 2
 218 458 l 1
 309 458 l 2
 349 458 354 430 354 421 c 0
 354 411 349 386 311 385 c 1
 218 385 l 1
 218 183 l 2
 218 175 217 166 217 158 c 0
 217 85 231 67 259 67 c 0
 312 67 332 102 348 102 c 0
 365 102 371 46 371 46 c 1
 371 23 269 -11 190 -11 c 0
 88 -11 86 88 86 145 c 2
 86 385 l 1
 65 385 l 2
 25 385 21 411 21 422 c 0
252 575 m 2
 252 657 l 2
 252 682 261 684 274 684 c 2
 351 684 l 1
 381 683 384 679 384 666 c 2
 384 578 l 2
 384 558 383 558 321 493 c 0
 310 482 305 482 294 482 c 2
 275 482 l 2
 265 482 254 485 254 495 c 0
 254 504 266 523 283 553 c 1
 275 553 l 2
 262 553 252 554 252 575 c 2
EndSplineSet
EndChar

StartChar: tcommaaccent
Encoding: 355 355 192
Width: 404
Flags: HW
TeX: 589 170
HStem: -43 20G<227.5 271.5> -11 78<137.5 316.105> 385 73<24.035 86 218 350.309>
VStem: 86 132<74.0098 385 458 583.397>
LayerCount: 2
Fore
SplineSet
21 422 m 0
 21 434 26 458 66 458 c 2
 89 458 l 1
 89 544 l 2
 89 588 120 589 137 589 c 2
 173 589 l 2
 208 589 218 568 218 544 c 2
 218 458 l 1
 309 458 l 2
 349 458 354 430 354 421 c 0
 354 411 350 386 311 385 c 1
 218 385 l 1
 218 183 l 2
 218 174 217 167 217 158 c 0
 217 85 231 67 259 67 c 0
 312 67 332 102 348 102 c 0
 364 102 372 49 372 47 c 0
 372 37 363 32 357 29 c 0
 296 -4 226 -11 190 -11 c 0
 85 -11 86 93 86 150 c 2
 86 385 l 1
 65 385 l 2
 25 385 21 411 21 422 c 0
126 -184 m 1
 124 -171 142 -148 209 -43 c 0
 215 -34 220 -23 235 -23 c 0
 245 -23 255 -23 265 -23 c 0
 278 -23 288 -26 288 -37 c 0
 288 -43 285 -49 283 -54 c 0
 222 -200 230 -192 208 -193 c 1
 143 -193 l 1
 131 -192 130 -190 126 -184 c 1
EndSplineSet
EndChar

StartChar: ydieresis
Encoding: 255 255 195
Width: 500
Flags: HW
TeX: 694 194
ItalicCorrection: 15
HStem: -206 86<54.7113 176.31> -193 96<47 109.958> 438 20<59.5 103.5 385.5 452> 552 142<76.3774 209.45 289.264 423.047>
VStem: 72 142<556.356 690.315> 285 142<556.235 690.045>
AnchorPoint: "below" 251 -195 basechar 0
AnchorPoint: "above" 262 691 basechar 0
LayerCount: 2
Fore
SplineSet
72 597 m 2
 72 650 l 2
 72 694 102 694 118 694 c 2
 168 694 l 2
 196 694 214 685 214 647 c 2
 214 598 l 2
 214 551 180 553 169 552 c 1
 118 552 l 2
 96 552 72 558 72 597 c 2
285 599 m 2
 285 646 l 2
 285 693 310 693 331 694 c 1
 381 694 l 2
 404 694 427 688 427 649 c 0
 427 631 427 613 427 595 c 0
 427 550 392 553 383 552 c 1x3c
 331 552 l 2
 304 552 285 562 285 599 c 2
EndSplineSet
Refer: 132 121 S 1 0 0 1 -0 -0 3
EndChar

StartChar: zacute
Encoding: 378 378 196
Width: 476
Flags: HW
TeX: 666 0
HStem: 0 74<182 437.73> 383 75<48.6387 287>
DStem2: 54 92 182 74 0.622412 0.78269<65.5803 374.35>
AnchorPoint: "below" 236 0 basechar 0
AnchorPoint: "above" 236 676 basechar 0
LayerCount: 2
Fore
SplineSet
147 540 m 0
 147 549 171 577 240 666 c 0
 247 675 252 679 268 679 c 2
 353 679 l 2
 371 679 372 676 376 674 c 1
 379 669 l 1
 379 665 l 1
 378 657 373 655 340 629 c 0
 210 528 216 528 196 528 c 2
 170 528 l 1
 161 529 147 527 147 540 c 0
EndSplineSet
Refer: 133 122 S 1 0 0 1 0 0 3
EndChar

StartChar: zcaron
Encoding: 382 382 197
Width: 476
Flags: HW
TeX: 666 0
HStem: 0 74<182 437.73> 383 75<48.6387 287> 617 34<117.486 367.952>
DStem2: 54 92 182 74 0.622412 0.78269<65.5803 374.35>
AnchorPoint: "below" 236 0 basechar 0
AnchorPoint: "above" 236 663 basechar 0
LayerCount: 2
Fore
SplineSet
70 654 m 1
 72 665 79 666 90 666 c 2
 116 666 l 2
 147 666 223 651 242 651 c 0
 264 651 321 666 386 666 c 2
 393 666 l 2
 409 666 411 661 413 658 c 1
 414 654 l 1
 412 649 l 1
 408 643 412 641 290 618 c 1
 270 617 l 1
 216 617 l 1
 196 618 l 1
 76 643 73 639 70 654 c 1
EndSplineSet
Refer: 133 122 S 1 0 0 1 -0 0 3
EndChar

StartChar: ij
Encoding: 307 307 199
Width: 592
Flags: HW
TeX: 720 194
HStem: -206 85<284.485 463.995> 0 21<89.5 180.5> 438 20G<89.5 176.5 443.5 514> 580 142<68.3594 201.614 399.86 534.047>
VStem: 64 142<584.163 717.992> 68 134<3.67405 453.828> 396 142<584.416 717.992> 404 134<-111.767 453.772>
LayerCount: 2
Fore
SplineSet
251 -157 m 1
 251 -157 257 -101 274 -101 c 0
 285 -101 307 -121 346 -121 c 0
 406 -121 403 -76 404 -51 c 1
 404 414 l 2
 404 460 437 457 450 458 c 1
 492 458 l 2
 536 458 538 430 538 412 c 2
 538 -15 l 2xf1
 538 -81 533 -206 392 -206 c 0
 344 -206 251 -183 251 -157 c 1
396 626 m 2
 396 676 l 2
 396 720 422 721 441 722 c 1
 492 722 l 2
 515 722 538 716 538 676 c 2
 538 624 l 2
 538 579 502 581 493 580 c 1xf2
 441 580 l 2
 418 580 396 586 396 626 c 2
EndSplineSet
Refer: 116 105 S 1 0 0 1 8 0 2
Ligature2: "Latin Dutch ligatures subtable" i j
EndChar

StartChar: exclamdown
Encoding: 161 161 200
Width: 367
Flags: HW
TeX: 527 194
HStem: -195 21G<130 237.5> 397 131<120.969 244.057>
VStem: 117 131<-194.949 81.7692 400.953 523.874> 130 105<59.9231 328.81>
LayerCount: 2
Fore
SplineSet
117 -174 m 2xe0
 130 301 l 2
 130 323 134 325 137 329 c 1
 141 331 143 332 151 332 c 2
 210 332 l 2
 222 332 234 332 235 313 c 2xd0
 248 -157 l 1
 248 -166 l 1
 247 -188 249 -194 226 -195 c 1
 140 -195 l 2xe0
 120 -195 117 -187 117 -174 c 2xe0
117 442 m 2
 117 480 l 2
 117 506 122 528 164 528 c 2
 207 528 l 2
 240 528 248 507 248 482 c 0
 248 469 248 456 248 443 c 0
 248 426 249 396 202 396 c 0
 197 396 192 397 188 397 c 2
 164 397 l 2
 140 397 117 402 117 442 c 2
EndSplineSet
EndChar

StartChar: questiondown
Encoding: 191 191 201
Width: 519
Flags: HW
TeX: 527 194
HStem: -206 73<204.143 339.056> 397 131<181.672 305.064>
VStem: 60 137<-127.347 35.2026> 178 131<400.39 523.874> 191 105<163.563 331.965>
LayerCount: 2
Fore
SplineSet
60 -47 m 0xe0
 60 39 95 63 125 93 c 1
 165 137 191 198 191 279 c 2
 191 311 l 1
 192 320 191 332 211 332 c 2
 271 332 l 2
 283 332 295 332 296 313 c 0xc8
 296 299 296 285 296 271 c 0xc8
 296 235 291 173 243 81 c 0
 200 -1 198 11 197 -55 c 0
 197 -113 203 -133 245 -133 c 0
 354 -133 403 -59 419 -59 c 0
 437 -59 456 -139 456 -139 c 1
 455 -143 l 1
 453 -148 l 1
 447 -154 382 -206 241 -206 c 0
 142 -206 60 -176 60 -47 c 0xe0
177 442 m 0
 177 446 178 449 178 453 c 2
 178 480 l 2
 178 502 180 528 224 528 c 2
 268 528 l 2
 301 528 309 507 309 482 c 0xd0
 309 469 309 456 309 443 c 0
 309 426 309 396 262 396 c 0
 257 396 252 397 248 397 c 2
 225 397 l 2
 208 397 177 397 177 442 c 0
EndSplineSet
EndChar

StartChar: sterling
Encoding: 163 163 202
Width: 703
Flags: HW
TeX: 720 0
HStem: -11 155<104.734 234.485> -11 96<402.28 530.754> 325 73<170.018 236 373 468.913> 684 73<399.036 488.064>
VStem: 235 130<143 323.406> 236 137<144.469 325 398 652.215> 504 136<530.544 642.901>
LayerCount: 2
Fore
SplineSet
60 55 m 0
 60 109 116 144 203 144 c 0
 214 144 224 144 235 143 c 1xba
 236 217 l 1
 236 325 l 1xb6
 221 325 206 325 191 325 c 0
 168 325 170 332 170 362 c 0
 170 391 168 398 197 398 c 2
 236 398 l 1
 236 533 l 2
 236 643 273 757 454 757 c 0
 581 757 640 635 640 545 c 0
 640 497 604 486 584 486 c 0
 538 486 530 528 529 529 c 1
 526 529 l 2
 514 529 505 530 504 547 c 0
 503 594 508 684 454 684 c 0
 371 684 373 602 373 537 c 2
 373 398 l 1
 450 398 l 1
 470 397 469 388 469 362 c 0
 469 334 471 326 450 325 c 1
 373 325 l 1
 373 223 l 2xb6
 373 185 372 148 365 117 c 1
 365 116 l 1
 416 103 473 86 532 85 c 1
 537 129 530 143 539 152 c 0
 545 158 557 156 568 157 c 1
 648 157 l 2
 661 157 670 153 670 138 c 0
 670 75 610 -11 495 -11 c 0x7a
 427 -11 335 17 301 25 c 1
 255 -7 193 -11 157 -11 c 0
 80 -11 60 29 60 55 c 0
EndSplineSet
EndChar

StartChar: Aacute
Encoding: 193 193 204
Width: 733
Flags: HW
TeX: 863 0
HStem: 0 21<63.5 145.5 572.5 654> 151 86<246 471> 674 20<300 436.5> 851 27<490.062 529.971>
DStem2: 46 46 246 237 0.332164 0.943222<-9.00953 155.506 246.588 597.272> 479 634 359 569 0.331063 -0.943609<21.607 371.964 463.046 630.08>
AnchorPoint: "below" 366 0 basechar 0
AnchorPoint: "above" 366 881 basechar 0
LayerCount: 2
Fore
SplineSet
232 777 m 0
 232 782 236 786 239 789 c 0
 355 878 351 878 371 878 c 2
 510 878 l 2
 527 878 530 870 530 865 c 0
 530 856 520 853 517 851 c 0
 316 765 320 764 300 764 c 0
 283 764 266 764 249 764 c 1
 235 765 233 771 232 777 c 0
EndSplineSet
Refer: 76 65 S 1 0 0 1 0 0 3
AlternateSubs2: "Stilistic set 01 subtable" Aacute.vn
AlternateSubs2: "Latin alternatives subtable" Aacute.vn
Substitution2: "Latin Vietnamese substitutions subtable" Aacute.vn
EndChar

StartChar: Acircumflex
Encoding: 194 194 205
Width: 733
Flags: HW
TeX: 902 0
HStem: 0 21<63.5 145.5 572.5 654> 151 86<246 471> 674 20<300 436.5>
DStem2: 46 46 246 237 0.332164 0.943222<-9.00953 155.506 246.588 597.272> 479 634 359 569 0.331063 -0.943609<21.607 371.964 463.046 630.08>
AnchorPoint: "below" 366 0 basechar 0
AnchorPoint: "above" 366 917 basechar 0
LayerCount: 2
Fore
SplineSet
169 748 m 0
 169 755 175 762 179 767 c 0
 296 921 284 914 305 914 c 2
 427 914 l 2
 443 914 446 908 451 897 c 0
 514 751 512 756 513 749 c 1
 512 737 504 735 493 735 c 0
 482 735 471 735 460 735 c 0
 445 735 445 740 341 834 c 1
 240 742 238 735 216 735 c 0
 208 735 200 735 192 735 c 0
 181 735 169 736 169 748 c 0
EndSplineSet
Refer: 76 65 S 1 0 0 1 0 -0 3
AlternateSubs2: "Stilistic set 01 subtable" Acircumflex.vn
AlternateSubs2: "Latin alternatives subtable" Acircumflex.vn
Substitution2: "Latin Vietnamese substitutions subtable" Acircumflex.vn
EndChar

StartChar: Atilde
Encoding: 195 195 206
Width: 733
Flags: HW
TeX: 902 0
HStem: 0 21<63.5 145.5 572.5 654> 151 86<246 471> 674 20<300 436.5> 735 73<401.882 445> 829 73<287 330.118>
VStem: 183 73<735 823.351> 480 69<819.343 901.929>
DStem2: 46 46 246 237 0.332164 0.943222<-9.00953 155.506 246.588 597.272> 479 634 359 569 0.331063 -0.943609<21.607 371.964 463.046 630.08>
AnchorPoint: "below" 366 0 basechar 0
AnchorPoint: "above" 366 906 basechar 0
LayerCount: 2
Fore
SplineSet
183 756 m 0
 183 811 214 902 292 902 c 0
 369 902 392 810 437 808 c 1
 445 809 l 1
 453 812 l 1
 484 839 471 883 480 896 c 0
 484 902 492 903 502 903 c 0
 507 903 511 902 516 902 c 2
 527 902 l 2
 539 902 549 901 549 881 c 0
 549 832 522 735 440 735 c 0
 363 735 340 827 295 829 c 1
 287 828 l 1
 277 824 261 821 256 766 c 0
 255 750 259 736 237 735 c 0
 226 735 215 735 204 735 c 0
 192 735 183 737 183 756 c 0
EndSplineSet
Refer: 76 65 S 1 0 0 1 0 -0 3
AlternateSubs2: "Stilistic set 01 subtable" Atilde.vn
AlternateSubs2: "Latin alternatives subtable" Atilde.vn
Substitution2: "Latin Vietnamese substitutions subtable" Atilde.vn
EndChar

StartChar: Adieresis
Encoding: 196 196 207
Width: 733
Flags: HW
TeX: 902 0
HStem: 0 21<63.5 145.5 572.5 654> 151 86<246 471> 674 20<300 436.5> 760 142<192.412 326.072 405.953 539.383>
VStem: 188 142<763.77 898.295> 402 142<764.356 898.015>
DStem2: 46 46 246 237 0.332164 0.943222<-9.00953 155.506 246.588 597.272> 479 634 359 569 0.331063 -0.943609<21.607 371.964 463.046 630.08>
AnchorPoint: "below" 366 0 basechar 0
AnchorPoint: "above" 366 906 basechar 0
LayerCount: 2
Fore
SplineSet
188 807 m 0
 188 823 188 839 188 855 c 0
 188 904 216 901 234 902 c 1
 284 902 l 2
 312 902 330 893 330 857 c 2
 330 803 l 2
 330 758 294 761 285 760 c 1
 233 760 l 2
 208 760 188 768 188 807 c 0
402 805 m 2
 402 858 l 2
 402 902 432 903 449 903 c 0
 454 903 459 902 464 902 c 2
 498 902 l 2
 526 902 544 893 544 855 c 2
 544 806 l 2
 544 760 512 761 499 760 c 1
 448 760 l 2
 425 760 402 766 402 805 c 2
EndSplineSet
Refer: 76 65 S 1 0 0 1 0 0 3
EndChar

StartChar: Aring
Encoding: 197 197 208
Width: 733
Flags: HW
TeX: 863 0
HStem: 0 21G<60.5 143.5 572.5 654> 151 86<246 471> 830 72<290.141 394>
VStem: 219 61<701.443 823.046> 402 61<701.113 822.406>
DStem2: 48 51 216 151 0.331828 0.94334<-14.4945 150.081 241.163 591.849> 473 649 359 569 0.332575 -0.943077<37.5326 387.882 478.964 647.035>
LayerCount: 2
Fore
SplineSet
42 28 m 0
 42 36 45 44 48 51 c 2
 258 648 l 1
 231 672 219 711 219 760 c 0
 219 835 242 902 342 902 c 0
 415 902 463 863 463 761 c 0
 463 715 453 691 450 684 c 1
 463 672 467 667 473 649 c 2
 686 45 l 2
 688 39 690 33 690 27 c 0
 690 -2 655 0 653 0 c 2
 600 0 l 2
 545 0 546 24 501 151 c 1
 216 151 l 1
 166 10 174 3 113 0 c 1
 75 0 l 1
 46 1 42 19 42 28 c 0
246 237 m 1
 471 237 l 1
 379 502 368 535 359 569 c 1
 345 518 269 303 246 237 c 1
280 765 m 0
 280 726 281 694 337 694 c 2
 340 694 l 2
 371 694 402 695 402 758 c 0
 402 798 400 830 344 830 c 2
 342 830 l 2
 310 830 280 829 280 765 c 0
EndSplineSet
EndChar

StartChar: AE
Encoding: 198 198 209
Width: 947
Flags: HW
TeX: 694 0
HStem: -0 111<602 895.715> 191 87<281 461> 312 95<602 849.407> 594 100<412 461 602 881.304>
VStem: 461 141<107 191 278 312 407 593>
DStem2: 49 45 245 191 0.382627 0.923903<-2.36386 209.885 304.039 646.116>
AnchorPoint: "below" 472 0 basechar 0
AnchorPoint: "above" 532 717 basechar 0
LayerCount: 2
Fore
SplineSet
44 26 m 0
 44 32 47 39 49 45 c 2
 295 639 l 2
 309 673 320 694 365 694 c 2
 841 694 l 2
 883 694 885 666 885 647 c 0
 885 643 885 639 885 635 c 0
 885 618 883 589 844 589 c 2
 843 589 l 1
 602 593 l 1
 602 407 l 1
 808 407 l 2
 830 407 854 405 854 361 c 0
 854 315 828 312 810 312 c 2
 602 312 l 1
 602 107 l 1
 652 108 828 111 853 111 c 0
 876 111 900 106 900 65 c 2
 900 50 l 2
 900 30 901 0 855 -0 c 2
 504 -0 l 2
 459 0 461 33 461 47 c 2
 461 191 l 1
 245 191 l 1
 173 17 177 0 117 -0 c 2
 80 -0 l 2
 49 0 44 16 44 26 c 0
281 278 m 1
 461 278 l 1
 461 594 l 1
 412 594 l 1
 281 278 l 1
EndSplineSet
EndChar

StartChar: Ccedilla
Encoding: 199 199 210
Width: 703
Flags: HW
TeX: 694 170
HStem: -23 101<323.237 427 436 551.662> 616 101<319.499 529.542>
VStem: 60 142<209.614 486.32>
AnchorPoint: "above" 428 717 basechar 0
LayerCount: 2
Fore
SplineSet
60 347 m 0
 60 574 166 717 429 717 c 0
 508 717 547 706 607 688 c 0
 624 682 623 683 630 676 c 1
 632 672 633 670 633 666 c 0
 633 658 629 640 618 580 c 0
 614 559 610 551 603 551 c 0
 584 551 543 616 428 616 c 0
 247 616 202 489 202 348 c 0
 202 200 248 78 432 78 c 0
 574 78 598 142 626 142 c 0
 638 142 638 123 641 96 c 0
 644 60 645 56 645 51 c 0
 645 35 633 31 621 24 c 0
 556 -12 514 -22 436 -23 c 1
 448 -23 461 -25 461 -37 c 0
 461 -44 465 -35 406 -175 c 0
 398 -193 390 -193 381 -193 c 2
 317 -193 l 1
 307 -192 304 -190 302 -188 c 2
 300 -184 l 1
 298 -172 315 -150 383 -43 c 0
 389 -34 394 -23 409 -23 c 2
 427 -23 l 2
 215 -23 60 72 60 347 c 0
EndSplineSet
EndChar

StartChar: Eacute
Encoding: 201 201 212
Width: 642
Flags: HW
TeX: 863 0
HStem: 0 107<233 591.062> 310 95<233 545.25> 586 105<233 576.381> 851 27<475.062 514.971>
VStem: 91 142<107 310 405 590>
AnchorPoint: "below" 343 0 basechar 0
AnchorPoint: "above" 343 884 basechar 0
LayerCount: 2
Fore
SplineSet
218 777 m 0
 218 782 222 786 225 789 c 0
 341 878 336 878 356 878 c 2
 495 878 l 2
 512 878 515 870 515 865 c 0
 515 856 505 853 502 851 c 0
 301 765 305 764 285 764 c 0
 268 764 251 764 234 764 c 1
 220 765 219 771 218 777 c 0
EndSplineSet
Refer: 80 69 S 1 0 0 1 0 0 3
AlternateSubs2: "Stilistic set 01 subtable" Eacute.vn
AlternateSubs2: "Latin alternatives subtable" Eacute.vn
Substitution2: "Latin Vietnamese substitutions subtable" Eacute.vn
EndChar

StartChar: Ecircumflex
Encoding: 202 202 213
Width: 642
Flags: HW
TeX: 902 0
HStem: -0 107<233 591.062> 310 95<233 545.25> 586 105<233 576.381>
VStem: 91 142<107 310 405 590>
AnchorPoint: "below" 343 0 basechar 0
AnchorPoint: "above" 343 920 basechar 0
LayerCount: 2
Fore
SplineSet
133 748 m 0
 133 755 138 761 142 766 c 0
 254 914 247 914 269 914 c 2
 345 914 l 2
 359 914 362 906 467 767 c 0
 471 761 477 754 477 748 c 0
 477 737 466 735 458 735 c 2
 429 735 l 2
 410 735 414 735 305 834 c 1
 287 816 286 816 211 748 c 0
 198 737 200 735 165 735 c 2
 158 735 l 2
 146 735 133 736 133 748 c 0
EndSplineSet
Refer: 80 69 S 1 0 0 1 0 -0 3
AlternateSubs2: "Stilistic set 01 subtable" Ecircumflex.vn
AlternateSubs2: "Latin alternatives subtable" Ecircumflex.vn
Substitution2: "Latin Vietnamese substitutions subtable" Ecircumflex.vn
EndChar

StartChar: Edieresis
Encoding: 203 203 214
Width: 642
Flags: HW
TeX: 902 0
HStem: -0 107<233 591.062> 310 95<233 545.25> 586 105<233 576.381> 760 142<131.359 264.565 345.359 479.047>
VStem: 91 142<107 310 405 590> 127 142<764.416 898.128> 341 142<764.008 897.992>
AnchorPoint: "below" 343 0 basechar 0
AnchorPoint: "above" 343 908 basechar 0
LayerCount: 2
Fore
SplineSet
127 806 m 2
 127 856 l 2
 127 900 153 901 172 902 c 1
 223 902 l 2
 249 902 269 895 269 856 c 0
 269 839 269 822 269 805 c 0xf6
 269 760 236 761 224 760 c 1
 173 760 l 2
 150 760 127 766 127 806 c 2
341 806 m 2
 341 856 l 2
 341 902 367 901 386 902 c 1
 437 902 l 2
 460 902 483 896 483 856 c 2
 483 804 l 2
 483 758 447 761 438 760 c 1xf2
 386 760 l 2
 364 760 341 766 341 806 c 2
EndSplineSet
Refer: 80 69 S 1 0 0 1 -0 -0 3
EndChar

StartChar: Icircumflex
Encoding: 206 206 217
Width: 325
Flags: HW
TeX: 902 0
HStem: 0 21<126 194.5> 674 20<120 199.5>
VStem: 92 142<3.82324 689.884>
AnchorPoint: "below" 162 0 basechar 0
AnchorPoint: "above" 162 917 basechar 0
LayerCount: 2
Fore
SplineSet
-9 748 m 0
 -9 755 -4 761 -0 766 c 0
 112 914 106 914 128 914 c 2
 203 914 l 2
 217 914 219 906 325 767 c 0
 329 761 335 754 335 748 c 0
 335 737 324 735 316 735 c 2
 287 735 l 2
 268 735 272 735 163 834 c 1
 59 739 63 735 34 735 c 0
 28 735 22 735 16 735 c 0
 4 735 -9 736 -9 748 c 0
EndSplineSet
Refer: 84 73 S 1 0 0 1 1 -0 2
EndChar

StartChar: Idieresis
Encoding: 207 207 218
Width: 325
Flags: HW
TeX: 902 0
HStem: 0 21<126 194.5> 674 20<120 199.5> 760 142<-10.7617 122.716 202.86 337.047>
VStem: -15 142<764.008 898.256> 92 142<3.82324 689.884> 199 142<764.008 898.256>
AnchorPoint: "below" 162 0 basechar 0
AnchorPoint: "above" 162 905 basechar 0
LayerCount: 2
Fore
SplineSet
-15 806 m 2
 -15 856 l 2
 -15 902 14 901 30 902 c 1
 81 902 l 2
 104 902 127 897 127 856 c 0
 127 839 127 822 127 805 c 0xf0
 127 758 93 761 82 760 c 1
 31 760 l 2
 8 760 -15 766 -15 806 c 2
199 806 m 2
 199 856 l 2
 199 902 225 901 244 902 c 1
 295 902 l 2
 318 902 341 897 341 856 c 2
 341 804 l 2
 341 758 305 761 296 760 c 1xe4
 245 760 l 2
 221 760 199 766 199 806 c 2
EndSplineSet
Refer: 84 73 S 1 0 0 1 1 0 2
EndChar

StartChar: Eth
Encoding: 208 208 219
Width: 794
Flags: HW
TeX: 694 0
HStem: -0 86<230 481.864> 305 73<-32.6239 91 230 428.269> 608 86<231 478.609>
VStem: 91 139<86 305 378 608> 593 140<197.758 491.756>
LayerCount: 2
Fore
SplineSet
-36 341 m 0
 -36 352 -31 378 10 378 c 2
 91 378 l 1
 91 649 l 2
 91 665 94 694 133 694 c 2
 381 694 l 2
 482 694 733 689 733 341 c 0
 733 40 543 0 382 -0 c 2
 135 -0 l 2
 93 0 91 27 91 45 c 2
 91 305 l 1
 8 305 l 2
 -31 305 -36 331 -36 341 c 0
230 86 m 1
 341 86 l 2
 417 86 506 90 557 166 c 0
 587 212 592 268 593 321 c 1
 593 332 l 2
 593 459 585 600 376 608 c 1
 231 608 l 1
 230 574 l 1
 230 378 l 1
 374 378 l 2
 392 378 402 378 412 373 c 0
 424 367 432 354 432 341 c 0
 432 323 417 305 396 305 c 2
 230 305 l 1
 230 86 l 1
EndSplineSet
EndChar

StartChar: Ntilde
Encoding: 209 209 220
Width: 794
Flags: HW
TeX: 902 0
HStem: 0 21<114 190 542 665.5> 674 20<125.5 252 602.5 678.5> 735 73<432.345 475> 829 73<318 361.118>
VStem: 91 123<4.12502 576> 214 69<735.003 817.213> 511 69<820.675 901.929> 579 123<118 689.875>
DStem2: 305 643 214 576 0.462681 -0.886525<17.2931 592.2>
LayerCount: 2
Fore
SplineSet
214 756 m 0
 214 804 241 902 323 902 c 0
 400 902 423 810 468 808 c 1
 475 809 l 1
 483 812 l 1
 515 838 502 884 511 896 c 0
 515 902 523 903 532 903 c 0
 537 903 542 902 547 902 c 2
 558 902 l 2
 570 902 580 901 580 881 c 0xfe
 580 835 553 735 470 735 c 0
 394 735 371 827 326 829 c 1
 318 829 l 1
 311 825 l 1
 280 799 292 754 283 741 c 0
 279 735 269 735 259 735 c 2xfc
 235 735 l 2
 223 735 214 736 214 756 c 0
EndSplineSet
Refer: 89 78 S 1 0 0 1 0 0 3
EndChar

StartChar: Ocircumflex
Encoding: 212 212 223
Width: 794
Flags: HW
TeX: 902 0
HStem: -22 81<306.497 482.72> 639 78<304.484 488.692>
VStem: 60 142<182.051 506.286> 590 142<184.135 504.694>
AnchorPoint: "below" 397 0 basechar 0
AnchorPoint: "above" 395 894 basechar 0
LayerCount: 2
Fore
SplineSet
224 748 m 0
 224 755 229 761 233 766 c 0
 345 914 338 914 360 914 c 2
 436 914 l 2
 450 914 453 906 558 767 c 0
 562 761 568 754 568 748 c 0
 568 737 557 735 549 735 c 2
 518 735 l 2
 500 735 503 736 396 834 c 1
 295 742 293 735 271 735 c 2
 249 735 l 2
 238 735 224 736 224 748 c 0
EndSplineSet
Refer: 90 79 S 1 0 0 1 -0 -0 3
AlternateSubs2: "Stilistic set 01 subtable" Ocircumflex.vn
AlternateSubs2: "Latin alternatives subtable" Ocircumflex.vn
Substitution2: "Latin Vietnamese substitutions subtable" Ocircumflex.vn
EndChar

StartChar: Otilde
Encoding: 213 213 224
Width: 794
Flags: HW
TeX: 902 0
HStem: -22 81<306.497 482.72> 639 78<304.484 488.692> 735 73<431.882 475> 829 73<318 360.204>
VStem: 60 142<182.051 506.286> 213 69<735 816.904> 590 142<184.135 504.694>
AnchorPoint: "below" 397 0 basechar 0
AnchorPoint: "above" 395 882 basechar 0
LayerCount: 2
Fore
SplineSet
213 756 m 0
 213 824 252 902 322 902 c 0
 399 902 423 810 467 808 c 1
 475 809 l 1
 482 812 l 1
 524 848 487 899 524 902 c 0
 535 902 546 902 557 902 c 0
 569 902 579 901 579 881 c 0
 579 833 552 735 470 735 c 0
 393 735 370 827 325 829 c 1
 318 828 l 1
 310 825 l 1
 279 799 291 753 282 741 c 0
 278 736 269 735 260 735 c 2
 234 735 l 2
 222 735 213 737 213 756 c 0
EndSplineSet
Refer: 90 79 S 1 0 0 1 0 -0 3
AlternateSubs2: "Stilistic set 01 subtable" Otilde.vn
AlternateSubs2: "Latin alternatives subtable" Otilde.vn
Substitution2: "Latin Vietnamese substitutions subtable" Otilde.vn
EndChar

StartChar: Odieresis
Encoding: 214 214 225
Width: 794
Flags: HW
TeX: 902 0
HStem: -22 81<306.497 482.72> 639 78<304.484 488.692> 760 142<222.359 355.828 436.359 570.047>
VStem: 60 142<182.051 506.286> 218 142<764.008 898.256> 432 142<764.008 898.256> 590 142<184.135 504.694>
AnchorPoint: "below" 397 0 basechar 0
AnchorPoint: "above" 395 882 basechar 0
LayerCount: 2
Fore
SplineSet
218 806 m 2
 218 856 l 2
 218 900 244 901 263 902 c 1
 314 902 l 2
 337 902 360 897 360 856 c 2
 360 804 l 2
 360 759 327 761 315 760 c 1
 264 760 l 2
 241 760 218 766 218 806 c 2
432 806 m 2
 432 856 l 2
 432 902 458 901 477 902 c 1
 528 902 l 2
 551 902 574 897 574 856 c 2
 574 804 l 2
 574 758 538 761 529 760 c 1
 477 760 l 2
 455 760 432 766 432 806 c 2
EndSplineSet
Refer: 90 79 S 1 0 0 1 -0 -0 3
EndChar

StartChar: OE
Encoding: 338 338 226
Width: 1069
Flags: HW
TeX: 694 0
HStem: -22 72<297.074 486.627> 0 111<660 1018.53> 312 95<660 972.406> 590 104<660 1003.93> 644 73<292.212 486.553>
VStem: 30 139<199.441 500.45> 519 141<108.463 312 407 592.779>
AnchorPoint: "above" 589 717 basechar 0
LayerCount: 2
Fore
SplineSet
30 341 m 0
 30 451 43 717 392 717 c 0xae
 472 717 508 694 607 694 c 2
 962 694 l 2
 1006 694 1008 668 1008 641 c 2
 1008 634 l 2
 1008 617 1005 589 964 589 c 1
 943 590 l 1
 915 590 l 1
 660 593 l 1
 660 407 l 1
 926 407 l 2
 950 407 977 406 977 359 c 0
 977 313 946 312 933 312 c 2
 660 312 l 1
 660 107 l 1
 970 111 973 111 975 111 c 0x76
 1000 111 1023 106 1023 66 c 2
 1023 51 l 2
 1023 1 1000 0 970 0 c 2
 593 0 l 2x76
 520 0 464 -22 391 -22 c 0
 209 -22 30 50 30 341 c 0
169 353 m 2
 169 271 174 50 402 50 c 0
 507 50 519 93 519 200 c 2
 519 490 l 1
 517 613 495 644 407 644 c 0xae
 201 644 169 498 169 363 c 2
 169 353 l 2
EndSplineSet
EndChar

StartChar: Oslash
Encoding: 216 216 227
Width: 855
Flags: HW
TeX: 746 48
HStem: -22 72<310.918 544.268> 644 73<313.16 540.976>
VStem: 60 125<185.573 497.448> 667 126<187.61 500.814>
DStem2: 197 33 269 -0 0.50525 0.862973<-88.6815 1.27294 95.521 677.473 770.814 862.029>
LayerCount: 2
Fore
SplineSet
60 338 m 0
 60 537 132 717 424 717 c 0
 496 717 539 708 584 694 c 1
 623 762 629 780 655 780 c 0
 676 780 695 762 695 741 c 0
 695 727 685 712 655 660 c 1
 752 598 793 486 793 340 c 0
 793 117 687 -22 426 -22 c 0
 375 -22 320 -17 269 -0 c 1
 230 -68 223 -86 198 -86 c 0
 177 -86 157 -68 157 -47 c 0
 157 -33 165 -24 197 33 c 1
 103 91 60 198 60 338 c 0
185 339 m 0
 185 270 189 174 246 115 c 1
 542 623 l 1
 510 635 478 644 426 644 c 0
 181 644 186 436 185 339 c 0
310 70 m 1
 342 59 373 50 425 50 c 0
 659 50 667 222 667 346 c 0
 667 433 662 511 607 578 c 1
 310 70 l 1
EndSplineSet
EndChar

StartChar: Ucircumflex
Encoding: 219 219 230
Width: 764
Flags: HW
TeX: 902 0
HStem: -22 87<292.933 478.689> 674 20<114 196.5 576 645.5>
VStem: 91 142<123.76 689.854> 537 134<122.771 690.232>
AnchorPoint: "below" 383 0 basechar 0
AnchorPoint: "above" 381 917 basechar 0
LayerCount: 2
Fore
SplineSet
211 748 m 0
 211 754 215 760 219 765 c 0
 331 913 325 914 348 914 c 2
 419 914 l 2
 434 914 436 907 544 768 c 0
 548 762 555 755 555 748 c 0
 555 738 545 735 537 735 c 2
 505 735 l 2
 489 735 490 737 383 834 c 1
 282 742 281 735 258 735 c 0
 250 735 242 735 234 735 c 0
 223 735 211 736 211 748 c 0
EndSplineSet
Refer: 96 85 S 1 0 0 1 -0 -0 3
EndChar

StartChar: Udieresis
Encoding: 220 220 231
Width: 764
Flags: HW
TeX: 902 0
HStem: -22 87<292.933 478.689> 674 20<114 196.5 576 645.5> 760 142<207.437 340.604 421.263 554.563>
VStem: 91 142<123.76 689.854> 203 142<764.271 898.081> 417 142<764.754 898.295> 537 134<122.771 690.232>
AnchorPoint: "below" 383 0 basechar 0
AnchorPoint: "above" 381 905 basechar 0
LayerCount: 2
Fore
SplineSet
203 806 m 0
 203 823 203 840 203 857 c 0
 203 904 236 901 249 902 c 1
 299 902 l 2
 327 902 345 893 345 856 c 0
 345 839 345 822 345 805 c 0xe8
 345 759 310 761 300 760 c 1
 249 760 l 2
 226 760 203 767 203 806 c 0
417 807 m 0
 417 823 417 839 417 855 c 0
 417 904 446 901 462 902 c 1
 513 902 l 2
 536 902 559 897 559 857 c 2
 559 804 l 2
 559 759 522 761 514 760 c 1xe4
 462 760 l 2
 439 760 417 767 417 807 c 0
EndSplineSet
Refer: 96 85 S 1 0 0 1 -0 -0 3
EndChar

StartChar: Yacute
Encoding: 221 221 232
Width: 733
Flags: HW
TeX: 863 0
ItalicCorrection: 27
HStem: 0 21<319 403> 674 20<52.5 153.5 599.5 681> 851 27<536.062 575.971>
VStem: 296 139<3.53754 278>
DStem2: 373 403 440 283 0.575322 0.817927<0 369.469>
AnchorPoint: "below" 366 0 basechar 0
AnchorPoint: "above" 366 881 basechar 0
LayerCount: 2
Fore
SplineSet
278 777 m 0
 278 782 282 786 285 789 c 0
 401 878 396 878 416 878 c 2
 556 878 l 2
 573 878 576 870 576 865 c 0
 576 856 566 853 563 851 c 0
 362 765 366 764 346 764 c 0
 329 764 312 764 295 764 c 1
 281 765 279 771 278 777 c 0
EndSplineSet
Refer: 100 89 S 1 0 0 1 0 0 3
AlternateSubs2: "Stilistic set 01 subtable" Yacute.vn
AlternateSubs2: "Latin alternatives subtable" Yacute.vn
Substitution2: "Latin Vietnamese substitutions subtable" Yacute.vn
EndChar

StartChar: Thorn
Encoding: 222 222 233
Width: 642
Flags: HW
TeX: 694 0
HStem: -0 21G<112 204> 180 87<228 404.618> 505 86<228 399.698> 674 20G<115.5 205.5>
VStem: 91 137<4.4173 180 267 505 591 690.154> 446 134<309.376 461.435>
LayerCount: 2
Fore
SplineSet
91 47 m 2
 91 648 l 2
 91 669 94 694 137 694 c 2
 185 694 l 2
 226 694 228 664 228 648 c 2
 228 591 l 1
 335 591 l 1
 413 590 580 592 580 388 c 0
 580 195 438 180 342 180 c 2
 228 180 l 1
 228 46 l 2
 228 28 226 0 182 -0 c 2
 135 -0 l 2
 89 0 91 35 91 47 c 2
228 267 m 1
 309 267 l 2
 355 267 446 268 446 386 c 0
 446 511 332 505 298 505 c 2
 228 505 l 1
 228 267 l 1
EndSplineSet
EndChar

StartChar: Germandbls
Encoding: 61699 61699 234
Width: 1222
Flags: HW
TeX: 694 0
HStem: -22 108<188.923 387.596 801.026 998.777> 613 104<218.445 404.958 829.112 1013.35>
VStem: 60 125<477.076 582.525> 423 126<118.811 240.549> 671 125<477.076 582.525> 1034 126<119.021 240.549>
LayerCount: 2
Fore
SplineSet
49 63 m 0
 49 71 52 87 63 147 c 0
 67 169 71 177 78 177 c 0
 100 177 148 86 310 86 c 0
 365 86 423 106 423 184 c 0
 423 237 380 263 363 271 c 0
 344 280 303 287 232 305 c 0
 152 325 60 393 60 509 c 0
 60 592 92 717 306 717 c 0
 419 717 506 671 510 660 c 0
 511 658 511 657 511 653 c 0
 511 642 507 617 493 548 c 1
 490 540 487 537 483 537 c 0
 456 537 449 602 316 613 c 1
 295 613 l 1
 202 610 185 563 185 529 c 0
 185 453 279 440 305 434 c 0
 384 416 402 412 438 390 c 0
 469 371 549 314 549 199 c 0
 549 91 500 -22 305 -22 c 0
 173 -22 58 39 51 54 c 0
 50 58 49 59 49 63 c 0
660 63 m 0
 660 71 663 87 674 147 c 0
 678 169 683 177 690 177 c 0
 713 177 763 86 921 86 c 0
 977 86 1034 106 1034 184 c 0
 1034 237 991 263 974 271 c 0
 955 280 914 287 843 305 c 0
 763 325 671 393 671 509 c 0
 671 592 702 717 917 717 c 0
 1030 717 1116 671 1120 660 c 0
 1121 658 1121 657 1121 653 c 0
 1121 642 1118 617 1104 548 c 1
 1101 540 1097 537 1093 537 c 0
 1066 537 1059 602 927 613 c 1
 906 613 l 1
 813 610 796 563 796 529 c 0
 796 453 890 440 916 434 c 0
 995 416 1013 412 1049 390 c 0
 1080 371 1160 314 1160 199 c 0
 1160 92 1111 -22 916 -22 c 0
 784 -22 669 39 662 54 c 0
 661 58 660 59 660 63 c 0
EndSplineSet
EndChar

StartChar: agrave
Encoding: 224 224 235
Width: 525
Flags: HW
TeX: 666 0
HStem: -11 73<128 280.881> -0 21<355 439> 232 59<219.447 328> 405 70<159.632 308.344>
VStem: 30 131<82.0559 188.032> 328 136<4.81284 40 94.1523 232 291 387.448>
AnchorPoint: "below" 257 0 basechar 0
AnchorPoint: "above" 257 659 basechar 0
LayerCount: 2
Fore
SplineSet
169 664 m 2
 169 669 l 1
 173 679 180 679 190 679 c 2
 282 679 l 2
 303 679 299 679 394 555 c 1
 399 545 l 1
 400 541 l 1
 399 532 395 528 381 528 c 0x3c
 372 528 363 528 354 528 c 0
 336 528 336 529 318 543 c 0
 168 660 169 656 169 664 c 2
EndSplineSet
Refer: 108 97 S 1 0 0 1 0 -0 3
AlternateSubs2: "Stilistic set 01 subtable" agrave.vn
AlternateSubs2: "Latin alternatives subtable" agrave.vn
Substitution2: "Latin Vietnamese substitutions subtable" agrave.vn
EndChar

StartChar: aacute
Encoding: 225 225 236
Width: 525
Flags: HW
TeX: 666 0
HStem: -11 73<128 280.881> -0 21<355 439> 232 59<219.447 328> 405 70<159.632 308.344>
VStem: 30 131<82.0559 188.032> 328 136<4.81284 40 94.1523 232 291 387.448>
AnchorPoint: "below" 257 0 basechar 0
AnchorPoint: "above" 257 659 basechar 0
LayerCount: 2
Fore
SplineSet
147 540 m 0
 147 549 171 577 240 666 c 0
 247 675 252 679 268 679 c 2
 353 679 l 2
 371 679 372 676 376 674 c 1
 379 669 l 1
 379 665 l 1
 378 657 373 655 340 629 c 0
 210 528 216 528 196 528 c 2x3c
 170 528 l 1
 161 529 147 527 147 540 c 0
EndSplineSet
Refer: 108 97 S 1 0 0 1 0 -0 3
AlternateSubs2: "Stilistic set 01 subtable" aacute.vn
AlternateSubs2: "Latin alternatives subtable" aacute.vn
Substitution2: "Latin Vietnamese substitutions subtable" aacute.vn
EndChar

StartChar: acircumflex
Encoding: 226 226 237
Width: 525
Flags: HW
TeX: 666 0
HStem: -11 73<128 280.881> -0 21<355 439> 232 59<219.447 328> 405 70<159.632 308.344>
VStem: 30 131<82.0559 188.032> 328 136<4.81284 40 94.1523 232 291 387.448>
AnchorPoint: "below" 257 0 basechar 0
AnchorPoint: "above" 257 658 basechar 0
LayerCount: 2
Fore
SplineSet
89 540 m 0
 89 548 89 547 190 656 c 0
 207 674 208 678 227 678 c 2
 322 678 l 2
 341 678 342 671 353 656 c 0
 429 552 434 548 434 540 c 0
 434 526 416 527 406 527 c 2x3c
 385 527 l 2
 366 527 369 528 261 608 c 1
 145 522 156 527 138 527 c 2
 116 527 l 2
 107 527 89 527 89 540 c 0
EndSplineSet
Refer: 108 97 S 1 0 0 1 0 -0 3
AlternateSubs2: "Stilistic set 01 subtable" acircumflex.vn
AlternateSubs2: "Latin alternatives subtable" acircumflex.vn
Substitution2: "Latin Vietnamese substitutions subtable" acircumflex.vn
EndChar

StartChar: adieresis
Encoding: 228 228 239
Width: 525
Flags: HW
TeX: 694 0
HStem: -11 73<128 280.881> -0 21<355 439> 232 59<219.447 328> 405 70<159.632 308.344> 552 142<100.094 233.45 313.264 448.047>
VStem: 30 131<82.0559 188.032> 96 142<556.356 690.315> 309 143<556.235 690.045> 328 136<4.81284 40 94.1523 232 291 387.448>
AnchorPoint: "below" 257 0 basechar 0
AnchorPoint: "above" 257 674 basechar 0
LayerCount: 2
Fore
SplineSet
96 597 m 2
 96 650 l 2
 96 694 127 694 143 694 c 2
 192 694 l 2
 220 694 238 685 238 647 c 2
 238 598 l 2x3a
 238 551 204 553 193 552 c 1
 176 552 159 552 142 552 c 0
 120 552 96 558 96 597 c 2
309 599 m 0
 309 603 310 606 310 610 c 2
 310 640 l 2
 310 642 309 644 309 646 c 0
 309 693 334 693 355 694 c 1
 406 694 l 2
 429 694 452 688 452 649 c 0
 452 645 451 642 451 638 c 2
 451 602 l 2
 451 600 452 598 452 595 c 0
 452 550 416 553 407 552 c 1x39
 355 552 l 2
 328 552 309 562 309 599 c 0
EndSplineSet
Refer: 108 97 S 1 0 0 1 -0 -0 3
EndChar

StartChar: aring
Encoding: 229 229 240
Width: 525
Flags: HW
TeX: 666 0
HStem: -11 73<128 280.881> 0 21<355 439> 232 59<219.447 328> 405 70<159.632 308.344> 492 35<210.183 314.028> 631 35<209.213 312.463>
VStem: 30 131<82.0559 188.032> 139 62<533.184 624.636> 323 61<533.614 623.99> 328 136<4.81284 40 94.1523 232 291 387.448>
LayerCount: 2
Fore
SplineSet
139 579 m 0
 139 614 155 662 247 666 c 1
 268 666 l 1
 368 665 384 614 384 579 c 0
 384 544 368 496 277 492 c 1
 255 492 l 1
 154 494 139 544 139 579 c 0
201 580 m 0x3d80
 201 538 220 527 260 527 c 1
 288 528 323 526 323 579 c 0
 323 621 303 631 264 631 c 1
 236 630 201 633 201 580 c 0x3d80
EndSplineSet
Refer: 108 97 S 1 0 0 1 0 0 3
EndChar

StartChar: ae
Encoding: 230 230 241
Width: 794
Flags: HW
TeX: 458 0
HStem: -11 72<124 311.787 513.659 669.509> 193 65<204.92 328> 214 65<467 648> 402 73<155.632 313.226 506.007 619.283>
VStem: 30 132<78.7201 161.096> 328 139<279 358.514> 344 121<114.953 190.867> 648 114<279 369.719>
AnchorPoint: "below" 396 0 basechar 0
AnchorPoint: "above" 397 475 basechar 0
LayerCount: 2
Fore
SplineSet
30 125 m 0
 30 232 192 257 328 258 c 1
 328 314 l 2
 328 355 324 405 257 405 c 0
 147 405 112 340 91 336 c 1
 87 337 l 1
 83 339 l 1
 74 351 72 417 72 417 c 1
 72 430 77 434 98 443 c 0
 143 463 189 475 265 475 c 0
 335 475 378 463 414 435 c 1
 415 435 l 1
 453 462 506 475 565 475 c 0
 723 475 762 366 762 258 c 0xdd
 762 215 735 214 712 214 c 2
 465 214 l 1xbb
 466 138 489 62 583 62 c 0
 679 62 719 125 738 128 c 1
 742 127 l 1
 746 124 l 1
 755 111 756 55 756 55 c 1
 756 43 751 39 733 29 c 0
 679 -2 624 -11 577 -11 c 0
 505 -11 445 6 401 44 c 1
 400 44 l 1
 346 0 252 -11 173 -11 c 0
 75 -11 30 67 30 125 c 0
162 124 m 0
 162 105 176 61 235 61 c 0
 287 61 344 92 344 122 c 0
 344 133 336 147 330 193 c 1xdb
 310 193 162 190 162 124 c 0
467 279 m 1
 648 279 l 1
 646 344 631 402 565 402 c 0xbd
 501 402 472 350 467 279 c 1
EndSplineSet
EndChar

StartChar: ccedilla
Encoding: 231 231 242
Width: 489
Flags: HW
TeX: 458 170
HStem: -43 20G<249.5 292.5> -11 78<213.201 372.03> 397 78<213.366 372.938>
VStem: 36 137<109.842 350.125>
AnchorPoint: "above" 280 475 basechar 0
LayerCount: 2
Fore
SplineSet
36 228 m 0
 36 426 150 475 280 475 c 0
 345 475 382 467 442 434 c 0
 448 430 450 426 450 418 c 1
 450 418 445 340 426 340 c 0
 410 340 390 373 347 388 c 0
 318 398 285 397 270 397 c 0
 174 393 173 296 173 242 c 0
 173 236 173 230 173 224 c 0
 173 161 175 67 277 67 c 0
 381 67 417 128 438 131 c 1
 443 130 l 1
 451 125 450 126 456 60 c 1
 456 52 l 2
 456 37 447 33 436 27 c 0
 392 4 340 -11 274 -11 c 0
 83 -11 36 109 36 228 c 0
147 -179 m 0
 147 -171 156 -158 230 -43 c 0
 236 -34 242 -23 257 -23 c 2
 286 -23 l 2
 299 -23 309 -26 309 -37 c 0
 309 -42 310 -40 254 -175 c 0
 246 -193 238 -193 229 -193 c 2
 165 -193 l 2
 158 -193 147 -190 147 -179 c 0
EndSplineSet
EndChar

StartChar: egrave
Encoding: 232 232 243
Width: 511
Flags: HW
TeX: 666 0
HStem: -11 73<210.333 383.373> 214 65<160 367> 402 73<204.941 333.723>
VStem: 30 129<116.945 214 279 352.43> 367 112<279 364.091>
AnchorPoint: "below" 284 0 basechar 0
AnchorPoint: "above" 270 659 basechar 0
LayerCount: 2
Fore
SplineSet
180 668 m 1
 183 678 191 679 201 679 c 2
 293 679 l 2
 314 679 310 679 405 555 c 1
 411 545 l 1
 412 541 l 1
 411 532 407 528 393 528 c 2
 365 528 l 2
 347 528 347 529 329 543 c 0
 176 662 181 654 180 668 c 1
EndSplineSet
Refer: 112 101 S 1 0 0 1 0 -0 3
AlternateSubs2: "Stilistic set 01 subtable" egrave.vn
AlternateSubs2: "Latin alternatives subtable" egrave.vn
Substitution2: "Latin Vietnamese substitutions subtable" egrave.vn
EndChar

StartChar: ecircumflex
Encoding: 234 234 245
Width: 511
Flags: HW
TeX: 666 0
HStem: -11 73<210.333 383.373> 214 65<160 367> 402 73<204.941 333.723>
VStem: 30 129<116.945 214 279 352.43> 367 112<279 364.091>
AnchorPoint: "below" 284 0 basechar 0
AnchorPoint: "above" 270 658 basechar 0
LayerCount: 2
Fore
SplineSet
83 540 m 0
 83 548 82 547 185 657 c 0
 196 669 202 678 220 678 c 2
 291 678 l 2
 310 678 307 675 417 557 c 0
 421 552 427 546 427 540 c 0
 427 527 411 527 400 527 c 2
 377 527 l 2
 360 527 361 529 254 608 c 1
 139 523 149 527 131 527 c 2
 110 527 l 2
 101 527 83 527 83 540 c 0
EndSplineSet
Refer: 112 101 S 1 0 0 1 0 0 3
AlternateSubs2: "Stilistic set 01 subtable" ecircumflex.vn
AlternateSubs2: "Latin alternatives subtable" ecircumflex.vn
Substitution2: "Latin Vietnamese substitutions subtable" ecircumflex.vn
EndChar

StartChar: edieresis
Encoding: 235 235 246
Width: 511
Flags: HW
TeX: 694 0
HStem: -11 73<210.333 383.373> 214 65<160 367> 402 73<204.941 333.723> 552 142<81.2383 214.716 293.999 427.861>
VStem: 30 129<116.945 214 279 352.43> 77 142<556.008 690.256> 290 142<556.008 690.125> 367 112<279 364.091>
AnchorPoint: "below" 284 0 basechar 0
AnchorPoint: "above" 270 674 basechar 0
LayerCount: 2
Fore
SplineSet
77 598 m 2
 77 648 l 2
 77 694 106 693 122 694 c 1
 173 694 l 2
 196 694 219 689 219 648 c 0
 219 631 219 614 219 597 c 0xf4
 219 550 185 553 174 552 c 1
 123 552 l 2
 100 552 77 558 77 598 c 2
290 598 m 2
 290 647 l 2
 290 693 317 693 336 694 c 1
 386 694 l 2
 409 694 433 689 433 648 c 0
 433 644 432 641 432 638 c 2
 432 596 l 2
 432 550 397 553 388 552 c 1xf2
 336 552 l 2
 313 552 290 558 290 598 c 2
EndSplineSet
Refer: 112 101 S 1 0 0 1 -0 0 3
EndChar

StartChar: igrave
Encoding: 236 236 247
Width: 255
Flags: HW
TeX: 666 0
HStem: -0 21<81.5 172.5> 438 20<81.5 168.5>
VStem: -38 230 60 134<3.67405 453.828>
AnchorPoint: "below" 127 0 basechar 0
AnchorPoint: "above" 127 676 basechar 0
LayerCount: 2
Fore
SplineSet
-38 664 m 2
 -38 669 l 1
 -34 679 -28 679 -18 679 c 2
 75 679 l 2
 96 679 92 678 186 555 c 1
 192 545 l 1
 193 541 l 1
 192 532 188 528 174 528 c 2xe0
 146 528 l 2
 128 528 128 529 110 543 c 0
 -39 660 -38 656 -38 664 c 2
EndSplineSet
Refer: 36 305 S 1 0 0 1 0 -0 3
AlternateSubs2: "Stilistic set 01 subtable" igrave.vn
AlternateSubs2: "Latin alternatives subtable" igrave.vn
Substitution2: "Latin Vietnamese substitutions subtable" igrave.vn
Ligature2: "Latin ligatures excepting Turkic subtable" i gravecomb
EndChar

StartChar: iacute
Encoding: 237 237 248
Width: 255
Flags: HW
TeX: 666 0
ItalicCorrection: 41
HStem: 0 21<81.5 172.5> 438 20<81.5 168.5>
VStem: 31 228 60 134<3.67405 453.828>
AnchorPoint: "below" 127 0 basechar 0
AnchorPoint: "above" 127 676 basechar 0
LayerCount: 2
Fore
SplineSet
31 540 m 0
 31 549 54 577 123 665 c 0
 130 674 133 679 150 679 c 2
 236 679 l 2
 254 679 255 676 259 674 c 1
 262 669 l 1
 262 665 l 1
 261 657 257 655 224 629 c 0
 94 528 99 528 79 528 c 0xe0
 70 528 62 528 53 528 c 0
 45 528 31 527 31 540 c 0
EndSplineSet
Refer: 36 305 S 1 0 0 1 -0 0 3
AlternateSubs2: "Stilistic set 01 subtable" iacute.vn
AlternateSubs2: "Latin alternatives subtable" iacute.vn
Substitution2: "Latin Vietnamese substitutions subtable" iacute.vn
Ligature2: "Cyrillic ligatures subtable" afii10103 acutecomb
Ligature2: "Latin ligatures excepting Turkic subtable" i acutecomb
EndChar

StartChar: icircumflex
Encoding: 238 238 249
Width: 255
Flags: HW
TeX: 666 0
HStem: -0 21<82.5 173.5> 438 20<82.5 169.5>
VStem: 61 134<3.67405 453.828>
AnchorPoint: "below" 127 0 basechar 0
AnchorPoint: "above" 127 675 basechar 0
LayerCount: 2
Fore
SplineSet
-43 540 m 0
 -43 548 -43 547 59 657 c 0
 70 669 75 678 93 678 c 2
 164 678 l 2
 183 678 181 675 291 557 c 0
 295 552 300 546 300 540 c 0
 300 526 283 527 273 527 c 2
 250 527 l 2
 233 527 235 529 128 608 c 1
 20 522 16 527 6 527 c 2
 -16 527 l 2
 -26 527 -43 527 -43 540 c 0
EndSplineSet
Refer: 36 305 S 1 0 0 1 1 -0 2
Ligature2: "Latin ligatures excepting Turkic subtable" i uni0302
EndChar

StartChar: idieresis
Encoding: 239 239 250
Width: 317
Flags: HW
TeX: 694 0
HStem: -0 21<112.5 203.5> 438 20<112.5 199.5> 552 142<-15.7368 118.179 198.116 331.716>
VStem: -20 142<555.733 690.211> 91 134<3.67405 453.828> 194 142<555.955 689.997>
AnchorPoint: "above" 158 674 basechar 0
LayerCount: 2
Fore
SplineSet
-20 599 m 2
 -20 646 l 2
 -20 696 9 693 26 694 c 1
 76 694 l 2
 100 694 122 688 122 649 c 0
 122 631 122 613 122 595 c 0xf0
 122 550 87 553 78 552 c 1
 25 552 l 2
 2 552 -20 558 -20 599 c 2
194 597 m 2
 194 649 l 2
 194 685 212 694 241 694 c 2
 290 694 l 2
 318 694 336 685 336 647 c 2
 336 597 l 2
 336 550 302 553 291 552 c 1xe4
 274 552 257 552 240 552 c 0
 217 552 194 558 194 597 c 2
EndSplineSet
Refer: 36 305 S 1 0 0 1 31 -0 2
Ligature2: "Latin ligatures excepting Turkic subtable" i uni0308
EndChar

StartChar: eth
Encoding: 240 240 251
Width: 550
Flags: HW
TeX: 720 0
HStem: -11 78<204.541 342.713> 402 73<208.199 323.236> 701 20G<157 170 305.5 314>
VStem: 30 137<108.391 348.385> 381 137<110.284 355.724>
LayerCount: 2
Fore
SplineSet
30 225 m 0
 30 349 79 475 275 475 c 2
 277 475 l 2
 294 475 310 474 326 472 c 1
 299 513 290 523 246 566 c 1
 245 566 l 1
 217 550 205 541 196 541 c 0
 189 541 184 547 176 560 c 0
 150 605 144 614 144 621 c 0
 144 624 145 625 146 629 c 1
 106 643 87 648 87 658 c 0
 87 667 104 679 136 706 c 0
 143 712 152 721 162 721 c 0
 178 721 227 703 251 691 c 1
 252 691 l 1
 286 711 301 720 310 720 c 0
 318 720 322 712 331 697 c 0
 350 664 360 650 360 641 c 0
 360 636 357 632 351 627 c 1
 425 556 518 464 518 260 c 2
 518 240 l 2
 518 149 506 -11 274 -11 c 0
 148 -11 30 36 30 225 c 0
167 213 m 1
 169 153 172 67 274 67 c 0
 379 67 381 159 381 234 c 2
 381 242 l 2
 381 303 380 402 274 402 c 0
 168 402 167 307 167 265 c 2
 167 213 l 1
EndSplineSet
EndChar

StartChar: ntilde
Encoding: 241 241 252
Width: 561
Flags: HW
TeX: 666 0
HStem: -0 21<94.5 173 390.5 477.5> 396 73<253.581 427.175> 541 74<302.766 384.378> 593 73<173.612 257.221>
VStem: 59 137<6.73599 347.523 400 457.105> 97 75<541.056 589.42> 364 136<3.77809 387.272> 387 76<619.182 665.94>
LayerCount: 2
Fore
SplineSet
97 560 m 0
 97 601 134 666 209 666 c 0xd5
 283 666 316 615 352 615 c 2
 353 615 l 2xe5
 368 615 382 626 387 640 c 0
 391 651 387 665 410 666 c 1xd5
 442 666 l 2xd5
 455 666 463 663 463 647 c 0
 463 610 429 541 351 541 c 0xe5
 278 541 243 593 207 593 c 0xd5
 191 593 178 582 172 568 c 0
 167 556 172 542 149 541 c 1
 120 541 l 2xe5
 109 541 97 541 97 560 c 0
EndSplineSet
Refer: 121 110 S 1 0 0 1 -0 -0 3
EndChar

StartChar: ograve
Encoding: 242 242 253
Width: 550
Flags: HW
TeX: 666 0
HStem: -11 78<205.188 343.8> 402 73<204.616 341.611>
VStem: 30 137<107.969 347.594> 381 137<105.859 349.401>
AnchorPoint: "below" 275 0 basechar 0
AnchorPoint: "above" 259 659 basechar 0
LayerCount: 2
Fore
SplineSet
169 664 m 2
 169 669 l 1
 173 679 180 679 190 679 c 2
 282 679 l 2
 303 679 299 679 394 555 c 1
 399 545 l 1
 400 541 l 1
 399 532 395 528 381 528 c 0
 372 528 363 528 354 528 c 0
 336 528 336 529 318 543 c 0
 168 660 169 656 169 664 c 2
EndSplineSet
Refer: 122 111 S 1 0 0 1 0 -0 3
AlternateSubs2: "Stilistic set 01 subtable" ograve.vn
AlternateSubs2: "Latin alternatives subtable" ograve.vn
Substitution2: "Latin Vietnamese substitutions subtable" ograve.vn
EndChar

StartChar: ocircumflex
Encoding: 244 244 255
Width: 550
Flags: HW
TeX: 666 0
HStem: -11 78<205.188 343.8> 402 73<204.616 341.611>
VStem: 30 137<107.969 347.594> 381 137<105.859 349.401>
AnchorPoint: "below" 275 0 basechar 0
AnchorPoint: "above" 259 658 basechar 0
LayerCount: 2
Fore
SplineSet
102 540 m 0
 102 548 102 547 205 657 c 0
 216 669 221 678 239 678 c 2
 310 678 l 2
 329 678 327 675 437 557 c 0
 441 552 446 546 446 540 c 0
 446 527 429 527 419 527 c 2
 398 527 l 2
 379 527 382 528 274 608 c 1
 158 522 169 527 151 527 c 2
 129 527 l 2
 120 527 102 527 102 540 c 0
EndSplineSet
Refer: 122 111 S 1 0 0 1 0 -0 3
AlternateSubs2: "Stilistic set 01 subtable" ocircumflex.vn
AlternateSubs2: "Latin alternatives subtable" ocircumflex.vn
Substitution2: "Latin Vietnamese substitutions subtable" ocircumflex.vn
EndChar

StartChar: odieresis
Encoding: 246 246 257
Width: 550
Flags: HW
TeX: 694 0
HStem: -11 78<205.188 343.8> 402 73<204.616 341.611> 552 142<100.094 233.45 313.264 448.047>
VStem: 30 137<107.969 347.594> 96 142<556.356 690.315> 309 143<556.235 690.045> 381 137<105.859 349.401>
AnchorPoint: "below" 275 0 basechar 0
AnchorPoint: "above" 259 674 basechar 0
LayerCount: 2
Fore
SplineSet
96 597 m 2
 96 650 l 2
 96 694 127 694 143 694 c 2
 192 694 l 2
 220 694 238 685 238 647 c 2
 238 598 l 2xe8
 238 551 204 553 193 552 c 1
 176 552 159 552 142 552 c 0
 120 552 96 558 96 597 c 2
309 599 m 0
 309 603 310 606 310 610 c 2
 310 640 l 2
 310 642 309 644 309 646 c 0
 309 693 334 693 355 694 c 1
 406 694 l 2
 429 694 452 688 452 649 c 0
 452 645 451 642 451 638 c 2
 451 602 l 2
 451 600 452 598 452 595 c 0
 452 550 416 553 407 552 c 1xe4
 355 552 l 2
 328 552 309 562 309 599 c 0
EndSplineSet
Refer: 122 111 S 1 0 0 1 -0 -0 3
EndChar

StartChar: oe
Encoding: 339 339 258
Width: 855
Flags: HW
TeX: 458 0
HStem: -11 73<205.201 346.974 574.221 733.345> 214 65<528 709> 402 73<201.816 349.38 567.477 680.283>
VStem: 30 131<112.419 351.812> 389 137<114.961 214 279 355.369> 709 114<279 369.719>
AnchorPoint: "below" 426 0 basechar 0
AnchorPoint: "above" 440 475 basechar 0
LayerCount: 2
Fore
SplineSet
30 231 m 0
 30 427 151 475 266 475 c 0
 337 475 402 468 456 420 c 1
 457 420 l 1
 498 457 553 475 626 475 c 0
 784 475 823 366 823 258 c 0
 823 215 793 214 776 214 c 2
 526 214 l 1
 527 138 550 62 644 62 c 0
 741 62 780 125 799 128 c 1
 803 127 l 1
 807 124 l 1
 816 111 817 55 817 55 c 1
 817 43 812 39 794 29 c 0
 740 -2 685 -11 638 -11 c 0
 531 -11 482 26 459 46 c 1
 431 23 386 -11 275 -11 c 0
 122 -11 30 66 30 231 c 0
161 211 m 1
 163 139 175 62 276 62 c 0
 390 62 388 165 389 226 c 1
 389 252 l 1
 388 305 389 402 276 402 c 0
 169 402 162 320 161 260 c 1
 161 211 l 1
528 279 m 1
 709 279 l 1
 707 344 692 402 626 402 c 0
 562 402 533 350 528 279 c 1
EndSplineSet
EndChar

StartChar: oslash
Encoding: 248 248 259
Width: 550
Flags: HW
TeX: 555 97
HStem: -11 72<225.619 354.22> 402 73<197.938 324.252>
VStem: 30 120<115.453 348.438> 398 120<107.969 342.038>
DStem2: 118 26 185 -2 0.491205 0.871044<-137.888 2.60859 99.8499 407.05 505.832 645.823>
LayerCount: 2
Fore
SplineSet
30 225 m 0
 30 425 150 475 273 475 c 0
 314 475 338 469 365 464 c 1
 427 575 430 591 457 591 c 0
 477 591 494 576 494 556 c 0
 494 543 493 543 431 434 c 1
 456 416 518 370 518 224 c 0
 518 36 400 -11 275 -11 c 0
 230 -11 220 -8 185 -2 c 1
 126 -108 119 -133 90 -133 c 0
 72 -133 54 -118 54 -97 c 0
 54 -80 60 -77 118 26 c 1
 57 67 30 132 30 225 c 0
150 222 m 2
 150 145 159 133 167 113 c 1
 325 395 l 1
 309 399 299 402 274 402 c 0
 151 402 150 301 150 228 c 2
 150 222 l 2
225 67 m 1
 250 63 254 61 274 61 c 0
 395 61 398 151 398 218 c 2
 398 229 l 2
 398 304 389 324 381 345 c 1
 225 67 l 1
EndSplineSet
EndChar

StartChar: ugrave
Encoding: 249 249 260
Width: 561
Flags: HW
TeX: 666 0
HStem: -11 61<203.325 322.051> -0 21<386.5 468> 438 20<80.5 172.5 405 467.5>
VStem: 59 137<57.3204 453.726> 364 136<4.7946 44 94.1758 448.445>
AnchorPoint: "below" 280 0 basechar 0
AnchorPoint: "above" 280 676 basechar 0
LayerCount: 2
Fore
SplineSet
159 664 m 2
 159 669 l 1
 163 679 170 679 180 679 c 2
 272 679 l 2
 293 679 285 683 384 555 c 1
 390 545 l 1
 391 541 l 1
 390 532 386 528 372 528 c 2x38
 344 528 l 2
 326 528 326 529 308 543 c 0
 158 660 159 656 159 664 c 2
EndSplineSet
Refer: 128 117 S 1 0 0 1 0 -0 3
AlternateSubs2: "Stilistic set 01 subtable" ugrave.vn
AlternateSubs2: "Latin alternatives subtable" ugrave.vn
Substitution2: "Latin Vietnamese substitutions subtable" ugrave.vn
EndChar

StartChar: uacute
Encoding: 250 250 261
Width: 561
Flags: HW
TeX: 666 0
HStem: -11 61<203.325 322.051> 0 21<386.5 468> 438 20<80.5 172.5 405 467.5>
VStem: 59 137<57.3204 453.726> 364 136<4.7946 44 94.1758 448.445>
AnchorPoint: "below" 280 0 basechar 0
AnchorPoint: "above" 280 676 basechar 0
LayerCount: 2
Fore
SplineSet
153 540 m 0
 153 549 154 547 246 665 c 0
 253 674 257 679 274 679 c 2
 359 679 l 2
 377 679 378 676 382 674 c 1
 385 669 l 1
 385 665 l 1
 384 657 376 653 346 629 c 0
 216 528 222 528 202 528 c 2x38
 176 528 l 2
 168 528 153 527 153 540 c 0
EndSplineSet
Refer: 128 117 S 1 0 0 1 0 0 3
AlternateSubs2: "Stilistic set 01 subtable" uacute.vn
AlternateSubs2: "Latin alternatives subtable" uacute.vn
Substitution2: "Latin Vietnamese substitutions subtable" uacute.vn
EndChar

StartChar: ucircumflex
Encoding: 251 251 262
Width: 561
Flags: HW
TeX: 666 0
HStem: -11 61<203.325 322.051> 0 21<386.5 468> 438 20<80.5 172.5 405 467.5>
VStem: 59 137<57.3204 453.726> 364 136<4.7946 44 94.1758 448.445>
AnchorPoint: "below" 280 0 basechar 0
AnchorPoint: "above" 280 675 basechar 0
LayerCount: 2
Fore
SplineSet
108 540 m 0
 108 548 108 547 210 657 c 0
 221 669 227 678 245 678 c 2
 313 678 l 2
 332 678 334 673 352 654 c 0
 448 550 452 548 452 540 c 0
 452 527 436 527 424 527 c 2x38
 402 527 l 2
 385 527 386 529 279 608 c 1
 165 523 175 528 157 527 c 1
 135 527 l 2
 125 527 108 527 108 540 c 0
EndSplineSet
Refer: 128 117 S 1 0 0 1 0 0 3
EndChar

StartChar: udieresis
Encoding: 252 252 263
Width: 561
Flags: HW
TeX: 694 0
HStem: -11 61<203.325 322.051> 0 21<386.5 468> 438 20<80.5 172.5 405 467.5> 552 142<105.953 240.047 320.238 453.716>
VStem: 59 137<57.3204 453.726> 102 142<556.137 690.256> 316 142<555.919 690.256> 364 136<4.7946 44 94.1758 448.445>
AnchorPoint: "below" 280 0 basechar 0
AnchorPoint: "above" 280 691 basechar 0
LayerCount: 2
Fore
SplineSet
102 598 m 2
 102 647 l 2
 102 693 128 693 147 694 c 1
 198 694 l 2
 221 694 244 689 244 648 c 2
 244 596 l 2x34
 244 550 208 553 199 552 c 1
 182 552 165 552 148 552 c 0
 125 552 102 557 102 598 c 2
315 598 m 0
 315 602 316 606 316 610 c 2
 316 648 l 2
 316 694 345 693 361 694 c 1
 378 694 395 694 412 694 c 0
 435 694 458 689 458 648 c 0
 458 631 458 614 458 597 c 0
 458 550 424 553 413 552 c 1x32
 361 552 l 2
 338 552 315 558 315 598 c 0
EndSplineSet
Refer: 128 117 S 1 0 0 1 -0 0 3
EndChar

StartChar: yacute
Encoding: 253 253 264
Width: 500
Flags: HW
TeX: 666 194
ItalicCorrection: 15
HStem: -206 86<54.7113 176.31> -193 96<47 109.958> 438 20<59.5 103.5 385.5 452>
AnchorPoint: "below" 251 -195 basechar 0
AnchorPoint: "above" 262 676 basechar 0
LayerCount: 2
Fore
SplineSet
184 540 m 0
 184 549 184 547 276 665 c 0
 283 674 287 679 304 679 c 2
 390 679 l 2
 408 679 408 676 412 674 c 1
 415 669 l 1
 416 665 l 1
 415 657 407 653 377 629 c 0
 247 528 253 528 233 528 c 2x20
 207 528 l 1
 198 529 184 527 184 540 c 0
EndSplineSet
Refer: 132 121 S 1 0 0 1 0 0 3
AlternateSubs2: "Stilistic set 01 subtable" yacute.vn
AlternateSubs2: "Latin alternatives subtable" yacute.vn
Substitution2: "Latin Vietnamese substitutions subtable" yacute.vn
EndChar

StartChar: thorn
Encoding: 254 254 265
Width: 561
Flags: HW
TeX: 720 194
HStem: -195 21G<82.5 174.5> -11 73<221.188 338.353> 391 78<232.664 346.06> 702 20G<81 167.5>
VStem: 60 137<-190.797 26 79.207 373.032 427 716.469> 386 137<113.426 345>
LayerCount: 2
Fore
SplineSet
60 -146 m 2
 60 674 l 2
 60 688 57 722 105 722 c 0
 120 722 135 722 150 722 c 0
 185 722 194 702 194 678 c 2
 194 427 l 1
 233 451 280 469 340 469 c 0
 478 469 505 360 512 335 c 0
 521 299 523 265 523 224 c 0
 522 35 411 -11 309 -11 c 0
 261 -11 229 3 197 26 c 1
 197 -147 l 2
 197 -162 197 -195 152 -195 c 2
 106 -195 l 2
 59 -195 60 -164 60 -146 c 2
197 100 m 1
 206 91 227 62 273 62 c 0
 306 62 340 75 360 106 c 0
 385 145 386 192 386 230 c 2
 386 242 l 2
 386 318 365 391 284 391 c 0
 238 391 214 370 197 358 c 1
 197 100 l 1
EndSplineSet
EndChar

StartChar: germandbls
Encoding: 223 223 266
Width: 565
Flags: HW
TeX: 720 0
HStem: -11 79<325.243 420.357> -0 21G<81 155.5> 660 73<213.027 349.64>
VStem: 60 134<4.4173 642.411> 254 100<302.794 401.99> 369 134<475.505 642.142> 428 99<75.6063 166.653>
LayerCount: 2
Fore
SplineSet
60 47 m 2
 60 571 l 2
 60 737 216 733 289 733 c 0
 413 733 503 701 503 570 c 0x7c
 503 416 417 408 382 403 c 1
 360 401 354 395 354 350 c 0
 354 306 364 304 385 300 c 0
 416 294 449 290 484 253 c 0
 515 221 527 180 527 140 c 0
 527 19 454 -11 383 -11 c 0
 309 -11 255 32 255 49 c 1
 255 49 266 129 275 140 c 1
 279 143 l 1
 283 143 l 1
 299 142 310 68 380 68 c 0
 418 68 428 94 428 120 c 0xba
 428 175 383 178 349 185 c 1
 298 199 254 251 254 333 c 0
 254 453 321 472 368 475 c 1
 368 480 369 486 369 491 c 0
 369 518 366 552 366 571 c 0
 366 615 367 660 283 660 c 2
 279 660 l 2
 200 660 194 624 194 574 c 2
 194 46 l 2
 194 2 165 0 146 -0 c 2x7c
 104 -0 l 2
 58 0 60 35 60 47 c 2
EndSplineSet
EndChar

StartChar: grave.uc
Encoding: 65542 -1 267
Width: 550
Flags: HW
TeX: 630 0
HStem: 612 30<64.8024 116.471>
VStem: 64 297
LayerCount: 2
Fore
SplineSet
64 630 m 1
 66 640 72 642 84 642 c 2
 223 642 l 2
 243 642 242 640 351 556 c 0
 360 549 360 545 361 542 c 1
 361 538 l 1
 359 533 357 528 342 528 c 2
 290 528 l 2
 275 528 273 530 83 612 c 0
 65 620 66 622 64 630 c 1
EndSplineSet
EndChar

StartChar: acute.uc
Encoding: 65543 -1 268
Width: 550
Flags: HW
TeX: 630 0
HStem: 615 27<444.062 483.971>
VStem: 187 297
LayerCount: 2
Fore
SplineSet
187 540 m 0
 187 545 191 550 194 553 c 0
 310 642 305 642 325 642 c 2
 464 642 l 2
 481 642 484 634 484 629 c 0
 484 620 474 617 471 615 c 0
 270 528 274 528 254 528 c 2
 204 528 l 1
 190 529 188 534 187 540 c 0
EndSplineSet
EndChar

StartChar: tilde.uc
Encoding: 65544 -1 269
Width: 550
Flags: HW
TeX: 666 0
HStem: 499 73<310.253 352> 593 73<195 238.118>
VStem: 91 69<499.001 582.545>
LayerCount: 2
Fore
SplineSet
91 520 m 0
 91 571 120 666 200 666 c 0
 277 666 300 574 345 572 c 1
 352 573 l 1
 360 576 l 1
 402 611 365 664 404 666 c 1
 438 666 l 1
 451 665 457 662 457 645 c 0
 457 607 435 499 348 499 c 0
 272 499 248 591 203 593 c 1
 195 592 l 1
 188 589 l 1
 156 563 169 518 160 505 c 0
 156 499 147 499 137 499 c 2
 112 499 l 2
 100 499 91 500 91 520 c 0
EndSplineSet
EndChar

StartChar: hungarumlaut.uc
Encoding: 65545 -1 271
Width: 550
Flags: HW
TeX: 630 0
ItalicCorrection: 59
HStem: 528 114<190.406 227.973 287 296 347 392.812 393.325 411.291> 609 33<512.338 574.842>
LayerCount: 2
Fore
SplineSet
95 540 m 0
 95 548 103 554 108 558 c 0
 218 642 212 642 234 642 c 2x40
 369 642 l 2x80
 385 642 389 638 393 635 c 1
 400 639 402 642 418 642 c 2
 556 642 l 2
 566 642 574 640 576 629 c 1
 573 617 570 619 550 609 c 1x40
 377 535 366 527 347 527 c 0
 342 527 337 528 329 528 c 2x80
 296 528 l 2
 287 528 278 531 278 541 c 0
 278 550 290 557 348 601 c 1
 181 529 183 528 164 528 c 2
 114 528 l 2x80
 105 528 95 530 95 540 c 0
EndSplineSet
EndChar

StartChar: ring.uc
Encoding: 65546 -1 272
Width: 764
Flags: HW
TeX: 666 0
HStem: 426 73<326.594 437.906> 594 72<326.367 437.547>
VStem: 259 62<504.36 588.9> 442 61<503.447 589.2>
LayerCount: 2
Fore
SplineSet
259 547 m 0
 259 608 283 666 382 666 c 0
 443 666 503 642 503 545 c 0
 503 484 479 426 380 426 c 0
 311 426 259 456 259 547 c 0
321 547 m 0
 321 503 343 499 379 499 c 2
 385 499 l 2
 416 499 442 501 442 546 c 0
 442 590 420 594 384 594 c 1
 350 593 321 595 321 547 c 0
EndSplineSet
EndChar

StartChar: twelveudash
Encoding: 61700 61700 273
Width: 733
Flags: HW
TeX: 460 0
ItalicCorrection: 30
HStem: 247 73<3.69141 728.678>
LayerCount: 2
Fore
SplineSet
0 283 m 0
 0 292 5 320 45 320 c 2
 689 320 l 2
 728 320 732 292 732 283 c 0
 732 269 725 247 686 247 c 2
 45 247 l 2
 5 247 0 273 0 283 c 0
EndSplineSet
EndChar

StartChar: threequartersemdash
Encoding: 63198 63198 274
Width: 825
Flags: HW
TeX: 460 0
ItalicCorrection: 30
HStem: 247 73<3.08145 820.965>
LayerCount: 2
Fore
SplineSet
0 283 m 0
 0 293 4 320 45 320 c 2
 780 320 l 2
 820 320 824 293 824 283 c 0
 824 274 820 247 780 247 c 2
 44 247 l 2
 4 247 0 274 0 283 c 0
EndSplineSet
EndChar

StartChar: arrowleft
Encoding: 8592 8592 275
Width: 1100
Flags: HW
TeX: 406 -93
HStem: 208 84<264 1031.25>
VStem: 284 97<-29.7365 69.5534> 296 86<443.481 540.935>
LayerCount: 2
Fore
SplineSet
61 250 m 0
 61 280 91 286 117 295 c 1
 208 331 273 408 296 503 c 0
 300 520 305 546 339 546 c 2xa0
 342 546 l 2
 376 546 382 518 382 508 c 1xa0
 382 508 373 395 264 292 c 1
 982 292 l 2
 989 292 996 292 1003 291 c 0
 1022 287 1037 270 1037 250 c 0
 1037 231 1022 213 1003 209 c 0
 996 208 989 208 982 208 c 2
 264 208 l 1
 371 106 381 -5 381 -9 c 0
 381 -22 375 -46 339 -46 c 0
 295 -45 304 -15 284 37 c 0xc0
 226 185 88 214 80 218 c 0
 68 224 61 236 61 250 c 0
EndSplineSet
EndChar

StartChar: arrowright
Encoding: 8594 8594 276
Width: 1100
Flags: HW
TeX: 406 -93
HStem: 208 84<65.748 833>
VStem: 716 97<430.447 529.863> 716 85<-41.1204 55.6127>
LayerCount: 2
Fore
SplineSet
60 250 m 0
 60 269 75 287 94 291 c 0
 101 292 108 292 115 292 c 2
 833 292 l 1
 727 392 716 503 716 509 c 0
 716 523 724 546 756 546 c 0
 802 546 793 515 813 463 c 0xc0
 871 315 1009 286 1017 282 c 0
 1029 276 1037 263 1037 250 c 0
 1037 220 1008 216 980 205 c 0
 885 168 822 86 801 -3 c 0
 796 -23 792 -46 757 -46 c 2
 756 -46 l 2
 724 -46 716 -22 716 -6 c 1
 716 -6 726 107 833 208 c 1
 115 208 l 2xa0
 108 208 101 208 94 209 c 0
 75 213 60 230 60 250 c 0
EndSplineSet
EndChar

StartChar: uni0361.alt
Encoding: 61701 61701 277
Width: 255
Flags: HW
TeX: 722 0
ItalicCorrection: 342
HStem: 607 86<206.179 448.851>
LayerCount: 2
Fore
SplineSet
59 580 m 0
 59 589 64 618 95 644 c 0
 147 687 246 693 323 693 c 0
 388 693 560 693 588 598 c 0
 590 592 591 586 591 580 c 0
 591 562 579 564 567 563 c 1
 477 563 l 1
 444 564 467 582 433 595 c 0
 403 607 354 607 325 607 c 0
 161 607 216 563 175 563 c 2
 79 563 l 2
 68 563 59 566 59 580 c 0
EndSplineSet
EndChar

StartChar: uni0361
Encoding: 865 865 278
Width: 0
Flags: HW
TeX: 958 0
ItalicCorrection: 373
HStem: 581 85<-90.8562 151.318>
VStem: 192 141<486.41 545.645>
AnchorPoint: "affricate-above" 31 475 mark 0
LayerCount: 2
Fore
SplineSet
-271 506 m 0
 -271 534 -256 570 -234 594 c 0
 -203 628 -141 666 27 666 c 2
 31 666 l 2
 106 666 301 666 330 527 c 0
 331 520 333 513 333 506 c 0
 333 486 320 487 307 486 c 1
 232 486 l 2
 194 486 200 487 192 520 c 1
 170 578 79 581 40 581 c 2
 30 581 l 2
 -155 581 -124 503 -140 490 c 0
 -147 484 -159 487 -170 486 c 1
 -251 486 l 1
 -263 487 -271 490 -271 506 c 0
EndSplineSet
EndChar

StartChar: uni2040.alt
Encoding: 61702 61702 279
Width: 500
Flags: HW
TeX: 722 0
ItalicCorrection: 342
HStem: 607 86<200.176 296.219>
LayerCount: 2
Fore
SplineSet
60 581 m 0
 60 626 91 693 247 693 c 2
 251 693 l 2
 295 693 420 691 436 592 c 0
 437 589 437 585 437 582 c 0
 437 562 425 564 412 563 c 1
 323 563 l 1
 281 564 324 604 254 607 c 1
 243 607 l 1
 177 605 213 563 177 563 c 2
 80 563 l 2
 69 563 60 567 60 581 c 0
EndSplineSet
EndChar

StartChar: uni2040
Encoding: 8256 8256 280
Width: 500
Flags: HW
TeX: 722 0
ItalicCorrection: 373
HStem: 581 85<166.756 334.629>
VStem: 0 138<486 554.625>
LayerCount: 2
Fore
SplineSet
0 506 m 0
 0 570 39 666 248 666 c 0
 307 666 396 663 451 613 c 0
 483 584 499 539 499 507 c 0
 499 485 487 487 473 486 c 1
 383 486 l 1
 350 488 376 510 344 552 c 1
 319 578 282 580 247 581 c 1
 186 581 145 563 138 512 c 0
 136 500 138 487 118 486 c 1
 20 486 l 1
 7 487 0 490 0 506 c 0
EndSplineSet
EndChar

StartChar: uni2422
Encoding: 9250 9250 281
Width: 561
Flags: HW
TeX: 722 0
HStem: -11 73<222.025 348.298> -0 21G<98 166.5> 397 72<228.526 350.904> 702 20G<96 157.5>
VStem: 61 137<80.1538 377.902 526.428 546.647 649 708.529> 61 125<649.391 718.783> 388 136<105.678 358.517>
LayerCount: 2
Fore
SplineSet
-49 439 m 0
 -49 461 -37 467 61 543 c 1
 61 676 l 2
 61 719 85 722 107 722 c 2
 145 722 l 2
 170 722 172 722 186 709 c 1
 194 699 195 686 195 674 c 2
 195 649 l 1
 314 743 312 744 329 744 c 0
 356 744 379 706 379 689 c 0
 379 667 372 667 195 528 c 1
 195 429 l 1
 233 453 277 469 334 469 c 0
 422 469 488 427 513 334 c 0
 524 292 524 246 524 224 c 0
 523 35 412 -11 310 -11 c 0xb6
 262 -11 226 5 197 27 c 1
 188 9 180 0 153 -0 c 0
 138 0 123 0 108 -0 c 0
 88 0 61 2 61 48 c 2
 61 422 l 1x76
 36 402 18 384 -0 384 c 0
 -21 384 -49 418 -49 439 c 0
198 101 m 1
 209 89 229 62 276 62 c 0
 392 62 388 165 388 234 c 0
 388 311 385 397 287 397 c 0xba
 249 397 223 383 198 362 c 1
 198 101 l 1
EndSplineSet
EndChar

StartChar: quotesingle
Encoding: 39 39 282
Width: 305
Flags: HW
TeX: 722 0
HStem: 702 20G<100.5 203>
VStem: 84 135<626.867 722>
LayerCount: 2
Fore
SplineSet
84 696 m 1
 84 710 l 1
 88 722 95 722 106 722 c 2
 197 722 l 2
 209 722 219 720 219 705 c 0
 219 702 218 698 218 695 c 2
 189 403 l 2
 187 385 185 384 182 381 c 1
 178 379 176 378 167 378 c 2
 135 378 l 1
 114 379 114 393 113 407 c 2
 84 696 l 1
EndSplineSet
EndChar

StartChar: fraction
Encoding: 8260 8260 285
Width: 550
Flags: HW
TeX: 749 249
DStem2: 68 -178 150 -199 0.352056 0.935979<-30.3678 976.35>
LayerCount: 2
Fore
SplineSet
60 -208 m 0
 60 -196 66 -184 68 -178 c 2
 399 702 l 2
 407 722 416 749 446 749 c 0
 467 749 487 731 487 708 c 0
 487 698 483 689 480 681 c 2
 150 -199 l 2
 142 -220 134 -249 102 -249 c 0
 83 -249 60 -233 60 -208 c 0
EndSplineSet
EndChar

StartChar: zerooldstyle
Encoding: 63280 63280 286
Width: 550
Flags: HW
TeX: 460 0
HStem: -22 72<208.514 336.353> 408 72<209.356 339.816>
VStem: 42 137<84.6797 367.876> 369 136<86.5504 369.542>
LayerCount: 2
Fore
SplineSet
42 222 m 0
 42 308 43 480 257 480 c 0
 325 480 414 478 464 406 c 0
 504 349 505 276 505 222 c 0
 505 64 458 -16 293 -22 c 1
 254 -22 l 1
 78 -15 42 81 42 222 c 0
179 228 m 2
 179 111 185 50 274 50 c 0
 357 50 369 109 369 215 c 2
 369 252 l 2
 369 355 361 408 274 408 c 0
 184 408 179 344 179 260 c 2
 179 228 l 2
EndSplineSet
EndChar

StartChar: oneoldstyle
Encoding: 63281 63281 287
Width: 550
Flags: HW
TeX: 460 0
HStem: -0 73<95.375 220 356 468.941> 340 71<79.829 217.256> 438 20G<299 320>
VStem: 220 136<73 348>
LayerCount: 2
Fore
SplineSet
77 376 m 0
 77 396 93 408 108 411 c 1
 141 413 212 412 265 441 c 0
 283 451 287 458 311 458 c 2
 314 458 l 2
 326 458 356 457 356 412 c 2
 356 73 l 1
 429 73 l 2
 469 73 472 45 472 36 c 0
 472 26 468 0 429 -0 c 2
 135 -0 l 2
 96 0 92 27 92 36 c 0
 92 45 96 73 136 73 c 2
 220 73 l 1
 220 348 l 1
 200 345 181 341 122 340 c 0
 120 340 77 338 77 376 c 0
EndSplineSet
EndChar

StartChar: twooldstyle
Encoding: 63282 63282 288
Width: 550
Flags: HW
TeX: 460 0
HStem: -0 107<212 489.168> 380 101<168.782 325.22>
VStem: 354 139<254.371 351.983>
DStem2: 223 181 212 106 0.860475 0.509492<-47.6771 157.703>
LayerCount: 2
Fore
SplineSet
47 387 m 1
 47 392 l 1
 50 397 l 1
 68 417 132 481 257 481 c 0
 397 481 493 412 493 309 c 0
 493 225 416 204 316 161 c 1
 212 106 l 1
 431 107 l 1
 449 107 l 2
 472 107 493 101 493 61 c 0
 493 56 493 51 493 46 c 0
 493 27 490 0 449 -0 c 2
 93 -0 l 2
 49 0 48 26 48 51 c 2
 48 59 l 2
 48 77 50 79 71 91 c 2
 223 181 l 2
 280 215 354 245 354 307 c 0
 354 351 310 380 243 380 c 0
 153 380 145 322 124 322 c 2
 122 322 l 2
 117 322 114 324 56 373 c 0
 48 381 48 384 47 387 c 1
EndSplineSet
EndChar

StartChar: threeoldstyle
Encoding: 63283 63283 289
Width: 550
Flags: HW
TeX: 460 194
HStem: -217 95<152.671 329.959> 121 68<187 281.315> 391 90<178.552 319.953>
VStem: 335 137<241.539 377.067> 361 142<-89.5195 81.4848>
LayerCount: 2
Fore
SplineSet
46 -132 m 0
 46 -125 55 -78 58 -65 c 1
 61 -58 64 -55 69 -55 c 0
 88 -55 143 -122 260 -122 c 0
 362 -122 361 -44 361 3 c 0
 360 98 324 122 249 122 c 0
 243 122 236 121 230 121 c 2
 207 121 l 2
 183 121 182 128 182 146 c 2xe8
 182 177 l 1
 184 184 l 1
 187 189 l 1
 208 203 247 187 284 211 c 0
 319 234 335 276 335 316 c 0
 335 355 327 391 261 391 c 0
 163 391 129 319 113 319 c 0
 102 319 65 371 62 382 c 1
 63 391 61 391 80 409 c 0
 90 418 154 481 266 481 c 0
 440 481 472 382 472 316 c 0xf0
 472 238 422 188 369 160 c 1
 391 153 503 127 503 -2 c 0
 503 -105 455 -217 264 -217 c 0
 163 -217 101 -180 58 -151 c 0
 52 -147 46 -142 46 -132 c 0
EndSplineSet
EndChar

StartChar: fouroldstyle
Encoding: 63284 63284 290
Width: 550
Flags: HW
TeX: 460 194
HStem: -0 95<140 305 427 514.001> 438 20G<288.5 403.5>
VStem: 310 117<-213.031 0 95 356>
DStem2: 45 119 140 95 0.547897 0.836546<31.9731 343.454>
LayerCount: 2
Fore
SplineSet
30 46 m 2
 30 75 l 2
 30 93 30 96 45 119 c 2
 250 432 l 2
 265 455 276 458 301 458 c 2
 383 458 l 2
 424 458 427 429 427 413 c 2
 427 95 l 1
 472 95 l 2
 491 95 518 94 518 49 c 0
 518 31 520 0 471 -0 c 2
 427 -0 l 1
 427 -169 l 2
 427 -188 426 -217 383 -217 c 0
 372 -217 361 -217 350 -217 c 0
 304 -217 305 -186 305 -170 c 2
 305 -0 l 1
 79 -0 l 2
 55 0 30 3 30 46 c 2
140 95 m 1
 310 95 l 1
 310 356 l 1
 140 95 l 1
EndSplineSet
EndChar

StartChar: fiveoldstyle
Encoding: 63285 63285 291
Width: 550
Flags: HW
TeX: 460 194
HStem: -217 95<171.878 319.883> 158 73<213.908 330.496> 358 100<211 453.343>
VStem: 82 376<361.205 453.846> 82 129<218 358> 352 142<-89.9753 126.577>
LayerCount: 2
Fore
SplineSet
56 -107 m 0
 56 -98 67 -84 94 -43 c 0
 99 -36 104 -31 110 -31 c 0
 128 -31 142 -122 246 -122 c 0
 346 -122 352 -55 352 2 c 2
 352 20 l 2
 352 108 344 158 282 158 c 0
 224 158 195 121 185 107 c 0
 170 87 166 78 138 78 c 0
 135 78 133 79 130 79 c 0
 84 79 82 100 82 133 c 2xec
 82 414 l 2
 82 454 108 458 128 458 c 2
 411 458 l 2
 442 458 458 447 458 408 c 0xf0
 458 375 449 357 412 357 c 0
 408 357 404 358 402 358 c 2
 211 358 l 1
 211 218 l 1
 241 228 258 231 287 231 c 0
 388 231 494 188 494 14 c 0
 494 -100 444 -217 245 -217 c 0
 120 -217 56 -123 56 -107 c 0
EndSplineSet
EndChar

StartChar: sevenoldstyle
Encoding: 63287 63287 293
Width: 550
Flags: HW
TeX: 460 194
HStem: 351 108<48.6124 351>
VStem: 143 138<-201.903 1.10547>
LayerCount: 2
Fore
SplineSet
45 396 m 2
 45 415 l 2
 45 430 46 459 89 459 c 2
 165 459 l 1
 385 458 l 1
 458 458 l 2
 502 458 503 426 503 413 c 2
 503 403 l 2
 503 356 478 372 400 245 c 0
 270 33 287 -157 281 -179 c 0
 274 -205 249 -206 241 -206 c 2
 189 -206 l 2
 163 -206 143 -197 143 -162 c 0
 143 -100 147 130 351 352 c 1
 312 351 l 1
 155 351 l 1
 100 350 l 1
 89 350 l 2
 52 350 45 372 45 396 c 2
EndSplineSet
EndChar

StartChar: nineoldstyle
Encoding: 63289 63289 295
Width: 550
Flags: HW
TeX: 460 194
HStem: -217 95<153.247 302.817> 4 73<207.436 318.194> 391 89<209.964 328.462>
VStem: 45 139<107.309 365.279> 363 140<44.3869 326.837>
LayerCount: 2
Fore
SplineSet
45 234 m 0
 45 314 54 369 107 422 c 0
 153 468 206 480 276 480 c 0
 509 480 503 224 503 133 c 0
 503 24 485 -91 404 -159 c 0
 355 -200 289 -217 227 -217 c 0
 163 -217 129 -200 90 -174 c 0
 83 -169 80 -165 80 -159 c 0
 80 -149 90 -135 109 -102 c 0
 116 -90 121 -86 127 -86 c 0
 143 -86 162 -122 227 -122 c 0
 349 -122 359 -12 363 65 c 1
 350 50 313 4 236 4 c 0
 143 4 104 45 80 82 c 0
 48 131 45 180 45 234 c 0
183 259 m 0
 183 252 184 244 184 237 c 2
 184 216 l 2
 184 142 186 77 264 77 c 0
 336 77 363 154 363 222 c 0
 363 363 327 391 274 391 c 0
 187 391 183 327 183 259 c 0
EndSplineSet
EndChar

StartChar: angleleft
Encoding: 9001 9001 296
Width: 428
Flags: HW
TeX: 749 249
DStem2: 127 273 207 250 0.330643 0.943756<4.74506 488.694> 207 250 127 227 0.331328 -0.943516<0 483.949>
LayerCount: 2
Fore
SplineSet
121 250 m 0
 121 258 124 265 127 273 c 2
 278 704 l 2
 282 715 289 749 324 749 c 0
 345 749 365 733 365 708 c 0
 365 696 360 683 357 675 c 2
 207 250 l 1
 357 -174 l 2
 361 -185 365 -196 365 -208 c 0
 365 -232 345 -249 324 -249 c 0
 292 -249 283 -219 278 -203 c 2
 127 227 l 2
 124 235 121 242 121 250 c 0
EndSplineSet
EndChar

StartChar: minus
Encoding: 8722 8722 297
Width: 855
Flags: HW
TeX: 616 116
HStem: 214 72<63.0814 788.965>
LayerCount: 2
Fore
SplineSet
60 250 m 0
 60 259 64 286 105 286 c 2
 748 286 l 2
 788 286 792 259 792 250 c 0
 792 241 788 214 748 214 c 2
 105 214 l 2
 64 214 60 241 60 250 c 0
EndSplineSet
EndChar

StartChar: angleright
Encoding: 9002 9002 298
Width: 428
Flags: HW
TeX: 749 249
DStem2: 148 703 69 674 0.331328 -0.943516<-33.3431 450.937> 69 -175 147 -204 0.332591 0.943071<-32.6397 450.694>
LayerCount: 2
Fore
SplineSet
60 -207 m 0
 60 -195 66 -183 69 -175 c 2
 219 250 l 1
 69 674 l 2
 65 685 60 696 60 708 c 0
 60 732 81 749 102 749 c 0
 138 749 147 707 148 703 c 2
 299 273 l 2
 301 266 304 259 304 250 c 0
 304 242 302 234 299 227 c 2
 147 -204 l 2
 143 -214 136 -249 102 -249 c 0
 81 -249 60 -232 60 -207 c 0
EndSplineSet
EndChar

StartChar: uni2127
Encoding: 8487 8487 299
Width: 794
Flags: HW
TeX: 694 0
HStem: -22 72<283.618 507.244> 586 108<52.2769 254 538 739.836>
VStem: 48 294<596.102 690.111> 60 142<127.2 327.321> 450 294<595.582 689.93> 590 142<126.878 327.498>
LayerCount: 2
Fore
SplineSet
48 632 m 2
 48 648 l 2
 48 693 77 694 96 694 c 2
 301 694 l 2
 320 694 342 686 342 653 c 0xe0
 342 498 202 371 202 228 c 0
 202 86 287 50 396 50 c 0
 505 50 590 86 590 228 c 0xd4
 590 370 450 501 450 651 c 0
 450 673 459 694 494 694 c 2
 696 694 l 2
 723 694 744 688 744 649 c 2
 744 632 l 2
 744 593 723 586 699 586 c 2
 692 586 l 1
 670 587 l 1xc8
 580 587 l 1
 538 588 l 1
 589 472 732 385 732 229 c 0
 732 128 685 -22 398 -22 c 0
 286 -22 174 -4 110 77 c 0
 73 124 60 184 60 229 c 0xd4
 60 384 203 472 254 588 c 1
 212 587 l 1
 123 587 l 1
 101 586 l 1
 93 586 l 2
 57 586 48 605 48 632 c 2
EndSplineSet
EndChar

StartChar: circle
Encoding: 9675 9675 300
Width: 1222
Flags: HW
TeX: 749 249
HStem: -272 83<423.435 796.054> 689 83<427.452 795.178>
VStem: 60 83<80.7377 415.097> 1075 84<80.597 420.4>
LayerCount: 2
Fore
SplineSet
60 251 m 0
 60 510 170 772 609 772 c 0
 1049 772 1159 513 1159 249 c 0
 1159 -11 1049 -272 609 -272 c 0
 170 -272 60 -10 60 251 c 0
143 250 m 0
 143 -101 359 -189 609 -189 c 0
 865 -189 1075 -101 1075 252 c 0
 1075 601 860 689 610 689 c 0
 327 689 143 576 143 250 c 0
EndSplineSet
EndChar

StartChar: uni2126
Encoding: 8486 8486 301
Width: 794
Flags: HW
TeX: 694 0
HStem: 0 107<52.1508 254 538 739.756> 644 73<284.85 508.382>
VStem: 48 294<3.76258 98.3223> 60 142<366.622 567.238> 450 294<4.07126 98.7051> 590 142<366.565 566.8>
LayerCount: 2
Fore
SplineSet
48 46 m 2
 48 62 l 2xe0
 48 88 57 108 93 108 c 2
 100 108 l 1
 122 107 l 1
 212 107 l 1
 254 106 l 1
 203 222 60 309 60 465 c 0
 60 566 109 717 394 717 c 0
 506 717 618 698 682 617 c 0
 719 570 732 510 732 465 c 0xd4
 732 309 589 222 538 106 c 1
 580 107 l 1
 670 107 l 1
 692 108 l 1
 700 108 l 2
 722 108 744 102 744 62 c 2xc8
 744 46 l 2
 744 2 717 0 696 0 c 2
 494 0 l 2
 462 0 450 18 450 43 c 0xc8
 450 194 590 324 590 466 c 0
 590 608 505 644 396 644 c 0
 286 644 202 608 202 466 c 0xd4
 202 324 342 195 342 42 c 0
 342 3 314 0 297 0 c 2
 96 0 l 2
 76 0 48 1 48 46 c 2
EndSplineSet
EndChar

StartChar: uni301A
Encoding: 12314 12314 302
Width: 443
Flags: HW
TeX: 749 249
HStem: -250 84<193 248 331 414.218> 666 84<194 248 331 413.828>
VStem: 110 83<-166 666> 248 83<-166 666>
LayerCount: 2
Fore
SplineSet
110 -202 m 2
 110 704 l 2
 110 718 108 750 158 750 c 2
 373 750 l 2
 385 750 418 749 418 710 c 0
 418 668 389 666 373 666 c 2
 331 666 l 1
 331 -166 l 1
 370 -166 l 2
 387 -166 419 -167 418 -208 c 1
 419 -248 385 -250 372 -250 c 2
 154 -250 l 2
 109 -250 110 -217 110 -202 c 2
193 -166 m 1
 248 -166 l 1
 248 666 l 1
 194 666 l 1
 193 627 l 1
 193 -166 l 1
EndSplineSet
EndChar

